<?xml version="1.0" standalone="no"?>
<!DOCTYPE svg PUBLIC "-//W3C//DTD SVG 20010904//EN"
 "http://www.w3.org/TR/2001/REC-SVG-20010904/DTD/svg10.dtd">
<svg version="1.0" xmlns="http://www.w3.org/2000/svg"
 width="260.000000pt" height="260.000000pt" viewBox="0 0 260.000000 260.000000"
 preserveAspectRatio="xMidYMid meet">
<metadata>
Created by potrace 1.14, written by Peter Selinger 2001-2017
</metadata>
<g transform="translate(0.000000,260.000000) scale(0.100000,-0.100000)"
fill="#000000" stroke="none">
<path d="M1272 2472 c-15 -2 -36 -22 -55 -50 -81 -120 -183 -184 -312 -198
-22 -2 -47 -5 -55 -6 -22 -3 -112 12 -135 23 -60 27 -108 38 -126 29 -38 -21
-56 -90 -35 -137 6 -16 5 -46 -4 -95 -8 -40 -15 -79 -16 -86 -5 -28 -69 -115
-108 -146 -47 -37 -115 -71 -166 -81 -42 -9 -87 -41 -93 -67 -6 -21 29 -88 46
-88 16 0 80 -80 96 -119 8 -20 16 -72 17 -116 1 -44 3 -84 5 -90 4 -14 -34
-84 -76 -140 -21 -26 -42 -61 -47 -77 -9 -25 -7 -33 13 -54 13 -14 45 -36 71
-49 75 -38 125 -95 142 -162 20 -81 18 -116 -8 -166 -32 -59 -32 -123 0 -144
16 -10 35 -13 56 -9 110 20 110 20 163 8 53 -11 67 -20 119 -70 42 -41 86
-132 86 -179 0 -12 15 -32 35 -47 l35 -27 32 23 c18 13 41 32 50 43 37 43 51
54 108 84 51 27 70 32 156 35 55 2 104 1 109 -4 6 -4 22 -10 38 -14 32 -8 137
-73 137 -85 0 -5 19 -20 42 -34 39 -23 45 -24 69 -11 27 13 35 29 64 121 9 28
23 57 31 63 7 7 14 18 14 25 0 17 70 84 106 101 21 10 68 16 138 17 151 3 148
-2 133 222 -6 89 -6 90 29 155 38 69 57 88 141 146 81 55 87 109 20 190 -31
38 -58 123 -61 193 -3 59 23 156 52 201 29 44 41 90 31 119 -7 20 -22 31 -62
45 -138 49 -184 85 -222 181 -20 49 -24 72 -20 128 2 38 9 74 13 81 15 18 -20
69 -53 77 -15 5 -36 4 -46 -1 -10 -6 -53 -18 -96 -29 -84 -20 -235 -21 -241
-1 -2 5 -14 10 -26 10 -33 0 -82 27 -106 58 -12 14 -35 32 -51 39 -16 7 -34
24 -39 38 -25 65 -98 133 -138 127z m45 -188 c15 -14 42 -39 60 -54 39 -35 54
-62 43 -80 -6 -10 -40 -14 -132 -16 -68 -1 -134 -5 -148 -9 -19 -5 -33 -1 -50
14 -19 15 -21 20 -9 21 9 0 47 26 85 58 62 52 115 92 121 92 1 0 15 -12 30
-26z m-432 -171 c38 -2 74 -8 80 -14 10 -11 -15 -36 -65 -63 -14 -7 -63 -37
-110 -65 -46 -29 -94 -50 -105 -49 -26 4 -47 46 -34 69 5 10 9 32 9 49 0 46
34 85 70 82 15 -2 31 2 35 7 4 8 13 7 28 -1 12 -7 53 -14 92 -15z m1047 -63
c21 -26 24 -100 6 -118 -7 -7 -19 -12 -28 -12 -22 0 -108 48 -149 82 -27 23
-30 31 -21 47 19 37 163 37 192 1z m-522 -22 c0 -5 9 -8 20 -8 29 0 113 -30
133 -48 17 -15 17 -17 -5 -34 -13 -10 -38 -18 -56 -18 -18 0 -40 -4 -50 -9
-25 -13 -127 -30 -149 -25 -10 2 -40 6 -68 8 -125 11 -203 29 -208 47 -5 18
21 49 40 49 6 0 16 6 22 14 7 8 20 12 30 9 10 -3 22 0 25 6 4 6 20 8 35 5 16
-4 36 -2 44 2 19 11 187 12 187 2z m728 -312 c66 -33 86 -58 77 -93 -5 -15 -7
-32 -6 -36 1 -5 -5 -23 -13 -40 -8 -18 -16 -39 -19 -48 -3 -9 -15 -19 -27 -22
-16 -4 -23 1 -31 21 -5 15 -13 36 -18 47 -5 11 -14 34 -21 50 -32 75 -33 145
-4 145 8 0 36 -11 62 -24z m-1601 -39 c-7 -42 -11 -60 -18 -72 -3 -5 -14 -43
-24 -82 -18 -71 -20 -73 -51 -73 -27 0 -32 4 -37 30 -4 16 -15 37 -26 47 -11
9 -18 20 -16 23 3 4 1 21 -4 38 -8 27 -5 34 28 66 20 20 43 36 50 36 7 0 24 9
38 20 36 28 67 11 60 -33z m796 -121 c15 -19 27 -39 27 -45 0 -5 26 -36 58
-68 47 -47 69 -61 120 -77 150 -45 307 3 379 117 19 31 29 38 50 35 37 -4 54
-59 59 -188 5 -142 -35 -330 -77 -355 -5 -4 -9 -13 -9 -21 0 -18 -98 -151
-138 -186 -16 -14 -31 -30 -33 -35 -7 -14 -169 -99 -233 -122 -156 -55 -377
-46 -531 22 -27 12 -54 27 -58 34 -4 7 -15 13 -24 13 -20 0 -110 64 -146 104
-43 47 -147 209 -147 228 0 9 -9 33 -21 52 -11 19 -23 57 -26 83 -12 102 -14
237 -4 257 5 12 12 38 16 59 8 52 33 49 90 -12 25 -26 67 -59 93 -71 26 -12
59 -28 73 -35 18 -8 32 -9 43 -3 10 6 26 8 36 5 27 -7 119 12 162 34 43 22
158 132 158 151 0 19 29 58 43 58 7 0 24 -16 40 -34z m854 -298 c52 -57 67
-156 28 -184 -10 -8 -30 -24 -44 -37 -39 -35 -45 -36 -65 -21 -14 10 -16 17
-9 26 6 7 13 31 16 53 6 47 27 154 32 173 6 18 19 15 42 -10z m-1717 -103 c6
-14 15 -37 21 -52 7 -16 13 -42 15 -58 1 -17 14 -54 28 -82 14 -28 26 -54 26
-58 0 -4 16 -25 35 -46 19 -22 35 -45 35 -52 0 -21 130 -145 198 -188 35 -21
65 -39 68 -39 3 0 17 -9 31 -19 13 -11 31 -17 39 -14 8 3 14 1 14 -5 0 -6 39
-22 88 -37 104 -32 132 -45 132 -60 0 -12 -73 -55 -93 -55 -6 0 -18 -6 -26
-13 -9 -8 -43 -22 -75 -32 l-59 -18 -26 30 c-14 17 -38 46 -52 65 -52 67 -143
118 -244 135 -54 9 -75 49 -79 150 -5 107 -15 131 -82 206 -29 32 -64 76 -79
97 l-26 37 32 67 c35 72 61 86 79 41z m1562 -327 c4 -12 4 -55 0 -144 -2 -36
-7 -45 -40 -66 -21 -15 -62 -29 -92 -33 -29 -4 -70 -16 -89 -27 -42 -24 -113
-96 -157 -160 -41 -59 -78 -68 -138 -33 -24 14 -52 25 -63 25 -11 0 -32 11
-47 25 -23 21 -26 28 -16 40 7 9 29 15 51 15 21 0 41 5 44 10 3 6 14 10 24 10
10 0 24 7 32 16 8 9 21 13 35 10 12 -3 24 -3 26 2 2 4 43 27 92 52 49 25 94
53 100 62 6 10 16 18 23 18 12 0 53 39 140 133 54 58 68 66 75 45z"/>
<path d="M738 1257 c-40 -38 -42 -59 -10 -108 16 -24 40 -70 53 -102 38 -95
140 -201 242 -252 150 -76 314 -98 420 -56 16 6 37 11 48 11 11 0 56 25 101
55 44 30 87 55 94 55 7 0 19 10 25 23 6 12 29 45 49 72 42 55 105 169 125 226
17 47 1 74 -52 88 -64 18 -93 -15 -88 -98 1 -25 -3 -57 -9 -71 -18 -41 -78
-120 -92 -120 -7 0 -19 -12 -26 -27 -20 -42 -198 -130 -234 -116 -8 3 -20 1
-27 -5 -13 -11 -105 -11 -123 0 -5 3 -28 9 -52 13 -87 14 -194 83 -258 166
-52 68 -68 114 -60 173 7 46 3 54 -36 79 -37 23 -60 21 -90 -6z"/>
</g>
</svg>
