<svg xmlns="http://www.w3.org/2000/svg" viewBox="0 0 1092 1092"><defs><style>.cls-1{fill:#fff;}.cls-2{fill:#7fb800;}</style></defs><title>Asset 10</title><g id="Layer_2" data-name="Layer 2"><g id="Layer_2-2" data-name="Layer 2"><rect class="cls-1" width="1092" height="1092"/></g><g id="Layer_11" data-name="Layer 11"><path class="cls-2" d="M645.21,248.73V390.22a14.15,14.15,0,0,1-28.3,0V340.7a7.07,7.07,0,1,0-14.15,0V461a14.15,14.15,0,0,1-28.3,0V340.7a7.07,7.07,0,1,0-14.15,0V461a14.15,14.15,0,0,1-28.3,0V340.7a7.07,7.07,0,0,0-14.15,0V461a14.15,14.15,0,1,1-28.3,0V340.7a7.07,7.07,0,0,0-14.15,0V461a14.15,14.15,0,0,1-28.3,0V248.73H249V843H447.12V701.51a14.15,14.15,0,1,1,28.3,0V751a7.07,7.07,0,0,0,14.15,0V630.76a14.15,14.15,0,0,1,28.3,0V751A7.07,7.07,0,1,0,532,751V630.76a14.15,14.15,0,0,1,28.3,0V751a7.07,7.07,0,0,0,14.15,0V630.76a14.15,14.15,0,0,1,28.3,0V751a7.07,7.07,0,0,0,14.15,0V630.76a14.15,14.15,0,0,1,28.3,0V843H843.3V248.73Z"/></g></g></svg>