<svg xmlns="http://www.w3.org/2000/svg" viewBox="0 0 1804.58 1530.71"><defs><style>.cls-1{fill:#ffb400;}</style></defs><title>Asset 8new</title><g id="Layer_2" data-name="Layer 2"><g id="Layer_1-2" data-name="Layer 1"><path class="cls-1" d="M1782.55,696.62,1320.34,49.52A118.26,118.26,0,0,0,1224.11,0H580.47a118.26,118.26,0,0,0-96.23,49.52L22,696.62a118.26,118.26,0,0,0,0,137.48l462.21,647.09a118.26,118.26,0,0,0,96.23,49.52h643.63a118.26,118.26,0,0,0,96.23-49.52l462.21-647.09A118.26,118.26,0,0,0,1782.55,696.62Zm-305.5-119.36a13.93,13.93,0,0,1-13.93,13.93h-41.8a13.93,13.93,0,0,0-13.93,13.93V925.59a13.93,13.93,0,0,0,13.93,13.93h41.8a13.93,13.93,0,0,1,13.93,13.93v41.8a13.93,13.93,0,0,1-13.93,13.94H1282A13.93,13.93,0,0,1,1268,995.26v-41.8A13.93,13.93,0,0,1,1282,939.53h41.8a13.93,13.93,0,0,0,13.93-13.94V814.12a13.93,13.93,0,0,0-13.93-13.93H1107.83a14,14,0,0,0-14,14v425a13.93,13.93,0,0,0,13.93,13.93h41.8a13.93,13.93,0,0,1,13.93,13.93v41.8a13.93,13.93,0,0,1-13.93,13.93H968.47a13.93,13.93,0,0,1-13.93-13.94V1267A13.93,13.93,0,0,1,968.47,1253h41.8a13.93,13.93,0,0,0,13.93-13.93v-425a13.93,13.93,0,0,0-13.93-13.93h-216a13.93,13.93,0,0,0-13.93,13.93v425A13.93,13.93,0,0,0,794.3,1253h41.8A13.93,13.93,0,0,1,850,1267v41.8a13.93,13.93,0,0,1-13.93,13.93H655A13.93,13.93,0,0,1,641,1308.76V1267A13.93,13.93,0,0,1,655,1253h41.8a13.93,13.93,0,0,0,13.93-13.93v-425a14,14,0,0,0-14-14h-216a13.93,13.93,0,0,0-13.93,13.93V925.59a13.93,13.93,0,0,0,13.93,13.93h41.8a13.93,13.93,0,0,1,13.93,13.93v41.8a13.93,13.93,0,0,1-13.93,13.94H341.46a13.93,13.93,0,0,1-13.93-13.94v-41.8a13.93,13.93,0,0,1,13.93-13.94h41.8a13.93,13.93,0,0,0,13.93-13.94V605.12a13.93,13.93,0,0,0-13.93-13.94h-41.8a13.93,13.93,0,0,1-13.93-13.93v-41.8a13.93,13.93,0,0,1,13.93-13.93H522.6a13.93,13.93,0,0,1,13.93,13.93v41.8a13.93,13.93,0,0,1-13.93,13.93H480.8a13.93,13.93,0,0,0-13.93,13.93V716.59a13.94,13.94,0,0,0,13.93,13.94h216a14,14,0,0,0,14-14v-425a13.93,13.93,0,0,0-13.93-13.93H655A13.93,13.93,0,0,1,641,263.74v-41.8A13.93,13.93,0,0,1,655,208H836.1A13.93,13.93,0,0,1,850,221.94v41.8a13.93,13.93,0,0,1-13.93,13.94H794.3a13.93,13.93,0,0,0-13.93,13.93v425a13.94,13.94,0,0,0,13.93,13.94h216a13.93,13.93,0,0,0,13.93-13.94v-425a13.93,13.93,0,0,0-13.93-13.93h-41.8a13.93,13.93,0,0,1-13.93-13.94v-41.8A13.93,13.93,0,0,1,968.47,208h181.14a13.93,13.93,0,0,1,13.93,13.93v41.8a13.93,13.93,0,0,1-13.93,13.94h-41.8a13.93,13.93,0,0,0-13.93,13.93v425a14,14,0,0,0,14,14h216a13.93,13.93,0,0,0,13.93-13.94V605.12a13.93,13.93,0,0,0-13.93-13.94H1282A13.93,13.93,0,0,1,1268,577.25v-41.8A13.93,13.93,0,0,1,1282,521.52h181.14a13.93,13.93,0,0,1,13.93,13.93Z"/></g></g></svg>