<svg xmlns="http://www.w3.org/2000/svg" viewBox="0 0 279 279"><defs><style>.cls-1{fill:none;}.cls-2{fill:#e591b3;}</style></defs><title>Asset 30</title><g id="Layer_2" data-name="Layer 2"><g id="Layer_1-2" data-name="Layer 1"><rect class="cls-1" width="279" height="279"/></g><g id="Layer_12" data-name="Layer 12"><path class="cls-2" d="M26.13,183.77H32l6.84,17.33H33.4l-1.2-3.48H25.26l-1.17,3.48h-4.8Zm5,10.66-2.24-7.28h-.07l-2.4,7.28Z"/><path class="cls-2" d="M40.84,183.77h7.32c2.06,0,4.8.22,6.6,1.44C57.33,187,58,189.82,58,192.39c0,3.84-1.22,6.67-4.72,8a14.9,14.9,0,0,1-5.09.67H40.84Zm4.92,14h2.06c3.2,0,5.24-1.39,5.24-5.42,0-5.26-3.94-5.26-5.41-5.26l-1.89,0Z"/><path class="cls-2" d="M60.59,183.77h7.56L71,195.51l2.74-11.74,7.53,0,0,17.35H76.79L77,186.55,72.9,201.1H68.58l-4-14.67.12,14.67H60.59Z"/><path class="cls-2" d="M84.52,183.77h4.94V201.1H84.52Z"/><path class="cls-2" d="M92.68,183.77H99.3l5.86,12.91,0-12.91h4.2V201.1h-6.48l-6-13.47.05,13.47H92.68Z"/><path class="cls-2" d="M112.5,183.77h5V201.1h-5Z"/><path class="cls-2" d="M124.89,195.58c0,.69.07,2.69,2.92,2.69.41,0,2.57,0,2.57-2,0-.82-.33-1.37-1.49-1.68l-4.24-1.11c-1.2-.31-4.3-1.12-4.3-4.75,0-2.81,2.11-5.42,7.3-5.42,6.76,0,7,3.67,7.08,5.52h-4.88a2.09,2.09,0,0,0-2.28-2.4c-1.39,0-2.28.79-2.28,1.82,0,1.27,1.06,1.59,1.76,1.78l3.24.84c2.3.6,5,1.32,5,5,0,3.86-3.32,5.59-7.66,5.59-1.8,0-4.7-.29-6.29-2.06a5.65,5.65,0,0,1-1.32-3.84Z"/><path class="cls-2" d="M141.42,187.2h-5.28v-3.43h15.53v3.43h-5.4v13.9h-4.85Z"/><path class="cls-2" d="M153.47,183.77h8c3.13,0,4.3.19,5.33,1.25a4.4,4.4,0,0,1,1.2,3.36,3.32,3.32,0,0,1-1.58,3.21,6.27,6.27,0,0,1-2.64.89v.1c3.36.09,3.55,1.58,3.94,4.25a26.68,26.68,0,0,0,.81,4.27h-5.21a29.28,29.28,0,0,1-.57-3.91c-.22-2.09-.29-2.86-2.45-2.86h-2v6.77h-4.82Zm4.82,7.44h1.8a6.87,6.87,0,0,0,2-.14,2,2,0,0,0,1.27-2c0-2.14-1.88-2.14-3.27-2.14h-1.8Z"/><path class="cls-2" d="M176.27,183.77h5.86L189,201.1h-5.43l-1.2-3.48H175.4l-1.17,3.48h-4.8Zm5,10.66L179,187.15h-.07l-2.4,7.28Z"/><path class="cls-2" d="M192,187.2h-5.28v-3.43h15.53v3.43h-5.4v13.9H192Z"/><path class="cls-2" d="M203.92,183.77h4.94V201.1h-4.94Z"/><path class="cls-2" d="M210.68,183.77H216l3.93,12.55,4.16-12.55h4.77l-6.31,17.33H216.8Z"/><path class="cls-2" d="M231.52,185.69c2.18-2.21,5.49-2.4,6.76-2.4,6.92,0,8.79,5,8.79,9.19,0,6.91-4.9,9-9,9-4.6,0-8.9-2.55-8.9-9C229.14,191.35,229.33,187.9,231.52,185.69ZM238.09,198c3.43,0,4-3.17,4-5.57A7.28,7.28,0,0,0,241,188a3.41,3.41,0,0,0-2.88-1.25c-3.17,0-4,2.74-4,5.71C234.08,195.24,234.9,198,238.09,198Z"/><path class="cls-2" d="M35.52,119.5h5.3l3.94,12.56,4.15-12.56h4.78l-6.31,17.33H41.64Z"/><path class="cls-2" d="M57.55,121.42c2.18-2.21,5.5-2.4,6.77-2.4,6.91,0,8.78,5,8.78,9.19,0,6.92-4.89,9-9,9-4.61,0-8.91-2.54-8.91-9C55.17,127.09,55.37,123.63,57.55,121.42Zm6.58,12.29c3.43,0,4-3.17,4-5.57A7.2,7.2,0,0,0,67,123.75a3.39,3.39,0,0,0-2.88-1.25c-3.17,0-4,2.74-4,5.71C60.12,131,60.94,133.71,64.13,133.71Z"/><path class="cls-2" d="M80,122.93H74.69V119.5H90.22v3.43H84.81v13.9H80Z"/><path class="cls-2" d="M95.93,119.5h5.85l6.84,17.33H103.2l-1.2-3.48H95.06l-1.17,3.48h-4.8Zm5,10.66-2.24-7.27h-.07l-2.4,7.27Z"/><polygon points="54.09 91.83 54.09 37.83 36.09 37.83 36.09 91.83 36.09 109.83 54.09 109.83 108.09 109.83 108.09 91.83 54.09 91.83"/><path class="cls-2" d="M117.09,28.83v117h-90v-117h90m8-8h-106v133h106v-133Z"/><rect class="cls-2" x="63.09" y="37.81" width="5.63" height="42.19"/><rect class="cls-2" x="102.47" y="37.81" width="5.63" height="42.19"/><rect class="cls-2" x="82.78" y="57.5" width="5.63" height="45" transform="translate(5.6 165.59) rotate(-90)"/><rect class="cls-2" x="82.78" y="18.12" width="5.63" height="45" transform="translate(44.97 126.22) rotate(-90)"/><rect class="cls-2" x="82.78" y="40.62" width="5.63" height="22.5" transform="translate(33.72 137.47) rotate(-90)"/><rect class="cls-2" x="82.78" y="49.06" width="5.63" height="22.5" transform="translate(25.28 145.9) rotate(-90)"/><rect class="cls-2" x="82.78" y="57.5" width="5.63" height="22.5" transform="translate(16.85 154.34) rotate(-90)"/></g></g></svg>