<svg xmlns="http://www.w3.org/2000/svg" viewBox="0 0 279 279"><defs><style>.cls-1{fill:none;}.cls-2{fill:#009245;}</style></defs><title>Asset 37</title><g id="Layer_2" data-name="Layer 2"><g id="Layer_1-2" data-name="Layer 1"><rect class="cls-1" width="279" height="279"/></g><g id="Layer_5" data-name="Layer 5"><path class="cls-2" d="M35.52,119.5h5.3l3.94,12.56,4.15-12.56h4.78l-6.31,17.33H41.64Z"/><path class="cls-2" d="M57.55,121.42c2.18-2.21,5.5-2.4,6.77-2.4,6.91,0,8.78,5,8.78,9.19,0,6.92-4.89,9-9,9-4.61,0-8.91-2.54-8.91-9C55.17,127.09,55.37,123.63,57.55,121.42Zm6.58,12.29c3.43,0,4-3.17,4-5.57A7.2,7.2,0,0,0,67,123.75a3.39,3.39,0,0,0-2.88-1.25c-3.17,0-4,2.74-4,5.71C60.12,131,60.94,133.71,64.13,133.71Z"/><path class="cls-2" d="M80,122.93H74.69V119.5H90.22v3.43H84.81v13.9H80Z"/><path class="cls-2" d="M95.93,119.5h5.85l6.84,17.33H103.2l-1.2-3.48H95.06l-1.17,3.48h-4.8Zm5,10.66-2.24-7.27h-.07l-2.4,7.27Z"/><polygon points="54.09 91.83 54.09 37.83 36.09 37.83 36.09 91.83 36.09 109.83 54.09 109.83 108.09 109.83 108.09 91.83 54.09 91.83"/><path class="cls-2" d="M117.09,28.83v117h-90v-117h90m8-8h-106v133h106v-133Z"/><polygon class="cls-2" points="85.59 37.83 63.09 60.33 108.09 60.33 85.59 37.83"/><polygon class="cls-2" points="85.59 60.33 63.09 82.83 108.09 82.83 85.59 60.33"/><path class="cls-2" d="M26.13,183.77H32l6.84,17.33H33.4l-1.2-3.48H25.26l-1.17,3.48h-4.8Zm5,10.65-2.24-7.27h-.07l-2.4,7.27Z"/><path class="cls-2" d="M40.6,183.77h7.56L51,195.5l2.74-11.73,7.53,0,0,17.36H56.8L57,186.55,52.91,201.1H48.59l-4-14.67.12,14.67H40.6Z"/><path class="cls-2" d="M64.55,183.77h6.94c2.18,0,4.41,0,6,1.41a3.93,3.93,0,0,1,1.32,3c0,3.07-2.83,3.72-3.7,3.94v0c1.08.2,4.18.75,4.18,4.3a4.25,4.25,0,0,1-2.4,3.94,10.23,10.23,0,0,1-4.68.72H64.55Zm4.66,7h2.25a3.74,3.74,0,0,0,1.68-.21,1.89,1.89,0,0,0,.92-1.68,2,2,0,0,0-.68-1.54,2.27,2.27,0,0,0-1.56-.41H69.21Zm0,7.18H71.9c.55,0,2.47,0,2.47-2s-2-2.08-2.62-2.08H69.23Z"/><path class="cls-2" d="M81.85,183.77h5V201.1h-5Z"/><path class="cls-2" d="M90.06,183.82h13v3.31H94.81v3.6h7.78V194H94.81v3.7h8.45v3.36H90.06Z"/><path class="cls-2" d="M106,183.77h6.63l5.85,12.91,0-12.91h4.2V201.1h-6.48l-6-13.47,0,13.47H106Z"/><path class="cls-2" d="M129.93,187.2h-5.28v-3.43h15.52v3.43h-5.4v13.9h-4.84Z"/><path class="cls-2" d="M142.07,183.82h13v3.31h-8.26v3.6h7.78V194h-7.78v3.7h8.45v3.36h-13.2Z"/></g></g></svg>