<svg xmlns="http://www.w3.org/2000/svg" viewBox="0 0 106 133"><title>Asset 42</title><g id="Layer_2" data-name="Layer 2"><g id="Layer_13" data-name="Layer 13"><path d="M16.42,98.67h5.3l3.94,12.55,4.15-12.55h4.78L28.28,116H22.54Z"/><path d="M38.46,100.59c2.18-2.21,5.5-2.4,6.77-2.4,6.91,0,8.78,5,8.78,9.19,0,6.91-4.9,9-9,9-4.61,0-8.91-2.54-8.91-9C36.08,106.26,36.27,102.8,38.46,100.59ZM45,112.88c3.43,0,4-3.17,4-5.57a7.21,7.21,0,0,0-1.1-4.39,3.4,3.4,0,0,0-2.88-1.25c-3.17,0-4,2.74-4,5.71C41,110.14,41.84,112.88,45,112.88Z"/><path d="M60.87,102.1H55.59V98.67H71.12v3.43h-5.4V116H60.87Z"/><path d="M76.83,98.67h5.86L89.53,116H84.11l-1.2-3.48H76L74.79,116H70Zm5,10.66-2.23-7.27H79.5l-2.4,7.27Z"/><polygon points="35 71 35 17 17 17 17 71 17 89 35 89 89 89 89 71 35 71"/><path d="M98,8V125H8V8H98m8-8H0V133H106V0Z"/><path d="M84,22V57H49V22H84m5-5H44V62H89V17Z"/><rect x="64" y="10.15" width="5" height="58.69" transform="translate(-8.45 58.59) rotate(-45)"/><rect x="37.16" y="37" width="58.69" height="5" transform="translate(-8.45 58.59) rotate(-45)"/></g></g></svg>