<svg xmlns="http://www.w3.org/2000/svg" viewBox="0 0 279 279"><defs><style>.cls-1{fill:none;}.cls-2{fill:#ffbc00;}</style></defs><title>Asset 40</title><g id="Layer_2" data-name="Layer 2"><g id="Layer_1-2" data-name="Layer 1"><rect class="cls-1" width="279" height="279"/></g><g id="Layer_2-2" data-name="Layer 2"><path class="cls-2" d="M20.65,183.77h8c3.12,0,4.3.19,5.33,1.25a4.4,4.4,0,0,1,1.2,3.36,3.34,3.34,0,0,1-1.58,3.21,6.32,6.32,0,0,1-2.64.89v.1c3.36.09,3.55,1.58,3.93,4.25a28.12,28.12,0,0,0,.82,4.27H30.52a27.59,27.59,0,0,1-.58-3.91c-.21-2.09-.28-2.86-2.44-2.86h-2v6.77H20.65Zm4.83,7.44h1.8a6.35,6.35,0,0,0,2-.15,2,2,0,0,0,1.27-2c0-2.14-1.87-2.14-3.26-2.14h-1.8Z"/><path class="cls-2" d="M38.08,183.82h13v3.31H42.83v3.6h7.78V194H42.83v3.7h8.45v3.36H38.08Z"/><path class="cls-2" d="M65.06,189.22a2.57,2.57,0,0,0-2.81-2.4c-2.91,0-3.8,2.66-3.8,5.83,0,1.06,0,5.42,3.75,5.42a2.6,2.6,0,0,0,2.9-2.52h5c0,5.43-5.55,5.88-7.8,5.88-1.69,0-4.66-.28-6.58-2.3a9.56,9.56,0,0,1-2.23-6.58,9.73,9.73,0,0,1,2.18-6.6c1.78-2,4.06-2.54,6.58-2.54,2.81,0,4.94.67,6.31,2.11a5.29,5.29,0,0,1,1.44,3.7Z"/><path class="cls-2" d="M72.66,183.77h8c3.12,0,4.3.19,5.33,1.25a4.4,4.4,0,0,1,1.2,3.36,3.33,3.33,0,0,1-1.59,3.21,6.27,6.27,0,0,1-2.64.89v.1c3.36.09,3.56,1.58,3.94,4.25a29.35,29.35,0,0,0,.81,4.27h-5.2a27.59,27.59,0,0,1-.58-3.91c-.22-2.09-.29-2.86-2.45-2.86h-2v6.77H72.66Zm4.83,7.44h1.8a6.38,6.38,0,0,0,2-.15,2,2,0,0,0,1.27-2c0-2.14-1.87-2.14-3.26-2.14h-1.8Z"/><path class="cls-2" d="M90.09,183.82h13v3.31H94.84v3.6h7.77V194H94.84v3.7h8.45v3.36H90.09Z"/><path class="cls-2" d="M111.47,183.77h5.86l6.84,17.33h-5.43l-1.2-3.48h-6.93l-1.18,3.48h-4.8Zm5,10.65-2.23-7.27h-.08l-2.4,7.27Z"/><path class="cls-2" d="M127.19,187.2h-5.28v-3.43h15.53v3.43H132v13.9h-4.85Z"/><path class="cls-2" d="M139.12,183.77h4.94V201.1h-4.94Z"/><path class="cls-2" d="M145.89,183.77h5.3l3.94,12.55,4.15-12.55h4.78l-6.32,17.33H152Z"/><path class="cls-2" d="M166.72,185.69c2.18-2.21,5.49-2.4,6.77-2.4,6.91,0,8.78,5,8.78,9.19,0,6.91-4.9,9-9,9-4.61,0-8.91-2.55-8.91-9C164.34,191.35,164.53,187.9,166.72,185.69ZM173.29,198c3.44,0,4-3.17,4-5.57a7.16,7.16,0,0,0-1.1-4.39,3.41,3.41,0,0,0-2.88-1.25c-3.17,0-4,2.73-4,5.71C169.29,195.24,170.1,198,173.29,198Z"/><path class="cls-2" d="M35.52,119.5h5.3l3.94,12.56,4.15-12.56h4.78l-6.31,17.33H41.64Z"/><path class="cls-2" d="M57.55,121.42c2.19-2.21,5.5-2.4,6.77-2.4,6.91,0,8.78,5,8.78,9.19,0,6.92-4.89,9-9,9-4.61,0-8.9-2.54-8.9-9C55.18,127.09,55.37,123.63,57.55,121.42Zm6.58,12.29c3.43,0,4-3.17,4-5.57A7.2,7.2,0,0,0,67,123.75a3.39,3.39,0,0,0-2.88-1.25c-3.17,0-4,2.74-4,5.71C60.12,131,60.94,133.71,64.13,133.71Z"/><path class="cls-2" d="M80,122.93H74.69V119.5H90.22v3.43h-5.4v13.9H80Z"/><path class="cls-2" d="M95.93,119.5h5.85l6.85,17.33H103.2l-1.2-3.48H95.06l-1.17,3.48h-4.8Zm5,10.66-2.24-7.27h-.07l-2.4,7.27Z"/><polygon points="54.09 91.83 54.09 37.83 36.09 37.83 36.09 91.83 36.09 109.83 54.09 109.83 108.09 109.83 108.09 91.83 54.09 91.83"/><path class="cls-2" d="M117.09,28.83v117h-90v-117h90m8-8h-106v133h106v-133Z"/><path class="cls-2" d="M63.09,82.83a11.25,11.25,0,0,1,22.5,0"/><path class="cls-2" d="M85.59,82.83a11.25,11.25,0,0,1,22.5,0"/><path class="cls-2" d="M63.09,60.33a11.25,11.25,0,0,1,22.5,0"/><path class="cls-2" d="M85.59,60.33a11.25,11.25,0,0,1,22.5,0"/><circle class="cls-2" cx="74.34" cy="65.96" r="5.63"/><circle class="cls-2" cx="96.84" cy="65.96" r="5.63"/><circle class="cls-2" cx="74.34" cy="43.46" r="5.63"/><circle class="cls-2" cx="96.84" cy="43.46" r="5.63"/></g></g></svg>