<svg xmlns="http://www.w3.org/2000/svg" viewBox="0 0 279 279"><defs><style>.cls-1{fill:none;}.cls-2{fill:#29abe2;}</style></defs><title>Asset 34</title><g id="Layer_2" data-name="Layer 2"><g id="Layer_1-2" data-name="Layer 1"><rect class="cls-1" width="279" height="279"/></g><g id="Layer_8" data-name="Layer 8"><path class="cls-2" d="M24.61,187.2H19.33v-3.43H34.86v3.43h-5.4v13.9H24.61Z"/><path class="cls-2" d="M36.66,183.77h8c3.12,0,4.3.19,5.33,1.25a4.4,4.4,0,0,1,1.2,3.36,3.33,3.33,0,0,1-1.59,3.21,6.27,6.27,0,0,1-2.64.89v.1c3.36.09,3.56,1.58,3.94,4.25a29.1,29.1,0,0,0,.81,4.27h-5.2a27.59,27.59,0,0,1-.58-3.91c-.22-2.09-.29-2.86-2.45-2.86h-2v6.77H36.66Zm4.83,7.44h1.8a6.82,6.82,0,0,0,2-.14,2,2,0,0,0,1.27-2c0-2.14-1.87-2.14-3.26-2.14h-1.8Z"/><path class="cls-2" d="M59.46,183.77h5.86l6.84,17.33H66.73l-1.2-3.48H58.6l-1.18,3.48h-4.8Zm5,10.66-2.23-7.28h-.07l-2.4,7.28Z"/><path class="cls-2" d="M74,183.77h6.62l5.86,12.91-.05-12.91h4.2V201.1H84.18l-6-13.47,0,13.47H74Z"/><path class="cls-2" d="M98.25,195.58c0,.69.07,2.69,2.92,2.69.41,0,2.57,0,2.57-2,0-.82-.33-1.37-1.49-1.68L98,193.51c-1.2-.31-4.3-1.12-4.3-4.75,0-2.81,2.11-5.42,7.3-5.42,6.76,0,7,3.67,7.08,5.52h-4.88a2.09,2.09,0,0,0-2.28-2.4c-1.39,0-2.28.79-2.28,1.82,0,1.27,1.06,1.59,1.76,1.78l3.24.84c2.3.6,5,1.32,5,5,0,3.86-3.32,5.59-7.66,5.59-1.8,0-4.71-.29-6.29-2.06a5.71,5.71,0,0,1-1.32-3.84Z"/><path class="cls-2" d="M111.49,183.77h8a8.33,8.33,0,0,1,4.51.89,5.66,5.66,0,0,1-.16,9.43,10,10,0,0,1-4.37.74l-3.12,0v6.24h-4.83Zm4.83,7.78h2.13c1.18,0,3.08,0,3.08-2.33,0-2.11-1.71-2.23-3.1-2.23h-2.11Z"/><path class="cls-2" d="M131.82,183.77h5.86l6.84,17.33h-5.43l-1.2-3.48H131l-1.18,3.48H125Zm5,10.66-2.23-7.28h-.08l-2.39,7.28Z"/><path class="cls-2" d="M146.34,183.77h8c3.12,0,4.29.19,5.33,1.25a4.44,4.44,0,0,1,1.2,3.36,3.33,3.33,0,0,1-1.59,3.21,6.27,6.27,0,0,1-2.64.89v.1c3.36.09,3.55,1.58,3.94,4.25a29.1,29.1,0,0,0,.81,4.27h-5.2a27.59,27.59,0,0,1-.58-3.91c-.22-2.09-.29-2.86-2.45-2.86h-2v6.77h-4.82Zm4.82,7.44H153a6.82,6.82,0,0,0,2-.14,2,2,0,0,0,1.27-2c0-2.14-1.87-2.14-3.26-2.14h-1.81Z"/><path class="cls-2" d="M163.76,183.82h13v3.31h-8.25v3.6h7.77V194h-7.77v3.7H177v3.36H163.76Zm8.29-5.43,2.87,3.48h-3.11L170,180l-1.78,1.85h-3.12l2.86-3.48Z"/><path class="cls-2" d="M179.72,183.77h6.63l5.86,12.91-.05-12.91h4.2V201.1h-6.48l-6-13.47,0,13.47h-4.23Z"/><path class="cls-2" d="M210.73,189.22a2.57,2.57,0,0,0-2.81-2.4c-2.9,0-3.79,2.66-3.79,5.83,0,1.06,0,5.42,3.75,5.42a2.6,2.6,0,0,0,2.9-2.52h5c0,5.43-5.54,5.88-7.8,5.88-1.68,0-4.65-.28-6.57-2.3a9.58,9.58,0,0,1-2.24-6.58,9.74,9.74,0,0,1,2.19-6.6c1.77-2,4.05-2.54,6.57-2.54,2.81,0,5,.67,6.32,2.11a5.34,5.34,0,0,1,1.44,3.7Z"/><path class="cls-2" d="M218.22,183.77h4.94V201.1h-4.94Z"/><path class="cls-2" d="M231.8,183.77h5.86l6.84,17.33h-5.42l-1.2-3.48h-6.94l-1.18,3.48H225Zm5,10.66-2.23-7.28h-.07l-2.4,7.28Z"/><path class="cls-2" d="M35.52,119.5h5.3l3.94,12.56,4.15-12.56h4.78l-6.31,17.33H41.64Z"/><path class="cls-2" d="M57.55,121.42c2.18-2.21,5.5-2.4,6.77-2.4,6.91,0,8.78,5,8.78,9.19,0,6.92-4.89,9-9,9-4.61,0-8.91-2.54-8.91-9C55.17,127.09,55.37,123.63,57.55,121.42Zm6.58,12.29c3.43,0,4-3.17,4-5.57A7.2,7.2,0,0,0,67,123.75a3.39,3.39,0,0,0-2.88-1.25c-3.17,0-4,2.74-4,5.71C60.12,131,60.94,133.71,64.13,133.71Z"/><path class="cls-2" d="M80,122.93H74.69V119.5H90.22v3.43H84.81v13.9H80Z"/><path class="cls-2" d="M95.93,119.5h5.85l6.84,17.33H103.2l-1.2-3.48H95.06l-1.17,3.48h-4.8Zm5,10.66-2.24-7.27h-.07l-2.4,7.27Z"/><polygon points="54.09 91.83 54.09 37.83 36.09 37.83 36.09 91.83 36.09 109.83 54.09 109.83 108.09 109.83 108.09 91.83 54.09 91.83"/><path class="cls-2" d="M117.09,28.83v117h-90v-117h90m8-8h-106v133h106v-133Z"/><path class="cls-2" d="M90.11,73.92a18.11,18.11,0,1,1,18.11-18.11A18.12,18.12,0,0,1,90.11,73.92Zm0-29.63a11.53,11.53,0,1,0,11.53,11.52A11.54,11.54,0,0,0,90.11,44.29Z"/><rect class="cls-2" x="62.48" y="70.11" width="20.1" height="6.58" transform="translate(-30.66 72.78) rotate(-45)"/></g></g></svg>