<svg xmlns="http://www.w3.org/2000/svg" viewBox="0 0 298.56 97.57"><defs><style>.cls-1,.cls-2{fill:#f6f6f6;}.cls-2,.cls-3{fill-rule:evenodd;}.cls-3{fill:#b8da09;}</style></defs><title>Asset 1rig</title><g id="Layer_2" data-name="Layer 2"><g id="Capa_1" data-name="Capa 1"><path class="cls-1" d="M0,73.22H17.87V17.52c0-1.84.58-3,3.35-3s3.34,1.16,3.34,3v55.7H42.44V17.52c0-1.84.57-3,3.34-3s3.35,1.16,3.35,3v55.7H67V11.3A11.2,11.2,0,0,0,55.64.11H42.55a11.31,11.31,0,0,0-9,4.38,11.31,11.31,0,0,0-9-4.38H0Z"/><path class="cls-1" d="M71.61,62A11.2,11.2,0,0,0,83,73.22h19.72A11.19,11.19,0,0,0,114.05,62V.11H96.18v55.7c0,1.85-.58,3-3.35,3s-3.34-1.15-3.34-3V.11H71.61Z"/><path class="cls-1" d="M118.66,73.22h17.88V17.52c0-1.84.57-3,3.34-3s3.35,1.16,3.35,3v55.7H161.1V17.52c0-1.84.58-3,3.35-3s3.34,1.16,3.34,3v55.7h17.87V11.3A11.19,11.19,0,0,0,174.31.11H161.22a11.33,11.33,0,0,0-9.06,4.38,11.3,11.3,0,0,0-9-4.38H118.66Z"/><path class="cls-2" d="M251.51,58.81V14.52h3.35c2.76,0,3.34,1.16,3.34,3V55.81c0,1.85-.58,3-3.34,3ZM233.64,73.22h31.08A11.19,11.19,0,0,0,276.07,62V11.3A11.19,11.19,0,0,0,264.72.11H233.64Z"/><rect class="cls-1" x="280.68" y="0.11" width="17.88" height="73.11"/><path class="cls-1" d="M0,97.57H.71V81H7.35a2,2,0,0,1,2,1.94V97.57H10V82.94A2,2,0,0,1,12,81h4.66a2,2,0,0,1,2,1.94V97.57h.71V82.94a2.65,2.65,0,0,0-2.68-2.65H12.14a2.63,2.63,0,0,0-2.46,1.6,2.67,2.67,0,0,0-2.47-1.6H0Z"/><path class="cls-1" d="M0,97.57H.71V81H7.35a2,2,0,0,1,2,1.94V97.57H10V82.94A2,2,0,0,1,12,81h4.66a2,2,0,0,1,2,1.94V97.57h.71V82.94a2.65,2.65,0,0,0-2.68-2.65H12.14a2.63,2.63,0,0,0-2.46,1.6,2.67,2.67,0,0,0-2.47-1.6H0Z"/><path class="cls-1" d="M23.15,94.92a2.65,2.65,0,0,0,2.68,2.65h3.51a2.71,2.71,0,0,0,2.26-1.2l.15,1.2h.56V84.3H31.6V94.92a2,2,0,0,1-2,1.94H25.83a2,2,0,0,1-2-1.94V84.3h-.71Z"/><path class="cls-1" d="M23.15,94.92a2.65,2.65,0,0,0,2.68,2.65h3.51a2.71,2.71,0,0,0,2.26-1.2l.15,1.2h.56V84.3H31.6V94.92a2,2,0,0,1-2,1.94H25.83a2,2,0,0,1-2-1.94V84.3h-.71Z"/><path class="cls-1" d="M35.84,94.92a2.65,2.65,0,0,0,2.68,2.65h3.79A2.65,2.65,0,0,0,45,94.92v-.84a2.33,2.33,0,0,0-1.88-2.55L38,89.67c-1.1-.4-1.42-.73-1.42-1.88v-.85a2,2,0,0,1,2-1.93h3.79a2,2,0,0,1,2,1.93v1l.71.51V86.94a2.65,2.65,0,0,0-2.68-2.64H38.52a2.65,2.65,0,0,0-2.68,2.64v.85a2.34,2.34,0,0,0,1.88,2.55l5.15,1.85c1.1.4,1.41.74,1.41,1.89v.84a2,2,0,0,1-2,1.94H38.52a2,2,0,0,1-2-1.94v-1l-.7-.5Z"/><path class="cls-1" d="M35.84,94.92a2.65,2.65,0,0,0,2.68,2.65h3.79A2.65,2.65,0,0,0,45,94.92v-.84a2.33,2.33,0,0,0-1.88-2.55L38,89.67c-1.1-.4-1.42-.73-1.42-1.88v-.85a2,2,0,0,1,2-1.93h3.79a2,2,0,0,1,2,1.93v1l.71.51V86.94a2.65,2.65,0,0,0-2.68-2.64H38.52a2.65,2.65,0,0,0-2.68,2.64v.85a2.34,2.34,0,0,0,1.88,2.55l5.15,1.85c1.1.4,1.41.74,1.41,1.89v.84a2,2,0,0,1-2,1.94H38.52a2,2,0,0,1-2-1.94v-1l-.7-.5Z"/><path class="cls-2" d="M49.23,92.31V86.94a2,2,0,0,1,2-1.93H55a2,2,0,0,1,2,1.93v2.77Zm-.71,2.61a2.65,2.65,0,0,0,2.68,2.65H55a2.65,2.65,0,0,0,2.69-2.65V93.45L57,94v1a2,2,0,0,1-2,1.94H51.2a2,2,0,0,1-2-1.94V93.05l8.45-2.85V86.94A2.65,2.65,0,0,0,55,84.3H51.2a2.65,2.65,0,0,0-2.68,2.64Z"/><path class="cls-1" d="M49.23,92.31V86.94a2,2,0,0,1,2-1.93H55a2,2,0,0,1,2,1.93v2.77Zm-.71,2.61a2.65,2.65,0,0,0,2.68,2.65H55a2.65,2.65,0,0,0,2.69-2.65V93.45L57,94v1a2,2,0,0,1-2,1.94H51.2a2,2,0,0,1-2-1.94V93.05l8.45-2.85V86.94A2.65,2.65,0,0,0,55,84.3H51.2a2.65,2.65,0,0,0-2.68,2.64Z"/><path class="cls-2" d="M61.91,94.92v-8a2,2,0,0,1,2-1.93h3.79a2,2,0,0,1,2,1.93v8a2,2,0,0,1-2,1.94H63.89a2,2,0,0,1-2-1.94m-.7,0a2.64,2.64,0,0,0,2.68,2.65h3.79a2.65,2.65,0,0,0,2.68-2.65v-8a2.65,2.65,0,0,0-2.68-2.64H63.89a2.64,2.64,0,0,0-2.68,2.64Z"/><path class="cls-1" d="M61.91,94.92v-8a2,2,0,0,1,2-1.93h3.79a2,2,0,0,1,2,1.93v8a2,2,0,0,1-2,1.94H63.89A2,2,0,0,1,61.91,94.92Zm-.7,0a2.64,2.64,0,0,0,2.68,2.65h3.79a2.65,2.65,0,0,0,2.68-2.65v-8a2.65,2.65,0,0,0-2.68-2.64H63.89a2.64,2.64,0,0,0-2.68,2.64Z"/><path class="cls-1" d="M81.18,97.57h.71V81h6.63a2,2,0,0,1,2,1.94V97.57h.71V82.94a2,2,0,0,1,2-1.94h4.66a2,2,0,0,1,2,1.94V97.57h.71V82.94a2.65,2.65,0,0,0-2.68-2.65H93.32a2.65,2.65,0,0,0-2.47,1.6,2.65,2.65,0,0,0-2.46-1.6H81.18Z"/><path class="cls-1" d="M81.18,97.57h.71V81h6.63a2,2,0,0,1,2,1.94V97.57h.71V82.94a2,2,0,0,1,2-1.94h4.66a2,2,0,0,1,2,1.94V97.57h.71V82.94a2.65,2.65,0,0,0-2.68-2.65H93.32a2.65,2.65,0,0,0-2.47,1.6,2.65,2.65,0,0,0-2.46-1.6H81.18Z"/><path class="cls-2" d="M105,92.31V86.94A2,2,0,0,1,107,85h3.79a2,2,0,0,1,2,1.93v2.77Zm-.7,2.61A2.65,2.65,0,0,0,107,97.57h3.79a2.65,2.65,0,0,0,2.68-2.65V93.45l-.71.5v1a2,2,0,0,1-2,1.94H107a2,2,0,0,1-2-1.94V93.05l8.45-2.85V86.94a2.65,2.65,0,0,0-2.68-2.64H107a2.65,2.65,0,0,0-2.68,2.64Z"/><path class="cls-1" d="M105,92.31V86.94A2,2,0,0,1,107,85h3.79a2,2,0,0,1,2,1.93v2.77Zm-.7,2.61A2.65,2.65,0,0,0,107,97.57h3.79a2.65,2.65,0,0,0,2.68-2.65V93.45l-.71.5v1a2,2,0,0,1-2,1.94H107a2,2,0,0,1-2-1.94V93.05l8.45-2.85V86.94a2.65,2.65,0,0,0-2.68-2.64H107a2.65,2.65,0,0,0-2.68,2.64Z"/><path class="cls-1" d="M117,97.57h.71V95a.54.54,0,0,1,.26-.49l3.61-3.11,3.61,3.11c.2.18.26.27.26.49v2.57h.7V95a1.17,1.17,0,0,0-.51-1l-3.53-3,3.53-3a1.16,1.16,0,0,0,.51-1V84.3h-.7v2.56c0,.22-.06.31-.26.49l-3.61,3.13L118,87.35a.54.54,0,0,1-.26-.49V84.3H117v2.58a1.17,1.17,0,0,0,.52,1l3.51,3-3.51,3a1.18,1.18,0,0,0-.52,1Z"/><path class="cls-1" d="M117,97.57h.71V95a.54.54,0,0,1,.26-.49l3.61-3.11,3.61,3.11c.2.18.26.27.26.49v2.57h.7V95a1.17,1.17,0,0,0-.51-1l-3.53-3,3.53-3a1.16,1.16,0,0,0,.51-1V84.3h-.7v2.56c0,.22-.06.31-.26.49l-3.61,3.13L118,87.35a.54.54,0,0,1-.26-.49V84.3H117v2.58a1.17,1.17,0,0,0,.52,1l3.51,3-3.51,3a1.18,1.18,0,0,0-.52,1Z"/><path class="cls-2" d="M130.38,97.57h.7V84.3h-.7ZM130,81.84h1.47V80.3H130Z"/><path class="cls-1" d="M130.38,97.57h.7V84.3h-.7ZM130,81.84h1.47V80.3H130Z"/><path class="cls-1" d="M135.3,94.92A2.65,2.65,0,0,0,138,97.57h3.78a2.65,2.65,0,0,0,2.69-2.65V93.45l-.71.5v1a2,2,0,0,1-2,1.94H138a2,2,0,0,1-2-1.94v-8A2,2,0,0,1,138,85h3.78a2,2,0,0,1,2,1.93v1l.71.51V86.94a2.65,2.65,0,0,0-2.69-2.64H138a2.65,2.65,0,0,0-2.68,2.64Z"/><path class="cls-1" d="M135.3,94.92A2.65,2.65,0,0,0,138,97.57h3.78a2.65,2.65,0,0,0,2.69-2.65V93.45l-.71.5v1a2,2,0,0,1-2,1.94H138a2,2,0,0,1-2-1.94v-8A2,2,0,0,1,138,85h3.78a2,2,0,0,1,2,1.93v1l.71.51V86.94a2.65,2.65,0,0,0-2.69-2.64H138a2.65,2.65,0,0,0-2.68,2.64Z"/><path class="cls-2" d="M148.69,94.92V93.64c0-1.54.3-1.83,1.67-2.29l5.14-1.74a2.16,2.16,0,0,0,.93-.51v5.82a2,2,0,0,1-2,1.94h-3.79a2,2,0,0,1-2-1.94m-.71,0a2.65,2.65,0,0,0,2.68,2.65h3.5a2.65,2.65,0,0,0,2.37-1.41l.64,1.41h.56l-.6-2.06V86.94a2.64,2.64,0,0,0-2.68-2.64h-3.79A2.65,2.65,0,0,0,148,86.94v1.48l.71-.51v-1a2,2,0,0,1,2-1.93h3.79a2,2,0,0,1,2,1.93v1.11c0,.43-.2.56-.74.75l-5.56,1.88c-1.59.55-2.15,1-2.15,2.88Z"/><path class="cls-1" d="M148.69,94.92V93.64c0-1.54.3-1.83,1.67-2.29l5.14-1.74a2.16,2.16,0,0,0,.93-.51v5.82a2,2,0,0,1-2,1.94h-3.79A2,2,0,0,1,148.69,94.92Zm-.71,0a2.65,2.65,0,0,0,2.68,2.65h3.5a2.65,2.65,0,0,0,2.37-1.41l.64,1.41h.56l-.6-2.06V86.94a2.64,2.64,0,0,0-2.68-2.64h-3.79A2.65,2.65,0,0,0,148,86.94v1.48l.71-.51v-1a2,2,0,0,1,2-1.93h3.79a2,2,0,0,1,2,1.93v1.11c0,.43-.2.56-.74.75l-5.56,1.88c-1.59.55-2.15,1-2.15,2.88Z"/><path class="cls-1" d="M161.26,97.57H162V86.94A2,2,0,0,1,164,85h3.78a2,2,0,0,1,2,1.93V97.57h.71V86.94a2.65,2.65,0,0,0-2.69-2.64h-3.5A2.68,2.68,0,0,0,162,85.5l-.15-1.2h-.56Z"/><path class="cls-1" d="M161.26,97.57H162V86.94A2,2,0,0,1,164,85h3.78a2,2,0,0,1,2,1.93V97.57h.71V86.94a2.65,2.65,0,0,0-2.69-2.64h-3.5A2.68,2.68,0,0,0,162,85.5l-.15-1.2h-.56Z"/><path class="cls-2" d="M174.65,94.92v-8a2,2,0,0,1,2-1.93h3.79a2,2,0,0,1,2,1.93v8a2,2,0,0,1-2,1.94h-3.79a2,2,0,0,1-2-1.94m-.7,0a2.65,2.65,0,0,0,2.68,2.65h3.79a2.65,2.65,0,0,0,2.68-2.65v-8a2.65,2.65,0,0,0-2.68-2.64h-3.79A2.65,2.65,0,0,0,174,86.94Z"/><path class="cls-1" d="M174.65,94.92v-8a2,2,0,0,1,2-1.93h3.79a2,2,0,0,1,2,1.93v8a2,2,0,0,1-2,1.94h-3.79A2,2,0,0,1,174.65,94.92Zm-.7,0a2.65,2.65,0,0,0,2.68,2.65h3.79a2.65,2.65,0,0,0,2.68-2.65v-8a2.65,2.65,0,0,0-2.68-2.64h-3.79A2.65,2.65,0,0,0,174,86.94Z"/><path class="cls-2" d="M194.36,94.92v-8a2,2,0,0,1,2-1.93h3.79a2,2,0,0,1,2,1.93v8a2,2,0,0,1-2,1.94h-3.79a2,2,0,0,1-2-1.94m-.71,0a2.65,2.65,0,0,0,2.68,2.65h3.5a2.71,2.71,0,0,0,2.27-1.2l.15,1.2h.56V80.29h-.71V85.5a2.69,2.69,0,0,0-2.27-1.2h-3.5a2.65,2.65,0,0,0-2.68,2.64Z"/><path class="cls-1" d="M194.36,94.92v-8a2,2,0,0,1,2-1.93h3.79a2,2,0,0,1,2,1.93v8a2,2,0,0,1-2,1.94h-3.79A2,2,0,0,1,194.36,94.92Zm-.71,0a2.65,2.65,0,0,0,2.68,2.65h3.5a2.71,2.71,0,0,0,2.27-1.2l.15,1.2h.56V80.29h-.71V85.5a2.69,2.69,0,0,0-2.27-1.2h-3.5a2.65,2.65,0,0,0-2.68,2.64Z"/><path class="cls-2" d="M207,92.31V86.94A2,2,0,0,1,209,85h3.79a2,2,0,0,1,2,1.93v2.77Zm-.71,2.61A2.65,2.65,0,0,0,209,97.57h3.79a2.65,2.65,0,0,0,2.68-2.65V93.45l-.71.5v1a2,2,0,0,1-2,1.94H209a2,2,0,0,1-2-1.94V93.05l8.45-2.85V86.94a2.65,2.65,0,0,0-2.68-2.64H209a2.65,2.65,0,0,0-2.69,2.64Z"/><path class="cls-1" d="M207,92.31V86.94A2,2,0,0,1,209,85h3.79a2,2,0,0,1,2,1.93v2.77Zm-.71,2.61A2.65,2.65,0,0,0,209,97.57h3.79a2.65,2.65,0,0,0,2.68-2.65V93.45l-.71.5v1a2,2,0,0,1-2,1.94H209a2,2,0,0,1-2-1.94V93.05l8.45-2.85V86.94a2.65,2.65,0,0,0-2.68-2.64H209a2.65,2.65,0,0,0-2.69,2.64Z"/><rect class="cls-1" x="219.7" y="80.29" width="0.71" height="17.27"/><rect class="cls-1" x="219.7" y="80.29" width="0.71" height="17.27"/><path class="cls-2" d="M232.62,96.86V81h6.63a2,2,0,0,1,2,1.94v12a2,2,0,0,1-2,1.94Zm-.71.71h7.34a2.64,2.64,0,0,0,2.68-2.65v-12a2.64,2.64,0,0,0-2.68-2.65h-7.34Z"/><path class="cls-1" d="M232.62,96.86V81h6.63a2,2,0,0,1,2,1.94v12a2,2,0,0,1-2,1.94Zm-.71.71h7.34a2.64,2.64,0,0,0,2.68-2.65v-12a2.64,2.64,0,0,0-2.68-2.65h-7.34Z"/><path class="cls-2" d="M246.42,97.57h.71V84.3h-.71ZM246,81.84h1.47V80.3H246Z"/><path class="cls-1" d="M246.42,97.57h.71V84.3h-.71ZM246,81.84h1.47V80.3H246Z"/><path class="cls-1" d="M251.34,94.92A2.65,2.65,0,0,0,254,97.57h3.79a2.64,2.64,0,0,0,2.68-2.65v-.84a2.32,2.32,0,0,0-1.88-2.55l-5.15-1.86c-1.1-.4-1.41-.73-1.41-1.88v-.85A2,2,0,0,1,254,85h3.79a2,2,0,0,1,2,1.93v1l.7.51V86.94a2.64,2.64,0,0,0-2.68-2.64H254a2.65,2.65,0,0,0-2.68,2.64v.85a2.34,2.34,0,0,0,1.88,2.55l5.15,1.85c1.1.4,1.42.74,1.42,1.89v.84a2,2,0,0,1-2,1.94H254a2,2,0,0,1-2-1.94v-1l-.71-.5Z"/><path class="cls-1" d="M251.34,94.92A2.65,2.65,0,0,0,254,97.57h3.79a2.64,2.64,0,0,0,2.68-2.65v-.84a2.32,2.32,0,0,0-1.88-2.55l-5.15-1.86c-1.1-.4-1.41-.73-1.41-1.88v-.85A2,2,0,0,1,254,85h3.79a2,2,0,0,1,2,1.93v1l.7.51V86.94a2.64,2.64,0,0,0-2.68-2.64H254a2.65,2.65,0,0,0-2.68,2.64v.85a2.34,2.34,0,0,0,1.88,2.55l5.15,1.85c1.1.4,1.42.74,1.42,1.89v.84a2,2,0,0,1-2,1.94H254a2,2,0,0,1-2-1.94v-1l-.71-.5Z"/><path class="cls-2" d="M264.73,92.31V86.94a2,2,0,0,1,2-1.93h3.78a2,2,0,0,1,2,1.93v2.77ZM264,94.92a2.65,2.65,0,0,0,2.69,2.65h3.78a2.65,2.65,0,0,0,2.69-2.65V93.45l-.71.5v1a2,2,0,0,1-2,1.94h-3.78a2,2,0,0,1-2-1.94V93.05l8.45-2.85V86.94a2.65,2.65,0,0,0-2.69-2.64h-3.78A2.65,2.65,0,0,0,264,86.94Z"/><path class="cls-1" d="M264.73,92.31V86.94a2,2,0,0,1,2-1.93h3.78a2,2,0,0,1,2,1.93v2.77ZM264,94.92a2.65,2.65,0,0,0,2.69,2.65h3.78a2.65,2.65,0,0,0,2.69-2.65V93.45l-.71.5v1a2,2,0,0,1-2,1.94h-3.78a2,2,0,0,1-2-1.94V93.05l8.45-2.85V86.94a2.65,2.65,0,0,0-2.69-2.64h-3.78A2.65,2.65,0,0,0,264,86.94Z"/><path class="cls-2" d="M277.47,83.07h.71c0-1.26.76-1.61,1.36-1.61a4.6,4.6,0,0,1,1.75.61,4,4,0,0,0,1.71.55,2.11,2.11,0,0,0,2.1-2.33h-.71c0,1.26-.76,1.62-1.36,1.62a4.57,4.57,0,0,1-1.74-.62,3.94,3.94,0,0,0-1.72-.54,2.1,2.1,0,0,0-2.1,2.32m-.76,14.5h.71V86.94a2,2,0,0,1,2-1.93h3.79a2,2,0,0,1,2,1.93V97.57h.71V86.94a2.65,2.65,0,0,0-2.68-2.64h-3.51a2.65,2.65,0,0,0-2.25,1.2l-.16-1.2h-.55Z"/><path class="cls-1" d="M277.47,83.07h.71c0-1.26.76-1.61,1.36-1.61a4.6,4.6,0,0,1,1.75.61,4,4,0,0,0,1.71.55,2.11,2.11,0,0,0,2.1-2.33h-.71c0,1.26-.76,1.62-1.36,1.62a4.57,4.57,0,0,1-1.74-.62,3.94,3.94,0,0,0-1.72-.54A2.1,2.1,0,0,0,277.47,83.07Zm-.76,14.5h.71V86.94a2,2,0,0,1,2-1.93h3.79a2,2,0,0,1,2,1.93V97.57h.71V86.94a2.65,2.65,0,0,0-2.68-2.64h-3.51a2.65,2.65,0,0,0-2.25,1.2l-.16-1.2h-.55Z"/><path class="cls-2" d="M290.1,94.92v-8a2,2,0,0,1,2-1.93h3.79a2,2,0,0,1,2,1.93v8a2,2,0,0,1-2,1.94h-3.79a2,2,0,0,1-2-1.94m-.71,0a2.65,2.65,0,0,0,2.68,2.65h3.79a2.65,2.65,0,0,0,2.69-2.65v-8a2.65,2.65,0,0,0-2.69-2.64h-3.79a2.65,2.65,0,0,0-2.68,2.64Z"/><path class="cls-1" d="M290.1,94.92v-8a2,2,0,0,1,2-1.93h3.79a2,2,0,0,1,2,1.93v8a2,2,0,0,1-2,1.94h-3.79A2,2,0,0,1,290.1,94.92Zm-.71,0a2.65,2.65,0,0,0,2.68,2.65h3.79a2.65,2.65,0,0,0,2.69-2.65v-8a2.65,2.65,0,0,0-2.69-2.64h-3.79a2.65,2.65,0,0,0-2.68,2.64Z"/><path class="cls-3" d="M190.28,62V11.23A11.22,11.22,0,0,1,201.64,0h16A11.22,11.22,0,0,1,229,11.23V45.8L206.3,53.46v4.32c0,1.84.58,3,3.35,3s3.34-1.15,3.34-3v-2l16-5.52V62a11.22,11.22,0,0,1-11.36,11.23h-16A11.22,11.22,0,0,1,190.28,62m16-21.48L213,38.26V15.44c0-1.84-.57-3-3.34-3s-3.35,1.15-3.35,3Z"/></g></g></svg>