<svg xmlns="http://www.w3.org/2000/svg" viewBox="0 0 1092 1092"><defs><style>.cls-1{fill:#fff;}.cls-2{fill:#231f20;}.cls-3{fill:#00b7c0;}.cls-4{fill:#00a7c7;}.cls-5{fill:#0080c4;}.cls-6{fill:#0063af;}.cls-7{fill:#1c469c;}.cls-8{fill:#c22d26;}.cls-9{fill:#d84d26;}.cls-10{fill:#f37820;}.cls-11{fill:#f69a1d;}.cls-12{fill:#f7c829;}.cls-13,.cls-14{fill:none;stroke:#231c1d;stroke-miterlimit:10;}.cls-13{stroke-width:20px;}.cls-14{stroke-linecap:square;stroke-width:14px;}</style></defs><title>Asset 17</title><g id="Layer_2" data-name="Layer 2"><g id="Layer_2-2" data-name="Layer 2"><rect class="cls-1" width="1092" height="1092"/></g><g id="Layer_19" data-name="Layer 19"><path class="cls-2" d="M774.2,896H318.8V196H774.2ZM344.73,870.07H748.27V221.93H344.73Z"/><path class="cls-3" d="M725.52,385.63H711.73A124.57,124.57,0,0,1,587.3,261.21V247.42h28.18v13.79a96.35,96.35,0,0,0,96.24,96.24h13.79Z"/><path class="cls-4" d="M725.52,413.22H711.73c-83.82,0-152-68.19-152-152V247.42H587.9v13.79A124,124,0,0,0,711.73,385h13.79Z"/><path class="cls-5" d="M725.52,440.8H711.73c-99,0-179.59-80.56-179.59-179.59V247.42h28.18v13.79c0,83.49,67.92,151.41,151.41,151.41h13.79Z"/><path class="cls-6" d="M725.52,468.39H711.73c-114.24,0-207.17-92.94-207.17-207.17V247.42h28.18v13.79c0,98.7,80.3,179,179,179h13.79Z"/><path class="cls-7" d="M725.52,496H711.73C582.28,496,477,390.66,477,261.21V247.42h28.18v13.79c0,113.91,92.67,206.58,206.58,206.58h13.79Z"/><path class="cls-8" d="M380.86,385.64H367.07V357.46h13.79a96.35,96.35,0,0,0,96.24-96.24V247.42h28.18v13.79A124.57,124.57,0,0,1,380.86,385.64Z"/><path class="cls-9" d="M380.86,413.22H367.07V385h13.79A124,124,0,0,0,504.69,261.21V247.42h28.18v13.79C532.87,345,464.68,413.22,380.86,413.22Z"/><path class="cls-10" d="M380.86,440.8H367.07V412.62h13.79c83.49,0,151.41-67.92,151.41-151.41V247.42h28.18v13.79C560.45,360.24,479.89,440.8,380.86,440.8Z"/><path class="cls-11" d="M380.86,468.39H367.07V440.21h13.79c98.7,0,179-80.3,179-179V247.42H588v13.79C588,375.45,495.1,468.39,380.86,468.39Z"/><path class="cls-12" d="M380.86,496H367.07V467.79h13.79c113.91,0,206.58-92.67,206.58-206.58V247.42h28.18v13.79C615.62,390.66,510.3,496,380.86,496Z"/><path class="cls-2" d="M367.5,507.78h24.2c14,0,23.71,7.64,23.71,22.63,0,7.54-3.43,13.23-9.6,17.34l13.52,30.57H398.56l-12.44-29.1h-.2v29.1H367.5Zm18.42,33.12c6.86,0,11.07-2.35,11.07-8.72s-4.21-8.72-11.07-8.72Z"/><path class="cls-2" d="M426.57,528.26c4.6-.29,9.31-.69,13.91-.69,13.42,0,20.77,2.45,20.77,16v34.78h-14.7V574.6h-.2c-.59,1.08-4.11,4.9-11,4.9-8.42,0-15.77-6.37-15.77-17.83,0-8.72,6.17-17.24,17.54-17.24a18.33,18.33,0,0,1,7.45,1.37c0-5.09-1.67-6.66-9.21-6.66a54.51,54.51,0,0,0-10.87,1.18Zm9.31,32.33a5.19,5.19,0,1,0,5.19-5.19A5.23,5.23,0,0,0,435.88,560.59Z"/><path class="cls-2" d="M469.68,507.78h17v15.28h-17Zm0,19.79h17v50.75h-17Z"/><path class="cls-2" d="M495.15,527.58h17v4.7c3.33-3.62,7.35-5.88,12.44-5.88,7.05,0,14.7,3.82,14.7,14.6v37.33h-17V550.5c0-3.23-.59-7.05-5.19-7.05-4.21,0-4.9,3.82-4.9,7.05v27.82h-17Z"/><path class="cls-2" d="M547.37,507.78h17v22.73h.2c1.28-2,6.76-4.12,12-4.12,9.8,0,23,7.05,23,26,0,20.18-13.32,27.14-26.75,27.14-25.47,0-25.47-18.61-25.47-27Zm26,54.67A9.51,9.51,0,1,0,564,553,9.39,9.39,0,0,0,573.33,562.45Z"/><path class="cls-2" d="M629.76,526.4A26.55,26.55,0,1,1,603.2,553,26.51,26.51,0,0,1,629.76,526.4Zm0,36.05a9.5,9.5,0,1,0-9.5-9.5A9.45,9.45,0,0,0,629.76,562.45Z"/><path class="cls-2" d="M658.07,527.58H675.9l4.41,23.12h.2l6.66-23.12h12.15l5.09,23.12h.2l4.21-23.12h17.83l-11.76,50.75H697.06L691.87,557h-.2l-4.9,21.36H669.33Z"/><path class="cls-2" d="M467.92,615.94c-2.06-1.76-6.37-2.55-8-2.55-3.82,0-6.86,1.47-6.86,5.68,0,8.52,16.26,8.72,16.26,27,0,20.38-13.23,23.91-27,23.91-4,0-6.86-.69-8.82-.69l-.49-19.5a32.11,32.11,0,0,0,8.72,1.57c3.33,0,5.68-1.86,5.68-5.39,0-8.23-15.09-10-15.09-27.73,0-2.84.78-22.34,22.24-22.34a71.72,71.72,0,0,1,13.42,1.37Z"/><path class="cls-2" d="M479.87,618.2c4.6-.29,9.31-.69,13.91-.69,13.42,0,20.77,2.45,20.77,16v34.78h-14.7v-3.72h-.2c-.59,1.08-4.12,4.9-11,4.9-8.43,0-15.78-6.37-15.78-17.83,0-8.72,6.17-17.24,17.54-17.24a18.31,18.31,0,0,1,7.45,1.37c0-5.09-1.66-6.66-9.21-6.66a54.59,54.59,0,0,0-10.88,1.18Zm9.31,32.33a5.19,5.19,0,1,0,5.19-5.19A5.23,5.23,0,0,0,489.18,650.53Z"/><path class="cls-2" d="M567.16,668.26h-17v-4.7c-3.33,3.63-7.35,5.88-12.44,5.88-7.05,0-14.7-3.82-14.7-14.6V617.51h17v27.82c0,3.23.59,7.05,5.19,7.05,4.21,0,4.9-3.82,4.9-7.05V617.51h17Z"/><path class="cls-2" d="M608.79,634.85c-1.37-1-5.68-1.47-7.93-1.47-6.07,0-10,2.94-10,9.21,0,5,2.74,9.8,10.58,9.8a28.51,28.51,0,0,0,7.35-1.18v17a38.33,38.33,0,0,1-9.6,1.18c-16.26,0-25.37-12.15-25.37-25.77,0-21.75,15.87-27.34,24.88-27.34a35.62,35.62,0,0,1,10.09,1.47Z"/><path class="cls-2" d="M659.25,663.17A40.12,40.12,0,0,1,638,669.44c-8.33,0-25.18-5.39-25.18-26.45,0-18.22,14.89-26.65,26.55-26.65,16.65,0,20.57,11.66,22.53,17.93l-25.57,18.13a12.87,12.87,0,0,0,5.88,1.37c5.78,0,12.64-3.82,15.87-7.25Zm-16-30.37c-1.08-1.37-4.21-1.76-5.58-1.76-4.7,0-8.62,3.33-8.62,9.41a14.25,14.25,0,0,0,.39,2.74Z"/><path class="cls-2" d="M416.63,686.72h16.75c22.63,0,33.5,18.2,33.5,34.83,0,20-14.2,35.61-35.66,35.61h-14.6ZM435,737.4c11.76-1.76,13-10.86,13-16,0-6.56-2.35-15-13-16Z"/><path class="cls-2" d="M517.34,752.07a40.15,40.15,0,0,1-21.26,6.26c-8.33,0-25.18-5.38-25.18-26.42,0-18.2,14.89-26.61,26.55-26.61,16.65,0,20.57,11.64,22.53,17.9l-25.57,18.1a12.88,12.88,0,0,0,5.88,1.37c5.78,0,12.64-3.82,15.87-7.24Zm-16-30.33c-1.08-1.37-4.21-1.76-5.58-1.76-4.7,0-8.62,3.33-8.62,9.39a14.21,14.21,0,0,0,.39,2.74Z"/><path class="cls-2" d="M522.93,741.41a11.76,11.76,0,0,0,5.09,1.27c2.15,0,4.51-.78,4.51-3.13,0-4.21-10.48-7.14-10.48-18.88,0-11,7.35-15.36,17.54-15.36,4.6,0,8,.2,9.89.39v16a10.63,10.63,0,0,0-5.78-1.76,3.56,3.56,0,0,0-3.82,3.42c0,3.72,11.07,8.12,11.07,19.67,0,9.69-5.88,15.26-18.71,15.26a39.14,39.14,0,0,1-9.31-1.17Z"/><path class="cls-2" d="M557,686.72h17V702H557Zm0,19.76h17v50.68H557Z"/><path class="cls-2" d="M588.07,752.36a19.61,19.61,0,0,0,14.2,6.36c3.72,0,6.56-2.15,6.56-5.58V750.8a19.23,19.23,0,0,1-5.19.59c-16.36,0-22.92-12.62-22.92-22.4,0-17.81,12.44-23.68,21.65-23.68a113.67,113.67,0,0,1,13.91,1.17h10.38l-5.09,7.63c1.47,1.27,4.9,7,4.9,14.87,0,5.48-2.45,10.37-4.8,12.52,1.47,1.66,4.21,4.89,4.21,11.94,0,9.88-7.15,20.94-24.1,20.94-8.62,0-15.77-3.82-22.14-9.39Zm15.18-17.61a6.41,6.41,0,0,0,0-12.82,6.41,6.41,0,0,0,0,12.82Z"/><path class="cls-2" d="M633.34,706.48h17v4.7c3.33-3.62,7.35-5.87,12.44-5.87,7.05,0,14.69,3.82,14.69,14.58v37.28h-17V729.37c0-3.23-.59-7-5.19-7-4.21,0-4.9,3.82-4.9,7v27.79h-17Z"/><path class="cls-2" d="M528.21,850.31a39.69,39.69,0,0,1-9.6,1.17c-21.75,0-34.68-16.93-34.68-37.67,0-19.86,14.5-36.3,34.87-36.3a41.26,41.26,0,0,1,9,.78l1.27,21.43c-1.86-1.57-6.56-2.45-9-2.45-9.5,0-16.56,6.85-16.56,16.44,0,12.62,8.33,18,16.75,18,3.23,0,7.15-.68,9.6-2.64Z"/><path class="cls-2" d="M560.45,797.87a26.51,26.51,0,1,1-26.55,26.51A26.49,26.49,0,0,1,560.45,797.87Zm0,36a9.49,9.49,0,1,0-9.5-9.49A9.44,9.44,0,0,0,560.45,833.87Z"/><path class="cls-2" d="M593.17,831.92h17v17.81h-17Z"/><path class="cls-13" d="M329.66,424.25"/><path class="cls-14" d="M266.94,483"/></g></g></svg>