<svg xmlns="http://www.w3.org/2000/svg" viewBox="0 0 1400 900"><defs><style>.cls-1{fill:#3772ff;}.cls-2{fill:#fff;}</style></defs><title>Asset 3</title><g id="Layer_2" data-name="Layer 2"><g id="Layer_1-2" data-name="Layer 1"><rect class="cls-1" width="1400" height="900"/><g id="Layer_2-2" data-name="Layer 2"><g id="Layer_6" data-name="Layer 6"><path class="cls-2" d="M517,429.21a13.94,13.94,0,0,1-10.66,5.16,18,18,0,0,1-9-2,28.5,28.5,0,0,1-5.84-4.4,37.63,37.63,0,0,0-5.33-4.43,13.68,13.68,0,0,0-7.84-2,13.94,13.94,0,0,0-8.31,3,38.39,38.39,0,0,0-7.67,7.66A62.42,62.42,0,0,0,456,442.58c-1.92,3.92-3.44,7.64-5,11.21V556.15a8.56,8.56,0,0,0,4.6,5,27.26,27.26,0,0,0,8,2.51,79.08,79.08,0,0,0,9.21.89,54.47,54.47,0,0,1,8.36.86v3.44H401.62v-3.3a44.63,44.63,0,0,0,14-3.44,8.38,8.38,0,0,0,5.85-8.15V434a13.32,13.32,0,0,0-.52-4.26,8.37,8.37,0,0,0-3-3.2c-2.13-1.17-4.61-2.64-7.46-4.43a60.31,60.31,0,0,0-8.53-4.4v-2.13l46.54-18.15h2.13l-.72,49.36h.72c1.17-2.85,3.06-6.88,5.68-12.41a107,107,0,0,1,9.93-16.67,62.27,62.27,0,0,1,14.43-14.23,32.9,32.9,0,0,1,19.53-6.05,22.5,22.5,0,0,1,15.09,5.33,17.2,17.2,0,0,1,6.22,13.51A18.65,18.65,0,0,1,517,429.21Z"/><path class="cls-2" d="M643.6,541.06a47.42,47.42,0,0,1-14.75,16.5,62.05,62.05,0,0,1-21,9.24,107.25,107.25,0,0,1-25.06,2.82,146.32,146.32,0,0,1-29.45-2.82,119.27,119.27,0,0,1-25.68-8.18V511.77h2.85a185.07,185.07,0,0,0,7.08,17.91,88.89,88.89,0,0,0,10.32,17.39,50.8,50.8,0,0,0,14.5,13.17,38,38,0,0,0,20.07,5.26,37.13,37.13,0,0,0,27-9.76q10.11-9.76,10.11-30a25.54,25.54,0,0,0-6.88-18.29,35.18,35.18,0,0,0-18.93-9.76q-9.52-1.76-18.39-3.88c-5.88-1.45-11.17-3-15.92-4.64a43.94,43.94,0,0,1-21.72-16,45,45,0,0,1-8.32-27.5,42.68,42.68,0,0,1,4.61-19.86,48.62,48.62,0,0,1,12.44-15.3,56.53,56.53,0,0,1,18.08-9.76,71,71,0,0,1,22-3.44A114.74,114.74,0,0,1,612.9,400a165.7,165.7,0,0,1,21.69,6.57l4.19,44.1-2.81.68q-5-10.62-9.94-19.69a80.68,80.68,0,0,0-11-15.61,43.13,43.13,0,0,0-13.75-10.31,41.25,41.25,0,0,0-17.6-3.43,34.7,34.7,0,0,0-11.89,2.13,30.31,30.31,0,0,0-10.31,6.22A31.57,31.57,0,0,0,554.16,421a34.28,34.28,0,0,0-2.85,14.4c0,8.73,2.51,15,7.46,18.8a51.37,51.37,0,0,0,18.83,8.53q7.77,1.81,17.19,3.71c6.15,1.3,11.48,2.58,16,3.74a52.74,52.74,0,0,1,27.18,16.26A44,44,0,0,1,649.1,517.1,49.48,49.48,0,0,1,643.6,541.06Z"/><path class="cls-2" d="M790.4,570h-2.13V534.56h-.35a72.15,72.15,0,0,1-24.33,26.26,66.33,66.33,0,0,1-35,8.46,65,65,0,0,1-25.4-5.16,59.57,59.57,0,0,1-21.83-15.81,80.87,80.87,0,0,1-15.12-26.77,107.73,107.73,0,0,1-5.67-36.4,89.25,89.25,0,0,1,6.57-34.38,83.32,83.32,0,0,1,46.88-46.57,97.71,97.71,0,0,1,37-6.87,109.49,109.49,0,0,1,20,1.78,142.76,142.76,0,0,1,17.18,4.27c-.24-3.44-.41-8.39-.51-14.58s0-12.41,0-18.8V339.92l-29.12-11v-2.13l56.3-15.64h2.86V541.44a77.54,77.54,0,0,0,10.65,5L843,552.47v2.72Zm-2.48-133.5a68.78,68.78,0,0,0-19.86-23.44,38.93,38.93,0,0,0-22.38-8.87,42.27,42.27,0,0,0-23.61,6.36,51.81,51.81,0,0,0-16.16,17.19,81.33,81.33,0,0,0-9.42,24.33,132.54,132.54,0,0,0-3,28.43,111.49,111.49,0,0,0,3.44,28.22,76.84,76.84,0,0,0,10.62,24.06,57,57,0,0,0,17.6,16.87,45.7,45.7,0,0,0,24.3,6.4,35,35,0,0,0,25.05-9.94,45.22,45.22,0,0,0,13.31-25.23Z"/><path class="cls-2" d="M995.29,547.28a43.67,43.67,0,0,1-7.46,11.51A31,31,0,0,1,977,566.63a36.21,36.21,0,0,1-35.16-4.57c-6.26-4.71-9.42-13-9.42-24.85l-.69-.34a85.27,85.27,0,0,1-7.63,10.31,72.13,72.13,0,0,1-11.37,10.65,58.18,58.18,0,0,1-14.54,8,49.17,49.17,0,0,1-17.6,3A43.75,43.75,0,0,1,869,567.22a27.28,27.28,0,0,1-10.62-5.68,31,31,0,0,1-7.84-10.31,36.5,36.5,0,0,1-3-15.6,29,29,0,0,1,8-19.18,89.5,89.5,0,0,1,19.69-16.71c7.8-4.95,14.75-9.21,20.62-12.78s11.31-6.57,15.81-9,8.46-4.61,11.9-6.39,6.32-3.44,8.69-4.78V430.11a12.09,12.09,0,0,0-1.23-3.44,19.21,19.21,0,0,0-4.27-5.5,27.72,27.72,0,0,0-8.35-5.12,34.89,34.89,0,0,0-13.75-2.34,33.38,33.38,0,0,0-11.2,2,39.3,39.3,0,0,0-9.76,5,34.58,34.58,0,0,0-6.88,6,8.92,8.92,0,0,0-2.47,5.16v16a11.15,11.15,0,0,1-5.16,8.87A18.23,18.23,0,0,1,858,460.6a13.25,13.25,0,0,1-9.56-4.06,12.93,12.93,0,0,1-4.09-9.42,15.1,15.1,0,0,1,2.13-7.8,27.81,27.81,0,0,1,5.4-6.39,41.55,41.55,0,0,1,6.87-4.92c2.48-1.44,4.68-2.71,6.57-3.92,6.15-3.43,12.44-6.87,18.8-10.31a180.65,180.65,0,0,1,18.28-8.49c5.78-2.34,11.14-4.26,16-5.7a45,45,0,0,1,11.89-2.14,34.07,34.07,0,0,1,17.43,4.82,28.72,28.72,0,0,1,11.68,11.89,21,21,0,0,1,1.79,8.7c.24,4.12.34,8.21.34,12.23,0,8.53,0,16.22-.17,23.1s0,13.47,0,19.87,0,12.95-.17,19.73S961,511.91,961,520q0,16,5.5,21.13a20.11,20.11,0,0,0,24.68,1.76,16.91,16.91,0,0,0,5-8.73h2.13A37.35,37.35,0,0,1,995.29,547.28Zm-62.87-74.93a144.44,144.44,0,0,1-15.95,9.76q-9.59,5.16-18.66,11.21a84.24,84.24,0,0,0-15.61,13.33,23.84,23.84,0,0,0-6.56,16.5A25.23,25.23,0,0,0,882,539.86a21,21,0,0,0,16.7,7.45A57,57,0,0,0,915,545.18,31.43,31.43,0,0,0,928.16,537a12.83,12.83,0,0,0,4.26-9.93Z"/></g></g></g></g></svg>