<svg xmlns="http://www.w3.org/2000/svg" viewBox="0 0 1400 900"><defs><style>.cls-1{fill:#fff;}</style></defs><title>Asset 5</title><g id="Layer_2" data-name="Layer 2"><g id="Layer_1-2" data-name="Layer 1"><rect width="1400" height="900"/><g id="Layer_2-2" data-name="Layer 2"><g id="Layer_6" data-name="Layer 6"><path class="cls-1" d="M566.49,432.29a10.19,10.19,0,0,1-7.77,3.76,13.14,13.14,0,0,1-6.6-1.43,21.16,21.16,0,0,1-4.26-3.21,27.4,27.4,0,0,0-3.89-3.24,10.58,10.58,0,0,0-11.78.76,28.25,28.25,0,0,0-5.6,5.59A45.35,45.35,0,0,0,522,442c-1.41,2.86-2.51,5.57-3.64,8.18v74.67a6.21,6.21,0,0,0,3.36,3.62,20,20,0,0,0,5.84,1.83,58.33,58.33,0,0,0,6.72.65,40.29,40.29,0,0,1,6.1.62v2.51h-58v-2.41a32.57,32.57,0,0,0,10.23-2.5,6.12,6.12,0,0,0,4.26-6V435.77a9.61,9.61,0,0,0-.37-3.11,6.18,6.18,0,0,0-2.21-2.33q-2.33-1.27-5.44-3.23a43.56,43.56,0,0,0-6.22-3.21v-1.56l33.95-13.24h1.56l-.53,36h.53c.85-2.08,2.23-5,4.14-9.05a78,78,0,0,1,7.24-12.16A45.39,45.39,0,0,1,540,413.5a24,24,0,0,1,14.24-4.41,16.37,16.37,0,0,1,11,3.89,12.52,12.52,0,0,1,4.54,9.85A13.63,13.63,0,0,1,566.49,432.29Z"/><path class="cls-1" d="M658.85,513.89a34.54,34.54,0,0,1-10.76,12,45.36,45.36,0,0,1-15.32,6.75,78.12,78.12,0,0,1-18.28,2.05A106.84,106.84,0,0,1,593,532.67a87.31,87.31,0,0,1-18.73-6V492.52h2.08a134.33,134.33,0,0,0,5.16,13.07A65.14,65.14,0,0,0,589,518.27a37.07,37.07,0,0,0,10.58,9.61,27.68,27.68,0,0,0,14.64,3.83A27.07,27.07,0,0,0,634,524.59q7.37-7.11,7.37-21.89a18.67,18.67,0,0,0-5-13.34,25.72,25.72,0,0,0-13.82-7.12q-6.94-1.28-13.42-2.83c-4.29-1.06-8.15-2.16-11.61-3.39a32,32,0,0,1-15.85-11.64,32.84,32.84,0,0,1-6.07-20.06A31.28,31.28,0,0,1,579,429.83,35.68,35.68,0,0,1,588,418.67a41.37,41.37,0,0,1,13.19-7.12A51.66,51.66,0,0,1,617.3,409a83.4,83.4,0,0,1,19.16,2,120,120,0,0,1,15.82,4.79L655.34,448l-2.06.5q-3.66-7.75-7.24-14.37a59.29,59.29,0,0,0-8-11.38,31.46,31.46,0,0,0-10-7.53,30.08,30.08,0,0,0-12.83-2.5,25.41,25.41,0,0,0-8.68,1.55,22.18,22.18,0,0,0-7.52,4.54,23.14,23.14,0,0,0-5.32,7.52,25.14,25.14,0,0,0-2.08,10.51c0,6.37,1.83,11,5.44,13.72a37.54,37.54,0,0,0,13.74,6.22q5.67,1.32,12.54,2.7c4.49,1,8.38,1.88,11.64,2.74A38.43,38.43,0,0,1,654.71,474a32,32,0,0,1,8.15,22.37A36,36,0,0,1,658.85,513.89Z"/><path class="cls-1" d="M766,535H764.4V509.15h-.25a52.73,52.73,0,0,1-17.76,19.15,48.35,48.35,0,0,1-25.5,6.17,47.18,47.18,0,0,1-18.53-3.76,43.52,43.52,0,0,1-15.93-11.53,59,59,0,0,1-11-19.54,78.57,78.57,0,0,1-4.14-26.55A65.28,65.28,0,0,1,676.05,448a60.79,60.79,0,0,1,34.21-34,71.42,71.42,0,0,1,27-5,80.46,80.46,0,0,1,14.62,1.31,103.91,103.91,0,0,1,12.54,3.11c-.17-2.51-.3-6.12-.37-10.63s0-9.06,0-13.72V367.14l-21.24-8v-1.55l41.07-11.41h2.08v168a56.15,56.15,0,0,0,7.78,3.64l10.6,4.41v2Zm-1.8-97.4a50.15,50.15,0,0,0-14.5-17.1A28.37,28.37,0,0,0,733.33,414a30.87,30.87,0,0,0-17.23,4.64,37.92,37.92,0,0,0-11.79,12.54A59.34,59.34,0,0,0,697.44,449a96.4,96.4,0,0,0-2.2,20.74,81.24,81.24,0,0,0,2.5,20.59,56.22,56.22,0,0,0,7.75,17.55,41.78,41.78,0,0,0,12.84,12.31,33.38,33.38,0,0,0,17.73,4.67,25.53,25.53,0,0,0,18.28-7.25,33,33,0,0,0,9.71-18.4Z"/><path class="cls-1" d="M915.43,518.42a31.84,31.84,0,0,1-5.44,8.41,22.51,22.51,0,0,1-7.9,5.71,26.42,26.42,0,0,1-25.65-3.33c-4.56-3.44-6.87-9.48-6.87-18.13l-.5-.25a63.82,63.82,0,0,1-5.57,7.52,52.65,52.65,0,0,1-8.3,7.77,42.17,42.17,0,0,1-10.61,5.82,36,36,0,0,1-12.84,2.21,32.35,32.35,0,0,1-8.42-1.18,19.94,19.94,0,0,1-7.75-4.14,22.52,22.52,0,0,1-5.72-7.52,26.86,26.86,0,0,1-2.21-11.39,21.22,21.22,0,0,1,5.85-14,65.3,65.3,0,0,1,14.37-12.19c5.69-3.61,10.75-6.72,15-9.33s8.25-4.78,11.54-6.59,6.17-3.36,8.67-4.66,4.62-2.51,6.35-3.49V432.94a9,9,0,0,0-.9-2.51,14,14,0,0,0-3.11-4,20.38,20.38,0,0,0-6.1-3.74,25.24,25.24,0,0,0-10-1.7,23.94,23.94,0,0,0-8.17,1.43A28.71,28.71,0,0,0,834,426a25.55,25.55,0,0,0-5,4.39,6.53,6.53,0,0,0-1.81,3.76v11.66a8.1,8.1,0,0,1-3.76,6.47,13.23,13.23,0,0,1-8.17,2.86,9.6,9.6,0,0,1-7-3,9.45,9.45,0,0,1-3-6.87,11,11,0,0,1,1.56-5.69,20.24,20.24,0,0,1,3.93-4.67,30.53,30.53,0,0,1,5-3.58c1.8-1.05,3.41-2,4.79-2.86,4.49-2.51,9.08-5,13.72-7.52a130.45,130.45,0,0,1,13.34-6.2c4.21-1.7,8.12-3.11,11.66-4.16a32.38,32.38,0,0,1,8.67-1.55,24.79,24.79,0,0,1,12.72,3.51,20.88,20.88,0,0,1,8.52,8.67,15.41,15.41,0,0,1,1.31,6.35c.17,3,.25,6,.25,8.92,0,6.22,0,11.84-.13,16.86s0,9.83,0,14.49,0,9.45-.12,14.39-.13,10.31-.13,16.18q0,11.65,4,15.42a14.67,14.67,0,0,0,18,1.28,12.32,12.32,0,0,0,3.69-6.37h1.55A27,27,0,0,1,915.43,518.42Zm-45.86-54.66a105.6,105.6,0,0,1-11.64,7.12q-7,3.76-13.61,8.17a61.91,61.91,0,0,0-11.39,9.73,17.45,17.45,0,0,0-4.79,12A18.44,18.44,0,0,0,832.78,513,15.34,15.34,0,0,0,845,518.45a41.73,41.73,0,0,0,11.91-1.56,23,23,0,0,0,9.58-6,9.39,9.39,0,0,0,3.11-7.25Z"/></g></g></g></g></svg>