<svg xmlns="http://www.w3.org/2000/svg" viewBox="0 0 1092 1092"><defs><style>.cls-1{fill:#fff;}.cls-2{fill:#e56298;}.cls-3{fill:#1d1d1b;}.cls-4{fill:#e85225;}</style></defs><title>Asset 19</title><g id="Layer_2" data-name="Layer 2"><g id="Layer_2-2" data-name="Layer 2"><rect class="cls-1" width="1092" height="1092"/></g><g id="Layer_6" data-name="Layer 6"><path class="cls-2" d="M880.7,547.67A334.28,334.28,0,0,1,546.18,882.19c-184.75,0-334.52-149.77-334.52-334.52S361.42,213.15,546.18,213.15,880.7,362.92,880.7,547.67Z"/><path class="cls-2" d="M546.18,889.16c-188.3,0-341.49-153.19-341.49-341.49S357.88,206.18,546.18,206.18,887.67,359.37,887.67,547.67A341.68,341.68,0,0,1,624.43,880.13,342.54,342.54,0,0,1,546.18,889.16Zm0-669c-180.61,0-327.55,146.94-327.55,327.55S365.56,875.22,546.18,875.22A327.58,327.58,0,0,0,873.73,547.67C873.73,367.05,726.79,220.12,546.18,220.12Z"/><rect class="cls-1" x="211.65" y="547.67" width="13.94" height="68.37"/><rect class="cls-1" x="246.5" y="464.04" width="13.94" height="245.73"/><rect class="cls-1" x="281.34" y="464.04" width="13.94" height="296.75"/><rect class="cls-1" x="316.19" y="464.04" width="13.94" height="332.92"/><rect class="cls-1" x="351.04" y="464.04" width="13.94" height="360.24"/><rect class="cls-1" x="385.88" y="464.04" width="13.94" height="381.08"/><rect class="cls-1" x="420.73" y="464.04" width="13.94" height="396.54"/><rect class="cls-1" x="455.58" y="464.04" width="13.94" height="407.63"/><rect class="cls-1" x="490.42" y="464.11" width="13.94" height="414.53"/><rect class="cls-1" x="525.27" y="464.11" width="13.94" height="417.81"/><rect class="cls-1" x="560.11" y="464.04" width="13.94" height="417.53"/><rect class="cls-1" x="594.96" y="464.04" width="13.94" height="413.48"/><rect class="cls-1" x="629.81" y="464.04" width="13.94" height="405.75"/><rect class="cls-1" x="664.65" y="464.04" width="13.94" height="393.83"/><rect class="cls-1" x="699.5" y="464.04" width="13.94" height="377.31"/><rect class="cls-1" x="734.34" y="464.04" width="13.94" height="355.36"/><rect class="cls-1" x="769.19" y="464.04" width="13.94" height="326.51"/><rect class="cls-1" x="804.04" y="464.04" width="13.94" height="287.96"/><rect class="cls-1" x="838.88" y="464.04" width="13.94" height="232.5"/><rect class="cls-1" x="873.73" y="540.77" width="13.94" height="6.9"/><rect class="cls-3" x="866.76" y="540.7" width="13.94" height="75.34"/><path class="cls-4" d="M546.76,205c-188.3,0-341.49,153.19-341.49,341.49a342.8,342.8,0,0,0,3.56,49.31l1,7,6.95-1.08c16.57-2.57,33.15-9,50.71-19.74,58.51-26.45,84.26-13.35,111.51.52,31.95,16.25,65,33.06,144.75-18.7,26.86-11.15,48.59-.26,73.73,12.35,34.89,17.5,74.42,37.34,134.84.6,58-26.2,86-11.24,113.14,3.21,9.87,5.27,20.08,10.71,31.41,14l7.89,2.31,1-8.17a349.93,349.93,0,0,0,2.49-41.6C888.25,358.15,735.06,205,546.76,205Z"/><rect class="cls-4" x="239.53" y="464.04" width="13.94" height="232.5"/><rect class="cls-4" x="274.38" y="464.04" width="13.94" height="287.96"/><rect class="cls-4" x="309.22" y="464.04" width="13.94" height="326.51"/><rect class="cls-4" x="344.07" y="464.04" width="13.94" height="355.36"/><rect class="cls-4" x="378.91" y="464.04" width="13.94" height="377.31"/><rect class="cls-4" x="413.76" y="464.04" width="13.94" height="393.83"/><rect class="cls-4" x="448.61" y="464.04" width="13.94" height="405.75"/><rect class="cls-4" x="483.45" y="464.04" width="13.94" height="413.48"/><rect class="cls-4" x="518.3" y="464.11" width="13.94" height="417.46"/><rect class="cls-4" x="553.14" y="464.04" width="13.94" height="417.87"/><rect class="cls-4" x="587.99" y="464.04" width="13.94" height="414.6"/><rect class="cls-4" x="622.84" y="464.04" width="13.94" height="407.63"/><rect class="cls-4" x="657.68" y="464.04" width="13.94" height="396.54"/><rect class="cls-4" x="692.53" y="464.04" width="13.94" height="381.08"/><rect class="cls-4" x="727.38" y="464.04" width="13.94" height="360.24"/><rect class="cls-4" x="762.22" y="464.04" width="13.94" height="332.92"/><rect class="cls-4" x="797.07" y="464.04" width="13.94" height="296.75"/><rect class="cls-4" x="831.91" y="464.04" width="13.94" height="245.73"/><path class="cls-4" d="M546.11,460.84H345.17v-128a28.35,28.35,0,0,1,28.35-28.36H517.76a28.36,28.36,0,0,1,28.36,28.36Z"/><path class="cls-2" d="M553.08,467.81H338.2V332.86a35.36,35.36,0,0,1,35.33-35.32H517.76a35.36,35.36,0,0,1,35.33,35.32ZM352.14,453.87h187v-121a21.41,21.41,0,0,0-21.39-21.38H373.52a21.41,21.41,0,0,0-21.39,21.38Z"/><path class="cls-2" d="M546.11,478.06H388.72V457.21a18.49,18.49,0,0,1,18.49-18.49h120.4a18.49,18.49,0,0,1,18.49,18.49Z"/><path class="cls-2" d="M553.08,485H381.75V457.21a25.49,25.49,0,0,1,25.46-25.46h120.4a25.49,25.49,0,0,1,25.46,25.46ZM395.69,471.09H539.14V457.21a11.53,11.53,0,0,0-11.53-11.52H407.22a11.53,11.53,0,0,0-11.53,11.52Z"/><path class="cls-4" d="M370.48,413.46H345.17V539.67h43.55v-108A18.24,18.24,0,0,0,370.48,413.46Z"/><path class="cls-2" d="M395.69,546.64H338.2V406.49h32.28a25.24,25.24,0,0,1,25.21,25.21ZM352.14,532.7h29.62v-101a11.28,11.28,0,0,0-11.27-11.27H352.14Z"/><circle class="cls-2" cx="445.76" cy="373.37" r="4.22"/><rect class="cls-4" x="388.72" y="478.06" width="314.78" height="39.35"/><path class="cls-2" d="M710.48,524.38H381.75V471.09H710.48ZM395.69,510.44H696.54V485H395.69Z"/><path class="cls-4" d="M545.89,460.84H746.83v-128a28.36,28.36,0,0,0-28.36-28.36H574.24a28.35,28.35,0,0,0-28.35,28.36Z"/><path class="cls-2" d="M753.8,467.81H538.92V332.86a35.36,35.36,0,0,1,35.33-35.32H718.48a35.36,35.36,0,0,1,35.33,35.32ZM552.86,453.87h187v-121a21.41,21.41,0,0,0-21.39-21.38H574.24a21.41,21.41,0,0,0-21.39,21.38Z"/><path class="cls-4" d="M545.89,478.06H703.28V457.21a18.49,18.49,0,0,0-18.49-18.49H564.38a18.49,18.49,0,0,0-18.49,18.49Z"/><path class="cls-2" d="M710.25,485H538.92V457.21a25.49,25.49,0,0,1,25.46-25.46h120.4a25.49,25.49,0,0,1,25.46,25.46ZM552.86,471.09H696.31V457.21a11.53,11.53,0,0,0-11.53-11.52H564.38a11.53,11.53,0,0,0-11.53,11.52Z"/><path class="cls-4" d="M721.52,413.46h25.31V539.67H703.28v-108A18.24,18.24,0,0,1,721.52,413.46Z"/><path class="cls-2" d="M753.8,546.64H696.31V431.7a25.24,25.24,0,0,1,25.21-25.21H753.8ZM710.25,532.7h29.62V420.43H721.52a11.28,11.28,0,0,0-11.27,11.27Z"/><circle class="cls-2" cx="668.02" cy="373.37" r="4.22"/><path class="cls-4" d="M546.11,478.06H388.72V457.21a18.49,18.49,0,0,1,18.49-18.49h120.4a18.49,18.49,0,0,1,18.49,18.49Z"/><path class="cls-2" d="M553.08,485H381.75V457.21a25.49,25.49,0,0,1,25.46-25.46h120.4a25.49,25.49,0,0,1,25.46,25.46ZM395.69,471.09H539.14V457.21a11.53,11.53,0,0,0-11.53-11.52H407.22a11.53,11.53,0,0,0-11.53,11.52Z"/><path class="cls-1" d="M762.22,627.29V808.52c-35.95,24.17-75.09,52.26-122.22,64.82v-246Z"/><rect class="cls-4" x="657.68" y="707.96" width="20.91" height="34.85" rx="6.97" ry="6.97"/><circle class="cls-2" cx="668.14" cy="721.9" r="3.48"/><circle class="cls-2" cx="668.14" cy="728.87" r="3.48"/><rect class="cls-2" x="664.65" y="721.9" width="6.97" height="6.97"/><path class="cls-4" d="M891.46,533.63c-.12-4.74-.5-9.69-.78-13.44-.6-7.81-1.41-17.22-2.73-24.89-2.92-17-7.51-38.74-13-55-4.86-14.45-11.84-32.7-20.23-49.06-9-17.56-20-33.35-29.59-48.31-8.8-13.69-19.62-25.67-31.56-37.61a418.36,418.36,0,0,0-39.5-34.89,346,346,0,0,0-41.45-26.67,336.55,336.55,0,0,0-47.49-22,357.46,357.46,0,0,0-47.39-13.63,349.31,349.31,0,0,0-51.87-6.93,315.43,315.43,0,0,0-57.62,1.26c-16.83,1.9-31.8,5-50,9.39a260.44,260.44,0,0,0-48.11,16.39c-17.12,7.9-32.9,15.44-47.52,25.29-13.24,8.93-28,18-39.61,28.67-6.39,5.84-13.94,11.93-20.87,19.06-6.12,6.31-10.91,10.92-15.95,17-11.39,13.84-22.57,27.77-32.94,44C242.66,379,236,392.88,228.73,409.15a313.87,313.87,0,0,0-17.42,50.31A335.56,335.56,0,0,0,202,511.29c-1.69,16.71-2.63,36.57-1.31,53.41A431.13,431.13,0,0,0,207,614.1c3.55,18.38,8,35.21,14.64,51.94,6.51,16.41,14.69,35.47,23.92,51.52,8.33,14.48,19.47,30.16,30.31,43.93,11.9,15.12,24.19,27.66,37.29,40.26a283.46,283.46,0,0,0,39.92,31.3c12.83,8.16,28.21,17.73,43.63,25.14C412.45,865.74,427.4,871,444,876.53a304.39,304.39,0,0,0,53.53,12.09c18,2.55,41.23,4,58.51,3.06,18.42-1,35.52-2.41,53.41-5.73,16-3,33.66-7,49.08-12.78a462.16,462.16,0,0,0,46.27-19.86c16.3-8,30.54-17.41,44.38-27.54A339.12,339.12,0,0,0,795,785.93a346.06,346.06,0,0,0,34.51-42c11.26-16,21.21-32.29,28.47-48.28,7.36-16.2,13.45-31,18.56-47.68a338.39,338.39,0,0,0,11.69-51.76c1.12-8.17,1.76-16.38,2.53-24.34.44-4.56.64-8.49.68-11.93C891.5,557.19,891.56,537.35,891.46,533.63Zm-22.31,16c-.55,16.4-1.15,32.3-4.15,48-3.09,16.15-8,36.18-12.47,51.25-1.57,5.25-4.8,13.88-7.43,20.3-4,9.71-7.76,17.56-12.57,27a314.5,314.5,0,0,1-26.9,42.9,332.13,332.13,0,0,1-30.19,34.77c-11.15,11.36-25.2,22.76-37.56,32.31A273.6,273.6,0,0,1,699.58,831c-13.75,7.37-29.21,13.77-45.36,20-13.76,5.31-29.74,9.45-43.28,12.21-16.66,3.4-32.49,4.88-49.9,6.12a264.22,264.22,0,0,1-52-1.8,376.6,376.6,0,0,1-47-8.92A273.1,273.1,0,0,1,417,842.79a398.08,398.08,0,0,1-44-23.48c-13.43-8.14-25.16-17.69-37.52-27.86-5.06-4.17-13.4-11.67-19.35-17.71-5.13-5.21-9.32-10-14.18-15.38-11.51-12.61-21.06-26.6-30.58-41.7a283.78,283.78,0,0,1-23.09-43.88,298.35,298.35,0,0,1-15.58-46.89c-4.23-17-7.19-32.22-8.6-48.83-1.37-16.2-2-34.22-.74-51.2,1.17-15.67,2.37-30.56,5.79-45,4-17,8.18-33.12,14-48a363.37,363.37,0,0,1,23.36-48.54,339.82,339.82,0,0,1,28.44-41.53,266.63,266.63,0,0,1,35.08-36.59c11-9.27,25.53-21.53,37.43-29.26,12.12-7.87,27.19-16.79,41.09-23.17a358.72,358.72,0,0,1,45-17.41c16-5,33.4-8.1,49.79-10.63,18.86-2.92,38.42-3.16,56.48-2.59,15.43.49,33.15,2.86,48.29,5.68,15.92,3,31.45,7.89,46.21,12.64,16.61,5.35,28.35,11.61,44.27,20,13.47,7.14,28.15,16,39.64,24.9a378.36,378.36,0,0,1,43,38.56c13.51,14.2,21.68,24.86,32.3,40.43a348.09,348.09,0,0,1,25.37,44.67c7.18,14.83,12.88,28.82,17,44.71,3.68,14.19,8.16,32,10.25,48.15S870.19,533.26,869.16,549.59Z"/></g></g></svg>