<svg xmlns="http://www.w3.org/2000/svg" viewBox="0 0 1092 1092"><defs><style>.cls-1{fill:#fff;}.cls-2{fill:#eb6461;}</style></defs><title>Asset 11</title><g id="Layer_2" data-name="Layer 2"><g id="Layer_2-2" data-name="Layer 2"><rect class="cls-1" width="1092" height="1092"/></g><g id="Layer_12" data-name="Layer 12"><path class="cls-2" d="M403.73,749.09a112.82,112.82,0,0,1-99.51-58.77,29.49,29.49,0,0,1-27-29.34v-50.7a29.48,29.48,0,0,1,26.85-29.33,113.61,113.61,0,1,1,99.67,168.14ZM314.8,671.4l2.87,5.89a95.67,95.67,0,1,0,86.07-137.47,96.27,96.27,0,0,0-86.19,54.1l-2.84,5.87-6.46-.89a11.71,11.71,0,0,0-1.6-.13,11.52,11.52,0,0,0-11.51,11.51V661a11.36,11.36,0,0,0,13.17,11.36Z"/><path class="cls-2" d="M687.76,749.23a113.6,113.6,0,1,1,99.67-168.14,29.48,29.48,0,0,1,26.85,29.33v50.7a29.48,29.48,0,0,1-27,29.35A112.8,112.8,0,0,1,687.76,749.23Zm0-209.27a95.67,95.67,0,1,0,86.07,137.47l2.87-5.89,6.48.94a11.35,11.35,0,0,0,13.17-11.36v-50.7a11.52,11.52,0,0,0-11.5-11.51,11.7,11.7,0,0,0-1.59.13l-6.47.9-2.84-5.88A96.27,96.27,0,0,0,687.76,540Z"/><path class="cls-2" d="M642.5,546.06a135.91,135.91,0,0,0-96.63-40.34h-.34A135.93,135.93,0,0,0,449,545.59l-12.65-12.72a153.76,153.76,0,0,1,109.15-45.09h.39a153.73,153.73,0,0,1,109.31,45.63Z"/><path class="cls-2" d="M286.47,636.6a9,9,0,0,1-9-9V353a9,9,0,0,1,17.94,0V627.64A9,9,0,0,1,286.47,636.6Z"/><path class="cls-2" d="M805.32,636.6a9,9,0,0,1-9-9V353a9,9,0,1,1,17.94,0V627.64A9,9,0,0,1,805.32,636.6Z"/><path class="cls-2" d="M467.62,644.45a9,9,0,0,1-9-9,52.19,52.19,0,0,0-52.13-52.13,9,9,0,0,1,0-17.94,70.15,70.15,0,0,1,70.07,70.07A9,9,0,0,1,467.62,644.45Z"/><path class="cls-2" d="M749.82,642a9,9,0,0,1-9-9,52.19,52.19,0,0,0-52.13-52.13,9,9,0,0,1,0-17.94,70.15,70.15,0,0,1,70.07,70.07A9,9,0,0,1,749.82,642Z"/></g></g></svg>