<svg xmlns="http://www.w3.org/2000/svg" viewBox="0 0 1092 1092"><defs><style>.cls-1{fill:#fff;}.cls-2{fill:#009ee2;}</style></defs><title>Asset 20</title><g id="Layer_2" data-name="Layer 2"><g id="Layer_2-2" data-name="Layer 2"><rect class="cls-1" width="1092" height="1092"/></g><g id="Layer_10" data-name="Layer 10"><path class="cls-2" d="M869.26,428c-35.24-48-68.52-93.42-68.52-140.36h-45c0,46.94-33.28,92.31-68.5,140.33-8.41,11.46-17,23.16-25.28,35.12-8.31-12-16.87-23.65-25.28-35.11-35.23-48-68.51-93.4-68.51-140.34h-45c0,3.27-.16,6.58-.48,9.87-4.14,43.36-35.18,85.68-68,130.49-8.4,11.46-17,23.14-25.26,35.1-8.31-12-16.87-23.65-25.27-35.11-35.21-48-68.47-93.35-68.52-140.26,0,0,0-.06,0-.09h-45s0,.06,0,.09c0,46.91-33.31,92.26-68.52,140.27-41,56-87.56,119.38-87.56,197.53,0,55.3,19.05,101.06,55.1,132.33,31.5,27.32,75.35,42.37,123.48,42.37h0c44.89,0,85.42-12.85,116.28-36.52,30.61,23.49,70.73,36.31,115.24,36.51v.13c38.57,0,74.27-9.51,103.26-27.49l1.06-.67c4.36-2.75,8.55-5.71,12.58-8.83,30.91,23.9,71.6,36.87,116.73,36.87,48.13,0,92-15,123.48-42.37,36-31.27,55.1-77,55.1-132.33C956.82,547.42,910.3,484,869.26,428ZM491.6,621.22c1.79-25.62,18.63-48.59,36.4-72.82,6-8.23,12.14-16.55,17.7-25.11,5.56,8.56,11.66,16.87,17.7,25.11C582.22,574,600,598.25,600,625.7c0,47.26-38,52.36-54.27,52.36-15.7,0-51.43-4.73-54.1-47.19,0-1.69.07-3.43.07-5.29C491.67,624.12,491.64,622.67,491.6,621.22ZM313.13,523.28c5.56,8.56,11.66,16.88,17.7,25.11,18.8,25.64,36.57,49.85,36.57,77.3,0,47.26-38,52.36-54.27,52.36s-54.27-5.1-54.27-52.36c0-27.45,17.76-51.67,36.57-77.3C301.47,540.16,307.57,531.84,313.13,523.28Zm0,232h0c-64.58,0-133.59-34.07-133.59-129.7,0-63.42,40.08-118.07,78.85-170.92,19.82-27,40-54.51,54.74-83.39,14.76,28.88,34.92,56.37,54.73,83.39,11.9,16.23,24.12,32.91,35.16,49.82a325.08,325.08,0,0,0-19.57,40.2c-5.32-7.94-10.89-15.55-16.29-22.9-16.19-22.08-31.49-42.93-31.49-62.27h-45c0,19.35-15.29,40.2-31.49,62.27-21.22,28.94-45.28,61.73-45.28,103.92,0,38.68,16.88,61.44,31,73.72,17.57,15.24,41.8,23.64,68.23,23.64s50.65-8.39,68.23-23.64c14.16-12.28,31-35,31-73.72,0-2.13-.08-4.23-.2-6.31,1.29-32.38,12.85-65.32,36.34-103.57,12.76-20.8,27.82-41.32,42.37-61.16,19.8-27,40-54.51,54.74-83.39,14.75,28.88,34.91,56.36,54.73,83.37,11.91,16.23,24.13,32.93,35.18,49.84A332.66,332.66,0,0,0,616,544.7c-5.32-7.95-10.9-15.56-16.3-22.92-16.19-22.08-31.49-42.93-31.49-62.27h-45c0,19.35-15.29,40.2-31.49,62.27-21.22,28.94-45.28,61.73-45.28,103.92,0,1.91.05,3.77.13,5.61-1.06,36.16-12.23,65.33-33.21,86.71l-.78.78C389,742.32,353.67,755.27,313.09,755.27Zm465.15,0c-33.19,0-62.83-8.65-85.43-24.66a157.77,157.77,0,0,0,16.77-30.92c17.54,15.06,41.63,23.36,67.89,23.36,26.42,0,50.65-8.39,68.23-23.63,14.16-12.28,31-35,31-73.72,0-42.18-24.06-75-45.28-103.91C815.26,499.71,800,478.85,800,459.51H755c0,19.35-15.3,40.2-31.49,62.28-21.22,28.94-45.28,61.73-45.28,103.91,0,3.7-.1,7.35-.31,10.86-2,34-13.19,61.6-33.38,82a110.74,110.74,0,0,1-19.71,15.74l-.55.35c-21.61,13.45-48.77,20.62-78.58,20.78v-.11c-32.88,0-62.26-8.49-84.78-24.21A157.19,157.19,0,0,0,478,699.81c17.53,15,41.56,23.25,67.75,23.25,26.42,0,50.65-8.39,68.23-23.64,14.16-12.28,31-35,31-73.72,0-1.82-.06-3.62-.15-5.41.08-29.68,12.51-65.6,36-104l.59-1,.09-.15c12.68-20.58,27.59-40.9,42-60.56,19.81-27,40-54.49,54.72-83.36C793,400.15,813.16,427.64,833,454.66c38.76,52.85,78.85,107.49,78.85,170.92C911.82,721.2,842.82,755.27,778.24,755.27Zm-55-129.58c0-27.45,17.76-51.66,36.57-77.3,6-8.23,12.14-16.55,17.7-25.11,5.56,8.56,11.67,16.88,17.7,25.11,18.8,25.64,36.57,49.85,36.57,77.3,0,47.25-38,52.36-54.27,52.36S723.19,673,723.19,625.7Z"/></g></g></svg>