<svg xmlns="http://www.w3.org/2000/svg" viewBox="0 0 100 330"><defs><style>.cls-1{fill:none;}.cls-2{fill:#fff;}</style></defs><title>Asset 4</title><g id="Layer_2" data-name="Layer 2"><g id="Layer_1-2" data-name="Layer 1"><rect class="cls-1" width="100" height="10"/><path class="cls-2" d="M50,6a1,1,0,0,1-.38-.08,1,1,0,0,1-.33-.21,1,1,0,0,1,0-1.42,1,1,0,0,1,.33-.21,1,1,0,0,1,1.09.21,1,1,0,0,1,0,1.42,1.15,1.15,0,0,1-.33.21A1,1,0,0,1,50,6Z"/><rect class="cls-1" y="10" width="100" height="10"/><path class="cls-2" d="M50,16a1,1,0,0,1-.38-.08,1,1,0,0,1-.33-.21,1,1,0,0,1,0-1.42,1,1,0,0,1,.33-.21,1,1,0,0,1,1.09.21,1,1,0,0,1,0,1.42,1.15,1.15,0,0,1-.33.21A1,1,0,0,1,50,16Z"/><rect class="cls-1" y="20" width="100" height="10"/><path class="cls-2" d="M50,26a1,1,0,0,1-.38-.08,1,1,0,0,1-.33-.21,1,1,0,0,1,0-1.42,1,1,0,0,1,.33-.21,1,1,0,0,1,1.09.21,1,1,0,0,1,0,1.42,1.15,1.15,0,0,1-.33.21A1,1,0,0,1,50,26Z"/><rect class="cls-1" y="30" width="100" height="10"/><path class="cls-2" d="M50,36a1,1,0,0,1-.38-.08,1,1,0,0,1-.33-.21,1,1,0,0,1,0-1.42,1,1,0,0,1,.33-.21,1,1,0,0,1,1.09.21,1,1,0,0,1,0,1.42,1.15,1.15,0,0,1-.33.21A1,1,0,0,1,50,36Z"/><rect class="cls-1" y="40" width="100" height="10"/><path class="cls-2" d="M50,46a1,1,0,0,1-.38-.08,1,1,0,0,1-.33-.21,1,1,0,0,1,0-1.42,1,1,0,0,1,.33-.21,1,1,0,0,1,1.09.21,1,1,0,0,1,0,1.42,1.15,1.15,0,0,1-.33.21A1,1,0,0,1,50,46Z"/><rect class="cls-1" y="50" width="100" height="10"/><path class="cls-2" d="M50,56a1,1,0,0,1-.38-.08,1,1,0,0,1-.33-.21,1,1,0,0,1,0-1.42,1,1,0,0,1,.33-.21,1,1,0,0,1,1.09.21,1,1,0,0,1,0,1.42,1.15,1.15,0,0,1-.33.21A1,1,0,0,1,50,56Z"/><rect class="cls-1" y="60" width="100" height="10"/><path class="cls-2" d="M50,66a1,1,0,0,1-.38-.08,1,1,0,0,1-.33-.21,1,1,0,0,1,0-1.42,1,1,0,0,1,.33-.21,1,1,0,0,1,1.09.21,1,1,0,0,1,0,1.42,1.15,1.15,0,0,1-.33.21A1,1,0,0,1,50,66Z"/><rect class="cls-1" y="70" width="100" height="10"/><path class="cls-2" d="M50,76a1,1,0,0,1-.38-.08,1,1,0,0,1-.33-.21,1,1,0,0,1,0-1.42,1,1,0,0,1,.33-.21,1,1,0,0,1,1.09.21,1,1,0,0,1,0,1.42,1.15,1.15,0,0,1-.33.21A1,1,0,0,1,50,76Z"/><rect class="cls-1" y="80" width="100" height="10"/><path class="cls-2" d="M50,86a1,1,0,0,1-.38-.08,1,1,0,0,1-.33-.21,1,1,0,0,1,0-1.42,1,1,0,0,1,.33-.21,1,1,0,0,1,1.09.21,1,1,0,0,1,0,1.42,1.15,1.15,0,0,1-.33.21A1,1,0,0,1,50,86Z"/><rect class="cls-1" y="90" width="100" height="10"/><path class="cls-2" d="M50,96a1,1,0,0,1-.38-.08,1,1,0,0,1-.33-.21,1,1,0,0,1,0-1.42,1,1,0,0,1,.33-.21,1,1,0,0,1,1.09.21,1,1,0,0,1,0,1.42,1.15,1.15,0,0,1-.33.21A1,1,0,0,1,50,96Z"/><rect class="cls-1" y="100" width="100" height="10"/><path class="cls-2" d="M50,106a1,1,0,0,1-.38-.08,1,1,0,0,1-.33-.21,1,1,0,0,1,0-1.42,1,1,0,0,1,.33-.21,1,1,0,0,1,1.09.21,1,1,0,0,1,0,1.42,1.15,1.15,0,0,1-.33.21A1,1,0,0,1,50,106Z"/><rect class="cls-1" y="110" width="100" height="10"/><path class="cls-2" d="M50,116a1,1,0,0,1-.38-.08,1,1,0,0,1-.33-.21,1,1,0,0,1,0-1.42,1,1,0,0,1,.33-.21,1,1,0,0,1,1.09.21,1,1,0,0,1,0,1.42,1.15,1.15,0,0,1-.33.21A1,1,0,0,1,50,116Z"/><rect class="cls-1" y="120" width="100" height="10"/><path class="cls-2" d="M50,126a1,1,0,0,1-.38-.08,1,1,0,0,1-.33-.21,1,1,0,0,1,0-1.42,1,1,0,0,1,.33-.21,1,1,0,0,1,1.09.21,1,1,0,0,1,0,1.42,1.15,1.15,0,0,1-.33.21A1,1,0,0,1,50,126Z"/><rect class="cls-1" y="130" width="100" height="10"/><path class="cls-2" d="M50,136a1,1,0,0,1-.38-.08,1,1,0,0,1-.33-.21,1,1,0,0,1,0-1.42,1,1,0,0,1,.33-.21,1,1,0,0,1,1.09.21,1,1,0,0,1,0,1.42,1.15,1.15,0,0,1-.33.21A1,1,0,0,1,50,136Z"/><rect class="cls-1" y="140" width="100" height="10"/><path class="cls-2" d="M50,146a1,1,0,0,1-.38-.08,1,1,0,0,1-.33-.21,1,1,0,0,1,0-1.42,1,1,0,0,1,.33-.21,1,1,0,0,1,1.09.21,1,1,0,0,1,0,1.42,1.15,1.15,0,0,1-.33.21A1,1,0,0,1,50,146Z"/><rect class="cls-1" y="150" width="100" height="10"/><path class="cls-2" d="M50,156a1,1,0,0,1-.38-.08,1,1,0,0,1-.33-.21,1,1,0,0,1,0-1.42,1,1,0,0,1,.33-.21,1,1,0,0,1,1.09.21,1,1,0,0,1,0,1.42,1.15,1.15,0,0,1-.33.21A1,1,0,0,1,50,156Z"/><rect class="cls-1" y="160" width="100" height="10"/><path class="cls-2" d="M50,166a1,1,0,0,1-.38-.08,1,1,0,0,1-.33-.21,1,1,0,0,1,0-1.42,1,1,0,0,1,.33-.21,1,1,0,0,1,1.09.21,1,1,0,0,1,0,1.42,1.15,1.15,0,0,1-.33.21A1,1,0,0,1,50,166Z"/><rect class="cls-1" y="170" width="100" height="10"/><path class="cls-2" d="M50,176a1,1,0,0,1-.38-.08,1,1,0,0,1-.33-.21,1,1,0,0,1,0-1.42,1,1,0,0,1,.33-.21,1,1,0,0,1,1.09.21,1,1,0,0,1,0,1.42,1.15,1.15,0,0,1-.33.21A1,1,0,0,1,50,176Z"/><rect class="cls-1" y="180" width="100" height="10"/><path class="cls-2" d="M50,186a1,1,0,0,1-.38-.08,1,1,0,0,1-.33-.21,1,1,0,0,1,0-1.42,1,1,0,0,1,.33-.21,1,1,0,0,1,1.09.21,1,1,0,0,1,0,1.42,1.15,1.15,0,0,1-.33.21A1,1,0,0,1,50,186Z"/><rect class="cls-1" y="190" width="100" height="10"/><path class="cls-2" d="M50,196a1,1,0,0,1-.38-.08,1,1,0,0,1-.33-.21,1,1,0,0,1,0-1.42,1,1,0,0,1,.33-.21,1,1,0,0,1,1.09.21,1,1,0,0,1,0,1.42,1.15,1.15,0,0,1-.33.21A1,1,0,0,1,50,196Z"/><rect class="cls-1" y="200" width="100" height="10"/><path class="cls-2" d="M50,206a1,1,0,0,1-.38-.08,1,1,0,0,1-.33-.21,1,1,0,0,1,0-1.42,1,1,0,0,1,.33-.21,1,1,0,0,1,1.09.21,1,1,0,0,1,0,1.42,1.15,1.15,0,0,1-.33.21A1,1,0,0,1,50,206Z"/><rect class="cls-1" y="210" width="100" height="10"/><path class="cls-2" d="M50,216a1,1,0,0,1-.38-.08,1,1,0,0,1-.33-.21,1,1,0,0,1,0-1.42,1,1,0,0,1,.33-.21,1,1,0,0,1,1.09.21,1,1,0,0,1,0,1.42,1.15,1.15,0,0,1-.33.21A1,1,0,0,1,50,216Z"/><rect class="cls-1" y="220" width="100" height="10"/><path class="cls-2" d="M50,226a1,1,0,0,1-.38-.08,1,1,0,0,1-.33-.21,1,1,0,0,1,0-1.42,1,1,0,0,1,.33-.21,1,1,0,0,1,1.09.21,1,1,0,0,1,0,1.42,1.15,1.15,0,0,1-.33.21A1,1,0,0,1,50,226Z"/><rect class="cls-1" y="230" width="100" height="10"/><path class="cls-2" d="M50,236a1,1,0,0,1-.38-.08,1,1,0,0,1-.33-.21,1,1,0,0,1,0-1.42,1,1,0,0,1,.33-.21,1,1,0,0,1,1.09.21,1,1,0,0,1,0,1.42,1.15,1.15,0,0,1-.33.21A1,1,0,0,1,50,236Z"/><rect class="cls-1" y="240" width="100" height="10"/><path class="cls-2" d="M50,246a1,1,0,0,1-.38-.08,1,1,0,0,1-.33-.21,1,1,0,0,1,0-1.42,1,1,0,0,1,.33-.21,1,1,0,0,1,1.09.21,1,1,0,0,1,0,1.42,1.15,1.15,0,0,1-.33.21A1,1,0,0,1,50,246Z"/><rect class="cls-1" y="250" width="100" height="10"/><path class="cls-2" d="M50,256a1,1,0,0,1-.38-.08,1,1,0,0,1-.33-.21,1,1,0,0,1,0-1.42,1,1,0,0,1,.33-.21,1,1,0,0,1,1.09.21,1,1,0,0,1,0,1.42,1.15,1.15,0,0,1-.33.21A1,1,0,0,1,50,256Z"/><rect class="cls-1" y="260" width="100" height="10"/><path class="cls-2" d="M50,266a1,1,0,0,1-.38-.08,1,1,0,0,1-.33-.21,1,1,0,0,1,0-1.42,1,1,0,0,1,.33-.21,1,1,0,0,1,1.09.21,1,1,0,0,1,0,1.42,1.15,1.15,0,0,1-.33.21A1,1,0,0,1,50,266Z"/><rect class="cls-1" y="270" width="100" height="10"/><path class="cls-2" d="M50,276a1,1,0,0,1-.38-.08,1,1,0,0,1-.33-.21,1,1,0,0,1,0-1.42,1,1,0,0,1,.33-.21,1,1,0,0,1,1.09.21,1,1,0,0,1,0,1.42,1.15,1.15,0,0,1-.33.21A1,1,0,0,1,50,276Z"/><rect class="cls-1" y="280" width="100" height="10"/><path class="cls-2" d="M50,286a1,1,0,0,1-.38-.08,1,1,0,0,1-.33-.21,1,1,0,0,1,0-1.42,1,1,0,0,1,.33-.21,1,1,0,0,1,1.09.21,1,1,0,0,1,0,1.42,1.15,1.15,0,0,1-.33.21A1,1,0,0,1,50,286Z"/><rect class="cls-1" y="290" width="100" height="10"/><path class="cls-2" d="M50,296a1,1,0,0,1-.38-.08,1,1,0,0,1-.33-.21,1,1,0,0,1,0-1.42,1,1,0,0,1,.33-.21,1,1,0,0,1,1.09.21,1,1,0,0,1,0,1.42,1.15,1.15,0,0,1-.33.21A1,1,0,0,1,50,296Z"/><rect class="cls-1" y="300" width="100" height="10"/><path class="cls-2" d="M50,306a1,1,0,0,1-.38-.08,1,1,0,0,1-.33-.21,1,1,0,0,1,0-1.42,1,1,0,0,1,.33-.21,1,1,0,0,1,1.09.21,1,1,0,0,1,0,1.42,1.15,1.15,0,0,1-.33.21A1,1,0,0,1,50,306Z"/><rect class="cls-1" y="310" width="100" height="10"/><path class="cls-2" d="M50,316a1,1,0,0,1-.38-.08,1,1,0,0,1-.33-.21,1,1,0,0,1,0-1.42,1,1,0,0,1,.33-.21,1,1,0,0,1,1.09.21,1,1,0,0,1,0,1.42,1.15,1.15,0,0,1-.33.21A1,1,0,0,1,50,316Z"/><rect class="cls-1" y="320" width="100" height="10"/><path class="cls-2" d="M50,326a1,1,0,0,1-.38-.08,1,1,0,0,1-.33-.21,1,1,0,0,1,0-1.42,1,1,0,0,1,.33-.21,1,1,0,0,1,1.09.21,1,1,0,0,1,0,1.42,1.15,1.15,0,0,1-.33.21A1,1,0,0,1,50,326Z"/></g></g></svg>