<svg xmlns="http://www.w3.org/2000/svg" viewBox="0 0 1092 1092"><defs><style>.cls-1{fill:#fff;}.cls-2{fill:#e85222;}.cls-3{fill:#93c01f;}</style></defs><title>Asset 5</title><g id="Layer_2" data-name="Layer 2"><g id="Layer_2-2" data-name="Layer 2"><rect class="cls-1" width="1092" height="1092"/></g><g id="Layer_15" data-name="Layer 15"><path class="cls-2" d="M546.34,432.77h-261V266.51a36.84,36.84,0,0,1,36.84-36.83H509.5a36.83,36.83,0,0,1,36.83,36.83Z"/><path class="cls-3" d="M555.39,441.82H276.23V266.51a45.94,45.94,0,0,1,45.89-45.89H509.5a45.94,45.94,0,0,1,45.89,45.89Zm-261-18.11H537.28V266.51a27.81,27.81,0,0,0-27.78-27.78H322.13a27.81,27.81,0,0,0-27.78,27.78Z"/><path class="cls-2" d="M546.34,455.13H341.87V428a24,24,0,0,1,24-24H522.31a24,24,0,0,1,24,24Z"/><path class="cls-3" d="M555.39,464.19H332.82V428A33.12,33.12,0,0,1,365.9,395H522.31A33.12,33.12,0,0,1,555.39,428ZM350.92,446.08H537.28V428a15,15,0,0,0-15-15H365.9a15,15,0,0,0-15,15Z"/><path class="cls-2" d="M318.17,371.21H285.29v164h56.58V394.9A23.7,23.7,0,0,0,318.17,371.21Z"/><path class="cls-3" d="M350.92,544.23H276.23V362.15h41.94a32.79,32.79,0,0,1,32.75,32.75Zm-56.58-18.11h38.47V394.91a14.66,14.66,0,0,0-14.64-14.65H294.34Z"/><circle class="cls-3" cx="415.97" cy="319.13" r="5.48"/><rect class="cls-2" x="341.87" y="455.13" width="408.93" height="51.12"/><path class="cls-3" d="M759.86,515.31h-427V446.08h427ZM350.92,497.2H741.75v-33H350.92Z"/><path class="cls-2" d="M546,432.77h261V266.51a36.83,36.83,0,0,0-36.83-36.83H582.88A36.84,36.84,0,0,0,546,266.51Z"/><path class="cls-3" d="M816.14,441.82H537V266.51a45.94,45.94,0,0,1,45.89-45.89H770.25a45.94,45.94,0,0,1,45.89,45.89Zm-261-18.11H798V266.51a27.81,27.81,0,0,0-27.78-27.78H582.88a27.81,27.81,0,0,0-27.78,27.78Z"/><path class="cls-2" d="M546,455.13H750.51V428a24,24,0,0,0-24-24H570.07a24,24,0,0,0-24,24Z"/><path class="cls-3" d="M759.56,464.19H537V428A33.12,33.12,0,0,1,570.07,395H726.48A33.12,33.12,0,0,1,759.56,428ZM555.09,446.08H741.45V428a15,15,0,0,0-15-15H570.07a15,15,0,0,0-15,15Z"/><path class="cls-2" d="M774.2,371.21h32.88v164H750.51V394.9A23.7,23.7,0,0,1,774.2,371.21Z"/><path class="cls-3" d="M816.14,544.23H741.45V394.91a32.79,32.79,0,0,1,32.75-32.75h41.94Zm-56.58-18.11H798V380.26H774.2a14.66,14.66,0,0,0-14.64,14.65Z"/><circle class="cls-3" cx="676.57" cy="319.13" r="5.48"/><path class="cls-2" d="M546.34,455.13H341.87V428a24,24,0,0,1,24-24H522.31a24,24,0,0,1,24,24Z"/><path class="cls-3" d="M555.39,464.19H332.82V428A33.12,33.12,0,0,1,365.9,395H522.31A33.12,33.12,0,0,1,555.39,428ZM350.92,446.08H537.28V428a15,15,0,0,0-15-15H365.9a15,15,0,0,0-15,15Z"/><path class="cls-2" d="M410.68,614.51H430v6h.22c2-3.11,6.68-7.34,15-7.34,14.12,0,26.25,11.89,26.25,28.24,0,19.91-11.45,32-28.24,32-7.23,0-11.68-3.11-13.24-4.67v22H410.68Zm30.58,18a10.79,10.79,0,1,0,10.9,10.79A10.73,10.73,0,0,0,441.26,632.52Z"/><path class="cls-2" d="M483.83,615.28c5.23-.34,10.57-.78,15.79-.78,15.24,0,23.58,2.78,23.58,18.12v39.48H506.52v-4.23h-.22c-.67,1.22-4.67,5.56-12.46,5.56-9.56,0-17.9-7.23-17.9-20.24,0-9.9,7-19.58,19.91-19.58a20.75,20.75,0,0,1,8.45,1.56c0-5.78-1.89-7.56-10.45-7.56A61.78,61.78,0,0,0,481.5,629ZM494.4,652a5.9,5.9,0,1,0,5.89-5.89A5.93,5.93,0,0,0,494.4,652Z"/><path class="cls-2" d="M533.42,614.51h19.35v5.78H553c2.45-4.46,5.67-5.78,12.46-5.78v19.35c-10.79,0-12.68,3.78-12.68,10.34v27.91H533.42Z"/><path class="cls-2" d="M577.77,615.28c5.23-.34,10.57-.78,15.79-.78,15.24,0,23.58,2.78,23.58,18.12v39.48H600.46v-4.23h-.22c-.67,1.22-4.67,5.56-12.46,5.56-9.56,0-17.9-7.23-17.9-20.24,0-9.9,7-19.58,19.91-19.58a20.75,20.75,0,0,1,8.45,1.56c0-5.78-1.89-7.56-10.46-7.56A61.78,61.78,0,0,0,575.44,629ZM588.34,652a5.9,5.9,0,1,0,5.89-5.89A5.93,5.93,0,0,0,588.34,652Z"/><path class="cls-2" d="M685.75,672.11H666.4v-6h-.23c-2,3.11-6.67,7.34-15,7.34-14.12,0-26.25-11.9-26.25-28.25,0-19.9,11.45-32,28.25-32,7.23,0,11.68,3.11,13.24,4.67V592h19.35Zm-30.58-18a10.79,10.79,0,1,0-10.9-10.79A10.73,10.73,0,0,0,655.16,654.09Z"/><path class="cls-2" d="M696,592h19.35v17.35H696Zm0,22.47h19.35v57.6H696Z"/><path class="cls-2" d="M723.86,654.2a13.41,13.41,0,0,0,5.78,1.44c2.45,0,5.12-.88,5.12-3.55,0-4.78-11.9-8.12-11.9-21.47,0-12.45,8.34-17.45,19.91-17.45,5.23,0,9.12.22,11.23.44v18.24a12.06,12.06,0,0,0-6.56-2c-2.23,0-4.34,1.45-4.34,3.9,0,4.23,12.57,9.23,12.57,22.35,0,11-6.67,17.35-21.24,17.35a44.36,44.36,0,0,1-10.57-1.34Z"/><path class="cls-2" d="M812.94,666.33a45.54,45.54,0,0,1-24.13,7.12c-9.46,0-28.58-6.12-28.58-30,0-20.69,16.9-30.25,30.14-30.25,18.9,0,23.35,13.23,25.58,20.34l-29,20.57a14.53,14.53,0,0,0,6.67,1.56c6.56,0,14.35-4.33,18-8.22Zm-18.13-34.47c-1.22-1.56-4.78-2-6.34-2-5.34,0-9.79,3.78-9.79,10.68a16.3,16.3,0,0,0,.45,3.11Z"/><path class="cls-2" d="M504.74,766.25a22.25,22.25,0,0,0,16.12,7.22c4.23,0,7.45-2.44,7.45-6.34v-2.67a21.8,21.8,0,0,1-5.9.67c-18.57,0-26-14.35-26-25.47,0-20.24,14.12-26.9,24.57-26.9a128.47,128.47,0,0,1,15.8,1.34h11.79l-5.78,8.67c1.67,1.44,5.56,8,5.56,16.9,0,6.23-2.78,11.79-5.45,14.23,1.67,1.89,4.78,5.56,4.78,13.57,0,11.23-8.12,23.8-27.36,23.8-9.79,0-17.91-4.34-25.14-10.68Zm17.24-20a7.29,7.29,0,0,0,0-14.57,7.29,7.29,0,0,0,0,14.57Z"/><path class="cls-2" d="M561.33,714.87c5.23-.34,10.57-.78,15.79-.78,15.24,0,23.58,2.78,23.58,18.12V771.7H584v-4.23h-.22c-.67,1.22-4.67,5.56-12.46,5.56-9.56,0-17.9-7.23-17.9-20.24,0-9.9,7-19.58,19.91-19.58a20.75,20.75,0,0,1,8.45,1.56c0-5.78-1.89-7.56-10.45-7.56A61.78,61.78,0,0,0,559,728.55Zm10.57,36.69a5.9,5.9,0,1,0,5.89-5.89A5.94,5.94,0,0,0,571.89,751.57Z"/><path class="cls-2" d="M610.91,714.1h19.35v5.78h.22c2.45-4.46,5.67-5.78,12.46-5.78v19.35c-10.79,0-12.68,3.78-12.68,10.34V771.7H610.91Z"/><path class="cls-2" d="M655.27,714.87c5.23-.34,10.57-.78,15.79-.78,15.24,0,23.58,2.78,23.58,18.12V771.7H678v-4.23h-.22c-.67,1.22-4.67,5.56-12.46,5.56-9.56,0-17.9-7.23-17.9-20.24,0-9.9,7-19.58,19.91-19.58a20.75,20.75,0,0,1,8.45,1.56c0-5.78-1.89-7.56-10.45-7.56a61.78,61.78,0,0,0-12.34,1.33Zm10.57,36.69a5.9,5.9,0,1,0,5.89-5.89A5.94,5.94,0,0,0,665.84,751.57Z"/><path class="cls-2" d="M711.2,766.25a22.25,22.25,0,0,0,16.12,7.22c4.23,0,7.45-2.44,7.45-6.34v-2.67a21.8,21.8,0,0,1-5.9.67c-18.57,0-26-14.35-26-25.47,0-20.24,14.12-26.9,24.57-26.9a128.47,128.47,0,0,1,15.8,1.34H755l-5.78,8.67c1.67,1.44,5.56,8,5.56,16.9,0,6.23-2.78,11.79-5.45,14.23,1.67,1.89,4.78,5.56,4.78,13.57,0,11.23-8.12,23.8-27.36,23.8-9.78,0-17.9-4.34-25.13-10.68Zm17.24-20a7.29,7.29,0,0,0,0-14.57,7.29,7.29,0,0,0,0,14.57Z"/><path class="cls-2" d="M812.94,765.92A45.54,45.54,0,0,1,788.8,773c-9.46,0-28.58-6.12-28.58-30,0-20.69,16.9-30.25,30.14-30.25,18.9,0,23.35,13.23,25.58,20.34l-29,20.57a14.53,14.53,0,0,0,6.67,1.56c6.56,0,14.35-4.33,18-8.22Zm-18.13-34.47c-1.22-1.56-4.78-2-6.34-2-5.34,0-9.79,3.78-9.79,10.68a16.29,16.29,0,0,0,.45,3.11Z"/><path class="cls-2" d="M405,813.69h19.35V819h.23c1.11-1.34,5.89-6.67,13.57-6.67,2.78,0,7.9,0,13.57,6.67A21.61,21.61,0,0,1,467,812.35c12.23,0,17.9,8.22,17.9,16.57v42.37H465.51V840.37c0-2.78,0-7.78-5.34-7.78-5.56,0-5.56,4.23-5.56,7v31.7H435.26V840.37c0-2.78,0-7.78-5.34-7.78-5.56,0-5.56,4.23-5.56,7v31.7H405Z"/><path class="cls-2" d="M499.18,814.46c5.23-.34,10.57-.78,15.79-.78,15.24,0,23.58,2.78,23.58,18.13v39.48H521.87v-4.23h-.22c-.67,1.22-4.67,5.56-12.46,5.56-9.56,0-17.9-7.23-17.9-20.24,0-9.9,7-19.58,19.91-19.58a20.75,20.75,0,0,1,8.45,1.56c0-5.78-1.89-7.56-10.46-7.56a61.78,61.78,0,0,0-12.34,1.33Zm10.57,36.69a5.9,5.9,0,1,0,5.89-5.89A5.94,5.94,0,0,0,509.74,851.16Z"/><path class="cls-2" d="M547.09,853.38a13.41,13.41,0,0,0,5.78,1.44c2.45,0,5.12-.88,5.12-3.55,0-4.78-11.9-8.12-11.9-21.47,0-12.45,8.34-17.45,19.91-17.45,5.23,0,9.12.22,11.23.44V831a12.06,12.06,0,0,0-6.56-2c-2.23,0-4.34,1.45-4.34,3.9,0,4.23,12.57,9.23,12.57,22.35,0,11-6.67,17.35-21.24,17.35a44.36,44.36,0,0,1-10.57-1.34Z"/><path class="cls-2" d="M584.78,853.38a13.41,13.41,0,0,0,5.79,1.44c2.44,0,5.11-.88,5.11-3.55,0-4.78-11.9-8.12-11.9-21.47,0-12.45,8.34-17.45,19.91-17.45,5.23,0,9.12.22,11.23.44V831a12.06,12.06,0,0,0-6.56-2c-2.22,0-4.34,1.45-4.34,3.9,0,4.23,12.57,9.23,12.57,22.35,0,11-6.67,17.35-21.24,17.35a44.36,44.36,0,0,1-10.57-1.34Z"/><path class="cls-2" d="M628.7,814.46c5.23-.34,10.57-.78,15.79-.78,15.24,0,23.58,2.78,23.58,18.13v39.48H651.39v-4.23h-.22c-.67,1.22-4.67,5.56-12.46,5.56-9.56,0-17.9-7.23-17.9-20.24,0-9.9,7-19.58,19.91-19.58a20.75,20.75,0,0,1,8.45,1.56c0-5.78-1.89-7.56-10.46-7.56a61.78,61.78,0,0,0-12.34,1.33Zm10.57,36.69a5.9,5.9,0,1,0,5.89-5.89A5.94,5.94,0,0,0,639.27,851.16Z"/><path class="cls-2" d="M677.84,813.69h19.35V819h.23c1.11-1.34,5.89-6.67,13.57-6.67,2.78,0,7.9,0,13.57,6.67a21.61,21.61,0,0,1,15.23-6.67c12.23,0,17.9,8.22,17.9,16.57v42.37H738.34V840.37c0-2.78,0-7.78-5.34-7.78-5.56,0-5.56,4.23-5.56,7v31.7H708.09V840.37c0-2.78,0-7.78-5.34-7.78-5.56,0-5.56,4.23-5.56,7v31.7H677.84Z"/><path class="cls-2" d="M772,814.46c5.23-.34,10.57-.78,15.79-.78,15.24,0,23.58,2.78,23.58,18.13v39.48H794.7v-4.23h-.22c-.67,1.22-4.67,5.56-12.46,5.56-9.56,0-17.9-7.23-17.9-20.24,0-9.9,7-19.58,19.91-19.58a20.75,20.75,0,0,1,8.45,1.56c0-5.78-1.89-7.56-10.46-7.56a61.78,61.78,0,0,0-12.34,1.33Zm10.57,36.69a5.9,5.9,0,1,0,5.89-5.89A5.94,5.94,0,0,0,782.58,851.16Zm23.91-59.94-13.35,16.45H784l7.34-16.45Z"/></g></g></svg>