<svg xmlns="http://www.w3.org/2000/svg" viewBox="0 0 1092 1092"><defs><style>.cls-1{fill:#fff;}.cls-2{fill:#ee4036;}</style></defs><title>Asset 3</title><g id="Layer_2" data-name="Layer 2"><g id="Layer_2-2" data-name="Layer 2"><rect class="cls-1" width="1092" height="1092"/></g><g id="Layer_5" data-name="Layer 5"><path class="cls-2" d="M285.35,501.51c-12.66-9.37-25.31-13.16-41-13.16a46.58,46.58,0,0,0,0,93.15,42.38,42.38,0,0,0,16.71-3.8V532.39h47.59v88.34c-15.44,6.33-42.78,9.87-59.74,9.87-57,0-99.73-33.67-99.73-95.68,0-54.42,39.74-95.68,99.73-95.68,18.23,0,46.58,8.35,57.21,16.2Z"/><path class="cls-2" d="M435.46,626.05c-13.28-2.41-14.17,12.24-14.41,19.39-.27,8.27,0,15.48,2.42,23.41,2.5,8.28,9.16,23.07,2.42,30.92-6.54,7.61-24.52,6.14-22.63-6.24,1.83-12,8.31-22.52,7.33-34.92-1.73-21.94-1.23-28-22.61-32.56H336.49V443.8h47.59V578h63.79l-12.4,48.09"/><path class="cls-2" d="M459.26,443.8h47.59V559.73c0,12.15,3.29,21.77,14.93,21.77s14.93-9.62,14.93-21.77V443.8h47.59v123c0,43-22.28,63.79-62.52,63.79s-62.52-20.76-62.52-63.79Z"/><path class="cls-2" d="M614.1,586.35c-11.85-17.83-24.19-81.14,2.15-110.31,22.22-20.76,46.54-36.8,76.65-36.8,50.88,0,93.66,42.78,93.66,95.68s-42.78,95.68-93.66,95.68c-32.66,0-62-17.63-78.8-44.25m78.8-98c-24.55,0-45.06,20.76-45.06,46.58s20.5,46.58,45.06,46.58c24.81,0,45.06-21.77,45.06-46.58S717.71,488.35,692.9,488.35Z"/><path class="cls-2" d="M803.78,443.8H825L895.41,524V443.8H943V626.05H920.22l-68.85-77.46v77.46H803.78Z"/><path class="cls-2" d="M259.38,489.72c12.6,2.36,14.92,6.85,12.12,16.67-3.43,12-6.12,28.21,1.82,38.46,6.75,8.72,24.52,7.18,24-4.5-1-24.93-23.89-16.53-12-38.83l2.82-12.3"/></g></g></svg>