<svg xmlns="http://www.w3.org/2000/svg" viewBox="0 0 766.23 766.23"><defs><style>.cls-1{fill:#fff;}.cls-2{fill:#fcb315;}.cls-3{fill:#f05323;}.cls-4{fill:#ee8722;}</style></defs><title>Asset 25</title><g id="Layer_2" data-name="Layer 2"><g id="Layer_1-2" data-name="Layer 1"><rect class="cls-1" width="766.23" height="766.23"/><polygon class="cls-2" points="207.12 271.12 132.12 376.12 207.12 481.12 312.12 481.12 387.12 376.12 312.12 271.12 207.12 271.12"/><polygon class="cls-3" points="387.12 376.12 312.12 481.12 387.12 586.12 492.12 586.12 567.12 481.12 492.12 376.12 387.12 376.12"/><polygon class="cls-4" points="387.12 166.12 312.12 271.12 387.12 376.12 492.12 376.12 567.12 271.12 492.12 166.12 387.12 166.12"/><path class="cls-1" d="M402.12,552.62v6a2,2,0,0,0,2,2h26a2,2,0,0,0,2-2v-6a2,2,0,0,0-2-2h-6a2,2,0,0,1-2-2v-61a2,2,0,0,1,2-2h31a2,2,0,0,1,2,2v61a2,2,0,0,1-2,2h-6a2,2,0,0,0-2,2v6a2,2,0,0,0,2,2h26a2,2,0,0,0,2-2v-6a2,2,0,0,0-2-2h-6a2,2,0,0,1-2-2v-136a2,2,0,0,1,2-2h6a2,2,0,0,0,2-2v-6a2,2,0,0,0-2-2h-26a2,2,0,0,0-2,2v6a2,2,0,0,0,2,2h6a2,2,0,0,1,2,2v61a2,2,0,0,1-2,2h-31a2,2,0,0,1-2-2v-61a2,2,0,0,1,2-2h6a2,2,0,0,0,2-2v-6a2,2,0,0,0-2-2h-26a2,2,0,0,0-2,2v6a2,2,0,0,0,2,2h6a2,2,0,0,1,2,2v136a2,2,0,0,1-2,2h-6A2,2,0,0,0,402.12,552.62Z"/><path class="cls-1" d="M177.12,403.12v6a2,2,0,0,0,2,2h26a2,2,0,0,0,2-2v-6a2,2,0,0,0-2-2h-6a2,2,0,0,1-2-2v-16a2,2,0,0,1,2-2h121a2,2,0,0,1,2,2v16a2,2,0,0,1-2,2h-6a2,2,0,0,0-2,2v6a2,2,0,0,0,2,2h26a2,2,0,0,0,2-2v-6a2,2,0,0,0-2-2h-6a2,2,0,0,1-2-2v-46a2,2,0,0,1,2-2h6a2,2,0,0,0,2-2v-6a2,2,0,0,0-2-2h-26a2,2,0,0,0-2,2v6a2,2,0,0,0,2,2h6a2,2,0,0,1,2,2v16a2,2,0,0,1-2,2h-121a2,2,0,0,1-2-2v-16a2,2,0,0,1,2-2h6a2,2,0,0,0,2-2v-6a2,2,0,0,0-2-2h-26a2,2,0,0,0-2,2v6a2,2,0,0,0,2,2h6a2,2,0,0,1,2,2v46a2,2,0,0,1-2,2h-6A2,2,0,0,0,177.12,403.12Z"/></g></g></svg>