<svg xmlns="http://www.w3.org/2000/svg" viewBox="0 0 1092 1092"><defs><style>.cls-1{fill:#fff;}.cls-2{fill:#ffb400;}</style></defs><title>Asset 1new</title><g id="Layer_2" data-name="Layer 2"><g id="Layer_1-2" data-name="Layer 1"><rect class="cls-1" width="1092" height="1092"/><path class="cls-2" d="M995.16,510.93,759.32,180.74a60.34,60.34,0,0,0-49.1-25.27H381.79a60.34,60.34,0,0,0-49.1,25.27L96.84,510.93a60.35,60.35,0,0,0,0,70.15L332.68,911.26a60.34,60.34,0,0,0,49.1,25.27H710.21a60.34,60.34,0,0,0,49.1-25.27L995.16,581.07A60.35,60.35,0,0,0,995.16,510.93ZM839.28,450a7.11,7.11,0,0,1-7.11,7.11H810.84a7.11,7.11,0,0,0-7.11,7.11V627.76a7.11,7.11,0,0,0,7.11,7.11h21.33a7.11,7.11,0,0,1,7.11,7.11v21.33a7.11,7.11,0,0,1-7.11,7.11H739.74a7.11,7.11,0,0,1-7.11-7.11V642a7.11,7.11,0,0,1,7.11-7.11h21.33a7.11,7.11,0,0,0,7.11-7.11V570.88a7.11,7.11,0,0,0-7.11-7.11H650.88a7.12,7.12,0,0,0-7.12,7.12V787.73a7.11,7.11,0,0,0,7.11,7.11H672.2a7.11,7.11,0,0,1,7.11,7.11v21.33a7.11,7.11,0,0,1-7.11,7.11H579.77a7.11,7.11,0,0,1-7.11-7.11V802a7.11,7.11,0,0,1,7.11-7.11H601.1a7.11,7.11,0,0,0,7.11-7.11V570.88a7.11,7.11,0,0,0-7.11-7.11H490.9a7.11,7.11,0,0,0-7.11,7.11V787.73a7.11,7.11,0,0,0,7.11,7.11h21.33a7.11,7.11,0,0,1,7.11,7.11v21.33a7.11,7.11,0,0,1-7.11,7.11H419.8a7.11,7.11,0,0,1-7.11-7.11V802a7.11,7.11,0,0,1,7.11-7.11h21.33a7.11,7.11,0,0,0,7.11-7.11V570.9a7.12,7.12,0,0,0-7.12-7.12H330.93a7.11,7.11,0,0,0-7.11,7.11v56.88a7.11,7.11,0,0,0,7.11,7.11h21.33a7.11,7.11,0,0,1,7.11,7.11v21.33a7.11,7.11,0,0,1-7.11,7.11H259.83a7.11,7.11,0,0,1-7.11-7.11V642a7.11,7.11,0,0,1,7.11-7.11h21.33a7.11,7.11,0,0,0,7.11-7.11V464.24a7.11,7.11,0,0,0-7.11-7.11H259.83a7.11,7.11,0,0,1-7.11-7.11V428.69a7.11,7.11,0,0,1,7.11-7.11h92.43a7.11,7.11,0,0,1,7.11,7.11V450a7.11,7.11,0,0,1-7.11,7.11H330.93a7.11,7.11,0,0,0-7.11,7.11v56.88a7.11,7.11,0,0,0,7.11,7.11H441.12a7.12,7.12,0,0,0,7.12-7.12V304.27a7.11,7.11,0,0,0-7.11-7.11H419.8a7.11,7.11,0,0,1-7.11-7.11V268.72a7.11,7.11,0,0,1,7.11-7.11h92.43a7.11,7.11,0,0,1,7.11,7.11V290a7.11,7.11,0,0,1-7.11,7.11H490.9a7.11,7.11,0,0,0-7.11,7.11V521.12a7.11,7.11,0,0,0,7.11,7.11H601.1a7.11,7.11,0,0,0,7.11-7.11V304.27a7.11,7.11,0,0,0-7.11-7.11H579.77a7.11,7.11,0,0,1-7.11-7.11V268.72a7.11,7.11,0,0,1,7.11-7.11H672.2a7.11,7.11,0,0,1,7.11,7.11V290a7.11,7.11,0,0,1-7.11,7.11H650.87a7.11,7.11,0,0,0-7.11,7.11V521.1a7.12,7.12,0,0,0,7.12,7.12H761.07a7.11,7.11,0,0,0,7.11-7.11V464.24a7.11,7.11,0,0,0-7.11-7.11H739.74a7.11,7.11,0,0,1-7.11-7.11V428.69a7.11,7.11,0,0,1,7.11-7.11h92.43a7.11,7.11,0,0,1,7.11,7.11Z"/></g></g></svg>