<svg xmlns="http://www.w3.org/2000/svg" viewBox="0 0 279 279"><defs><style>.cls-1{fill:none;}.cls-2{fill:#0071bc;}.cls-3{fill:#fff;}</style></defs><title>Asset 36</title><g id="Layer_2" data-name="Layer 2"><g id="Layer_1-2" data-name="Layer 1"><rect class="cls-1" width="279" height="279"/></g><g id="Layer_6" data-name="Layer 6"><path class="cls-2" d="M31.72,189.24a2.58,2.58,0,0,0-2.81-2.4c-2.9,0-3.79,2.66-3.79,5.83,0,1.06,0,5.43,3.74,5.43a2.61,2.61,0,0,0,2.91-2.52h5c0,5.42-5.54,5.88-7.8,5.88-1.68,0-4.66-.29-6.58-2.31a9.57,9.57,0,0,1-2.23-6.57,9.72,9.72,0,0,1,2.18-6.6c1.78-2,4.06-2.55,6.58-2.55,2.81,0,4.95.67,6.31,2.11a5.25,5.25,0,0,1,1.44,3.7Z"/><path class="cls-2" d="M40.62,185.71c2.19-2.21,5.5-2.4,6.77-2.4,6.91,0,8.79,5,8.79,9.19,0,6.92-4.9,9-9,9-4.61,0-8.9-2.54-8.9-9C38.25,191.38,38.44,187.92,40.62,185.71ZM47.2,198c3.43,0,4-3.17,4-5.57A7.2,7.2,0,0,0,50.1,188a3.39,3.39,0,0,0-2.88-1.25c-3.16,0-4,2.74-4,5.71C43.19,195.27,44,198,47.2,198Z"/><path class="cls-2" d="M58.79,183.79h7.56l2.88,11.74L72,183.79l7.53,0,0,17.35H75l.22-14.54L71.1,201.12H66.78l-4-14.66.12,14.66H58.79Z"/><path class="cls-2" d="M87.85,183.79v10.3a4.73,4.73,0,0,0,.56,2.62,3.46,3.46,0,0,0,3,1.41c3,0,3.45-2.47,3.45-4.2V183.79H99.5v10c0,1.92-.27,4-1.35,5.28-1.68,2.06-4.77,2.47-7,2.47-8.18,0-8.21-5.09-8.21-7.92l0-9.87Z"/><path class="cls-2" d="M102.88,183.79h6.62l5.86,12.92,0-12.92h4.2v17.33H113l-6-13.46,0,13.46h-4.22Z"/><path class="cls-2" d="M122.7,183.79h5v17.33h-5Z"/><path class="cls-2" d="M141.88,189.24a2.58,2.58,0,0,0-2.81-2.4c-2.9,0-3.79,2.66-3.79,5.83,0,1.06,0,5.43,3.74,5.43a2.61,2.61,0,0,0,2.91-2.52h5c0,5.42-5.55,5.88-7.8,5.88-1.68,0-4.66-.29-6.58-2.31a9.57,9.57,0,0,1-2.23-6.57,9.72,9.72,0,0,1,2.18-6.6c1.78-2,4.06-2.55,6.58-2.55,2.81,0,4.94.67,6.31,2.11a5.29,5.29,0,0,1,1.44,3.7Z"/><path class="cls-2" d="M154.48,183.79h5.85l6.84,17.33h-5.42l-1.2-3.48h-6.94l-1.17,3.48h-4.8Zm5,10.66-2.24-7.27h-.07l-2.4,7.27Z"/><path class="cls-2" d="M184.14,195.58c0,4.89-4.46,5.81-7.63,5.88l-.62,1.15a5.45,5.45,0,0,1,.81-.07c1.66,0,2.35.89,2.35,1.77s-.67,2-3.24,2a7.11,7.11,0,0,1-2.73-.48l.31-1.08a5.09,5.09,0,0,0,2.23.53c.31,0,1.27,0,1.27-.93,0-.63-.64-.89-1.2-.89a2.07,2.07,0,0,0-.91.21l-.55-.48,1.08-1.82a9.43,9.43,0,0,1-4.25-1.22c-3-1.88-3.53-5.36-3.53-7.61a9.68,9.68,0,0,1,2.19-6.6c1.77-2,4.05-2.55,6.57-2.55,2.81,0,5,.67,6.32,2.11a5.34,5.34,0,0,1,1.44,3.7h-5a2.57,2.57,0,0,0-2.81-2.4c-2.9,0-3.79,2.66-3.79,5.83,0,1.06,0,5.43,3.75,5.43a2.61,2.61,0,0,0,2.9-2.52Z"/><path class="cls-2" d="M191.7,183.79h5.86l6.84,17.33H199l-1.21-3.48h-6.93l-1.18,3.48h-4.8ZM189,181.9a3.89,3.89,0,0,1,1-2.43,3.34,3.34,0,0,1,2.49-1.08,5.77,5.77,0,0,1,1.75.34l1.85.53a2.56,2.56,0,0,0,.75.14c.69,0,.76-.7.79-.94h1.94a3.59,3.59,0,0,1-3.36,3.46,4.49,4.49,0,0,1-1.2-.22l-2-.57a3.29,3.29,0,0,0-1-.19,1.14,1.14,0,0,0-1.15,1Zm7.63,12.55-2.23-7.27h-.07l-2.4,7.27Z"/><path class="cls-2" d="M207,185.71c2.18-2.21,5.49-2.4,6.77-2.4,6.91,0,8.78,5,8.78,9.19,0,6.92-4.9,9-9,9-4.61,0-8.91-2.54-8.91-9C204.66,191.38,204.85,187.92,207,185.71ZM213.61,198c3.44,0,4-3.17,4-5.57a7.21,7.21,0,0,0-1.1-4.39,3.41,3.41,0,0,0-2.88-1.25c-3.17,0-4,2.74-4,5.71C209.61,195.27,210.42,198,213.61,198Z"/><path class="cls-2" d="M35.52,119.5h5.3l3.94,12.56,4.15-12.56h4.78l-6.31,17.33H41.64Z"/><path class="cls-2" d="M57.55,121.42c2.18-2.21,5.5-2.4,6.77-2.4,6.91,0,8.78,5,8.78,9.19,0,6.92-4.89,9-9,9-4.61,0-8.91-2.54-8.91-9C55.17,127.09,55.37,123.63,57.55,121.42Zm6.58,12.29c3.43,0,4-3.17,4-5.57A7.2,7.2,0,0,0,67,123.75a3.39,3.39,0,0,0-2.88-1.25c-3.17,0-4,2.74-4,5.71C60.12,131,60.94,133.71,64.13,133.71Z"/><path class="cls-2" d="M80,122.93H74.69V119.5H90.22v3.43H84.81v13.9H80Z"/><path class="cls-2" d="M95.93,119.5h5.85l6.84,17.33H103.2l-1.2-3.48H95.06l-1.17,3.48h-4.8Zm5,10.66-2.24-7.27h-.07l-2.4,7.27Z"/><polygon points="54.09 91.83 54.09 37.83 36.09 37.83 36.09 91.83 36.09 109.83 54.09 109.83 108.09 109.83 108.09 91.83 54.09 91.83"/><path class="cls-2" d="M117.09,28.83v117h-90v-117h90m8-8h-106v133h106v-133Z"/><circle class="cls-2" cx="85.66" cy="60.27" r="10.13"/><rect class="cls-2" x="84.16" y="37.33" width="3" height="11.13"/><rect class="cls-2" x="84.16" y="72.08" width="3" height="11.13"/><rect class="cls-2" x="77.51" y="38.65" width="3" height="11.13" transform="translate(-10.91 33.6) rotate(-22.5)"/><rect class="cls-2" x="90.81" y="70.76" width="3" height="11.13" transform="translate(-22.18 41.13) rotate(-22.5)"/><rect class="cls-2" x="71.87" y="42.42" width="3" height="11.13" transform="translate(-12.44 65.94) rotate(-45)"/><rect class="cls-2" x="96.44" y="66.99" width="3" height="11.13" transform="translate(-22.62 90.51) rotate(-45)"/><rect class="cls-2" x="68.11" y="48.06" width="3" height="11.13" transform="translate(-6.57 97.41) rotate(-67.5)"/><rect class="cls-2" x="100.21" y="61.35" width="3" height="11.13" transform="translate(0.96 135.27) rotate(-67.5)"/><rect class="cls-2" x="62.72" y="58.77" width="11.13" height="3"/><rect class="cls-2" x="97.47" y="58.77" width="11.13" height="3"/><rect class="cls-2" x="64.04" y="65.42" width="11.13" height="3" transform="translate(-20.31 31.73) rotate(-22.5)"/><rect class="cls-2" x="96.14" y="52.12" width="11.13" height="3" transform="translate(-12.78 43.01) rotate(-22.5)"/><rect class="cls-2" x="67.81" y="71.05" width="11.13" height="3" transform="translate(-29.81 73.13) rotate(-45)"/><rect class="cls-2" x="92.38" y="46.48" width="11.13" height="3" transform="translate(-5.25 83.3) rotate(-45)"/><rect class="cls-2" x="73.44" y="74.82" width="11.13" height="3" transform="translate(-21.74 120.09) rotate(-67.49)"/><rect class="cls-2" x="86.74" y="42.72" width="11.13" height="3" transform="translate(16.12 112.57) rotate(-67.49)"/><circle class="cls-3" cx="85.66" cy="60.27" r="2.65"/></g></g></svg>