<svg xmlns="http://www.w3.org/2000/svg" viewBox="0 0 279 279"><defs><style>.cls-1{fill:none;}.cls-2{fill:#00a99d;}.cls-3{fill:red;}</style></defs><title>Asset 33</title><g id="Layer_2" data-name="Layer 2"><g id="Layer_1-2" data-name="Layer 1"><rect class="cls-1" width="279" height="279"/></g><g id="Layer_9" data-name="Layer 9"><path class="cls-2" d="M31.72,189.22a2.58,2.58,0,0,0-2.81-2.4c-2.9,0-3.79,2.66-3.79,5.83,0,1.06,0,5.42,3.74,5.42a2.61,2.61,0,0,0,2.91-2.52h5c0,5.43-5.54,5.88-7.8,5.88-1.68,0-4.66-.28-6.58-2.3a9.61,9.61,0,0,1-2.23-6.58,9.73,9.73,0,0,1,2.18-6.6c1.78-2,4.06-2.54,6.58-2.54,2.81,0,4.95.67,6.31,2.11a5.25,5.25,0,0,1,1.44,3.7Z"/><path class="cls-2" d="M44.34,183.77v10.3a4.63,4.63,0,0,0,.56,2.61,3.46,3.46,0,0,0,3,1.42c3,0,3.45-2.47,3.45-4.2V183.77H56v10c0,1.92-.26,4-1.34,5.28-1.68,2.07-4.78,2.47-7,2.47-8.19,0-8.21-5.08-8.21-7.92l0-9.86Z"/><path class="cls-2" d="M59.37,183.77h4.87v13.92H72v3.41H59.37Z"/><path class="cls-2" d="M75.18,187.2H69.9v-3.43H85.43v3.43H80v13.9H75.18Z"/><path class="cls-2" d="M92.25,183.77v10.3a4.72,4.72,0,0,0,.55,2.61,3.47,3.47,0,0,0,3,1.42c3,0,3.46-2.47,3.46-4.2V183.77h4.68v10c0,1.92-.27,4-1.35,5.28-1.68,2.07-4.77,2.47-7,2.47-8.18,0-8.21-5.08-8.21-7.92l0-9.86Z"/><path class="cls-2" d="M107.22,183.77h8c3.12,0,4.29.19,5.33,1.25a4.44,4.44,0,0,1,1.2,3.36,3.33,3.33,0,0,1-1.59,3.21,6.27,6.27,0,0,1-2.64.89v.1c3.36.09,3.55,1.58,3.94,4.25a29.1,29.1,0,0,0,.81,4.27h-5.2a27.59,27.59,0,0,1-.58-3.91c-.22-2.09-.29-2.86-2.45-2.86h-2v6.77h-4.83Zm4.83,7.44h1.8a6.82,6.82,0,0,0,2-.14,2,2,0,0,0,1.27-2c0-2.14-1.87-2.14-3.26-2.14h-1.8Z"/><path class="cls-2" d="M130,183.77h5.86l6.84,17.33h-5.43l-1.2-3.48h-6.93L128,201.1h-4.8Zm5,10.66-2.23-7.28h-.07l-2.4,7.28Z"/><path class="cls-2" d="M35.52,119.5h5.3l3.94,12.56,4.15-12.56h4.78l-6.31,17.33H41.64Z"/><path class="cls-2" d="M57.55,121.42c2.18-2.21,5.5-2.4,6.77-2.4,6.91,0,8.78,5,8.78,9.19,0,6.92-4.89,9-9,9-4.61,0-8.91-2.54-8.91-9C55.17,127.09,55.37,123.63,57.55,121.42Zm6.58,12.29c3.43,0,4-3.17,4-5.57A7.2,7.2,0,0,0,67,123.75a3.39,3.39,0,0,0-2.88-1.25c-3.17,0-4,2.74-4,5.71C60.12,131,60.94,133.71,64.13,133.71Z"/><path class="cls-2" d="M80,122.93H74.69V119.5H90.22v3.43H84.81v13.9H80Z"/><path class="cls-2" d="M95.93,119.5h5.85l6.84,17.33H103.2l-1.2-3.48H95.06l-1.17,3.48h-4.8Zm5,10.66-2.24-7.27h-.07l-2.4,7.27Z"/><polygon points="54.09 91.83 54.09 37.83 36.09 37.83 36.09 91.83 36.09 109.83 54.09 109.83 108.09 109.83 108.09 91.83 54.09 91.83"/><path class="cls-2" d="M117.09,28.83v117h-90v-117h90m8-8h-106v133h106v-133Z"/><path class="cls-3" d="M63.09,37.83"/><path class="cls-2" d="M80,77.2a5.63,5.63,0,1,1-11.25,0"/><path class="cls-2" d="M91.22,77.2A5.63,5.63,0,1,1,80,77.2"/><path class="cls-2" d="M102.47,77.2a5.63,5.63,0,1,1-11.25,0"/><path class="cls-2" d="M91.22,43.45a5.63,5.63,0,0,1,11.25,0"/><path class="cls-2" d="M80,43.45a5.63,5.63,0,0,1,11.25,0"/><path class="cls-2" d="M68.72,43.45a5.63,5.63,0,0,1,11.25,0"/><path class="cls-2" d="M102.47,66a5.63,5.63,0,0,1,0,11.25"/><path class="cls-2" d="M102.47,54.7a5.63,5.63,0,0,1,0,11.25"/><path class="cls-2" d="M102.47,43.45a5.63,5.63,0,0,1,0,11.25"/><path class="cls-2" d="M68.72,54.7a5.63,5.63,0,1,1,0-11.25"/><path class="cls-2" d="M68.72,66a5.63,5.63,0,1,1,0-11.25"/><path class="cls-2" d="M68.72,77.2a5.63,5.63,0,1,1,0-11.25"/></g></g></svg>