<svg xmlns="http://www.w3.org/2000/svg" viewBox="0 0 279 279"><defs><style>.cls-1{fill:none;}.cls-2{fill:#ed1c24;}.cls-3{fill:red;}</style></defs><title>Asset 31</title><g id="Layer_2" data-name="Layer 2"><g id="Layer_1-2" data-name="Layer 1"><rect class="cls-1" width="279" height="279"/></g><g id="Layer_11" data-name="Layer 11"><path class="cls-2" d="M24.93,195.58c0,.69.07,2.69,2.93,2.69.4,0,2.56,0,2.56-2,0-.82-.33-1.37-1.48-1.68l-4.25-1.11c-1.2-.31-4.3-1.12-4.3-4.75,0-2.81,2.11-5.42,7.3-5.42,6.77,0,7.05,3.67,7.08,5.52H29.9a2.09,2.09,0,0,0-2.28-2.4c-1.4,0-2.28.79-2.28,1.82,0,1.27,1.05,1.59,1.75,1.78l3.24.84c2.3.6,5,1.32,5,5,0,3.86-3.31,5.59-7.66,5.59-1.8,0-4.7-.29-6.29-2.06a5.71,5.71,0,0,1-1.32-3.84Z"/><path class="cls-2" d="M43,183.77h5.85l6.84,17.33H50.25l-1.2-3.48H42.11l-1.18,3.48h-4.8Zm5,10.66-2.23-7.28h-.07l-2.4,7.28Z"/><path class="cls-2" d="M61.19,183.77v10.3a4.72,4.72,0,0,0,.55,2.61,3.49,3.49,0,0,0,3,1.42c3,0,3.45-2.47,3.45-4.2V183.77h4.68v10c0,1.92-.26,4-1.34,5.28-1.68,2.07-4.78,2.47-7,2.47-8.19,0-8.21-5.08-8.21-7.92l0-9.86Zm4.25-1.9H62.27l2.67-3.48h4.89Z"/><path class="cls-2" d="M76.36,183.77h7.32c2.06,0,4.8.22,6.6,1.44,2.57,1.75,3.26,4.61,3.26,7.18,0,3.84-1.22,6.67-4.73,8a14.82,14.82,0,0,1-5.08.67H76.36Zm4.92,14h2.06c3.2,0,5.24-1.39,5.24-5.42,0-5.26-3.94-5.26-5.4-5.26l-1.9,0Z"/><path class="cls-2" d="M96.25,183.82h13v3.31H101v3.6h7.77V194H101v3.7h8.45v3.36H96.25Z"/><path class="cls-3" d="M35.52,119.5h5.3l3.94,12.56,4.15-12.56h4.78l-6.31,17.33H41.64Z"/><path class="cls-3" d="M57.55,121.42c2.18-2.21,5.5-2.4,6.77-2.4,6.91,0,8.78,5,8.78,9.19,0,6.92-4.89,9-9,9-4.61,0-8.91-2.54-8.91-9C55.17,127.09,55.37,123.63,57.55,121.42Zm6.58,12.29c3.43,0,4-3.17,4-5.57A7.2,7.2,0,0,0,67,123.75a3.39,3.39,0,0,0-2.88-1.25c-3.17,0-4,2.74-4,5.71C60.12,131,60.94,133.71,64.13,133.71Z"/><path class="cls-3" d="M80,122.93H74.69V119.5H90.22v3.43H84.81v13.9H80Z"/><path class="cls-3" d="M95.93,119.5h5.85l6.84,17.33H103.2l-1.2-3.48H95.06l-1.17,3.48h-4.8Zm5,10.66-2.24-7.27h-.07l-2.4,7.27Z"/><polygon points="54.09 91.83 54.09 37.83 36.09 37.83 36.09 91.83 36.09 109.83 54.09 109.83 108.09 109.83 108.09 91.83 54.09 91.83"/><path class="cls-2" d="M117.09,28.83v117h-90v-117h90m8-8h-106v133h106v-133Z"/><polygon class="cls-3" points="92.47 53.46 92.47 37.83 78.72 37.83 78.72 53.46 63.09 53.46 63.09 67.21 78.72 67.21 78.72 82.83 92.47 82.83 92.47 67.21 108.09 67.21 108.09 53.46 92.47 53.46"/></g></g></svg>