<svg xmlns="http://www.w3.org/2000/svg" viewBox="0 0 279 279"><defs><style>.cls-1{fill:none;}.cls-2{fill:#7ac943;}.cls-3{fill:red;}</style></defs><title>Asset 35</title><g id="Layer_2" data-name="Layer 2"><g id="Layer_1-2" data-name="Layer 1"><rect class="cls-1" width="279" height="279"/></g><g id="Layer_7" data-name="Layer 7"><path class="cls-2" d="M20.75,183.82h13v3.31H25.5v3.6h7.78V194H25.5v3.7H34v3.36H20.75Z"/><path class="cls-2" d="M40.93,195.58c0,.69.08,2.69,2.93,2.69.41,0,2.57,0,2.57-2,0-.82-.33-1.37-1.49-1.68l-4.25-1.11c-1.2-.31-4.29-1.12-4.29-4.75,0-2.81,2.11-5.42,7.29-5.42,6.77,0,7.06,3.67,7.09,5.52H45.9a2.09,2.09,0,0,0-2.28-2.4c-1.39,0-2.28.79-2.28,1.82,0,1.27,1.06,1.59,1.75,1.78l3.24.84c2.31.6,5.05,1.32,5.05,5,0,3.86-3.32,5.59-7.66,5.59-1.8,0-4.71-.29-6.29-2.06a5.65,5.65,0,0,1-1.32-3.84Z"/><path class="cls-2" d="M57.47,187.2H52.19v-3.43H67.72v3.43h-5.4v13.9H57.47Z"/><path class="cls-2" d="M69.52,183.77h8c3.12,0,4.3.19,5.33,1.25a4.4,4.4,0,0,1,1.2,3.36,3.32,3.32,0,0,1-1.58,3.21,6.32,6.32,0,0,1-2.64.89v.1c3.36.09,3.55,1.58,3.93,4.25a27.89,27.89,0,0,0,.82,4.27H79.38a27.73,27.73,0,0,1-.57-3.91c-.22-2.09-.29-2.86-2.45-2.86h-2v6.77H69.52Zm4.82,7.44h1.8a6.75,6.75,0,0,0,2-.14,2,2,0,0,0,1.28-2c0-2.14-1.88-2.14-3.27-2.14h-1.8Z"/><path class="cls-2" d="M91.86,183.77v10.3a4.72,4.72,0,0,0,.55,2.61,3.49,3.49,0,0,0,3,1.42c3,0,3.45-2.47,3.45-4.2V183.77h4.68v10c0,1.92-.26,4-1.34,5.28-1.68,2.07-4.78,2.47-7,2.47-8.19,0-8.21-5.08-8.21-7.92l0-9.86Z"/><path class="cls-2" d="M110.8,187.2h-5.28v-3.43h15.53v3.43h-5.4v13.9H110.8Z"/><path class="cls-2" d="M127.86,183.77v10.3a4.72,4.72,0,0,0,.55,2.61,3.49,3.49,0,0,0,3,1.42c3,0,3.45-2.47,3.45-4.2V183.77h4.68v10c0,1.92-.26,4-1.34,5.28-1.68,2.07-4.78,2.47-7,2.47-8.19,0-8.21-5.08-8.21-7.92l0-9.86Z"/><path class="cls-2" d="M142.84,183.77h8c3.12,0,4.3.19,5.33,1.25a4.4,4.4,0,0,1,1.2,3.36,3.34,3.34,0,0,1-1.58,3.21,6.32,6.32,0,0,1-2.64.89v.1c3.36.09,3.55,1.58,3.93,4.25a27.89,27.89,0,0,0,.82,4.27H152.7a26.34,26.34,0,0,1-.57-3.91c-.22-2.09-.29-2.86-2.45-2.86h-2v6.77h-4.82Zm4.82,7.44h1.8a6.75,6.75,0,0,0,2-.14,2,2,0,0,0,1.28-2c0-2.14-1.88-2.14-3.27-2.14h-1.8Z"/><path class="cls-2" d="M165.64,183.77h5.85l6.84,17.33h-5.42l-1.2-3.48h-6.94l-1.17,3.48h-4.8Zm5,10.66-2.23-7.28h-.07l-2.4,7.28Z"/><path class="cls-2" d="M20.65,212.57H25.5v6.77h5.79v-6.77h4.87V229.9H31.29v-7H25.48v7H20.65Z"/><path class="cls-2" d="M41.1,214.49c2.19-2.21,5.5-2.4,6.77-2.4,6.91,0,8.79,5,8.79,9.19,0,6.91-4.9,9-9,9-4.61,0-8.9-2.55-8.9-9C38.73,220.15,38.92,216.7,41.1,214.49Zm6.58,12.29c3.43,0,4-3.17,4-5.57a7.17,7.17,0,0,0-1.11-4.39,3.39,3.39,0,0,0-2.88-1.25c-3.17,0-4,2.74-4,5.71C43.67,224,44.49,226.78,47.68,226.78Z"/><path class="cls-2" d="M59.32,212.57h8c3.13,0,4.3.19,5.33,1.25a4.41,4.41,0,0,1,1.2,3.36,3.32,3.32,0,0,1-1.58,3.21,6.32,6.32,0,0,1-2.64.89v.1c3.36.09,3.55,1.58,3.93,4.25a28.12,28.12,0,0,0,.82,4.27H69.18a27.73,27.73,0,0,1-.57-3.91c-.22-2.09-.29-2.86-2.45-2.86h-2v6.77H59.32ZM64.14,220h1.8a6.75,6.75,0,0,0,2-.14,2,2,0,0,0,1.28-2c0-2.14-1.88-2.14-3.27-2.14h-1.8Z"/><path class="cls-2" d="M76.53,212.57h4.94V229.9H76.53Z"/><path class="cls-2" d="M83.48,226.08,92.13,216H84v-3.33H98.08v3.69l-8.93,10.23h9.12v3.36H83.48Z"/><path class="cls-2" d="M102.42,214.49c2.19-2.21,5.5-2.4,6.77-2.4,6.91,0,8.79,5,8.79,9.19,0,6.91-4.9,9-9,9-4.61,0-8.9-2.55-8.9-9C100.05,220.15,100.24,216.7,102.42,214.49ZM109,226.78c3.43,0,4-3.17,4-5.57a7.17,7.17,0,0,0-1.11-4.39,3.39,3.39,0,0,0-2.88-1.25c-3.17,0-4,2.74-4,5.71C105,224,105.81,226.78,109,226.78Z"/><path class="cls-2" d="M120.68,212.57h6.63l5.86,12.91,0-12.91h4.2V229.9h-6.48l-6-13.47,0,13.47h-4.23Z"/><path class="cls-2" d="M144.59,216h-5.28v-3.43h15.53V216h-5.4v13.9h-4.85Z"/><path class="cls-2" d="M159.35,212.57h5.86l6.84,17.33h-5.43l-1.2-3.48h-6.94l-1.17,3.48h-4.8Zm5,10.66L162.09,216H162l-2.4,7.28Z"/><path class="cls-2" d="M173.92,212.57h4.87v13.92h7.77v3.41H173.92Z"/><path class="cls-2" d="M35.52,119.5h5.3l3.94,12.56,4.15-12.56h4.78l-6.31,17.33H41.64Z"/><path class="cls-2" d="M57.55,121.42c2.18-2.21,5.5-2.4,6.77-2.4,6.91,0,8.78,5,8.78,9.19,0,6.92-4.89,9-9,9-4.61,0-8.91-2.54-8.91-9C55.17,127.09,55.37,123.63,57.55,121.42Zm6.58,12.29c3.43,0,4-3.17,4-5.57A7.2,7.2,0,0,0,67,123.75a3.39,3.39,0,0,0-2.88-1.25c-3.17,0-4,2.74-4,5.71C60.12,131,60.94,133.71,64.13,133.71Z"/><path class="cls-2" d="M80,122.93H74.69V119.5H90.22v3.43H84.81v13.9H80Z"/><path class="cls-2" d="M95.93,119.5h5.85l6.84,17.33H103.2l-1.2-3.48H95.06l-1.17,3.48h-4.8Zm5,10.66-2.24-7.27h-.07l-2.4,7.27Z"/><polygon points="54.09 91.83 54.09 37.83 36.09 37.83 36.09 91.83 36.09 109.83 54.09 109.83 108.09 109.83 108.09 91.83 54.09 91.83"/><path class="cls-2" d="M117.09,28.83v117h-90v-117h90m8-8h-106v133h106v-133Z"/><path class="cls-3" d="M63.09,37.83"/><rect class="cls-2" x="63.09" y="37.83" width="45" height="18"/><rect class="cls-2" x="63.09" y="64.83" width="45" height="18"/></g></g></svg>