<svg xmlns="http://www.w3.org/2000/svg" viewBox="0 0 279 279"><defs><style>.cls-1{fill:none;}.cls-2{fill:#ed1e78;}</style></defs><title>Asset 41</title><g id="Layer_2" data-name="Layer 2"><g id="Layer_1-2" data-name="Layer 1"><rect class="cls-1" width="279" height="279"/></g><g id="Layer_10" data-name="Layer 10"><path class="cls-2" d="M20.53,183.79h4.95v17.33H20.53Z"/><path class="cls-2" d="M28.69,183.79h6.63l5.85,12.92,0-12.92h4.2v17.33H38.85l-6-13.46.05,13.46H28.69Z"/><path class="cls-2" d="M59.7,189.24a2.57,2.57,0,0,0-2.81-2.4c-2.9,0-3.79,2.66-3.79,5.83,0,1.06,0,5.43,3.75,5.43a2.61,2.61,0,0,0,2.9-2.52h5c0,5.42-5.54,5.88-7.8,5.88-1.68,0-4.65-.29-6.57-2.31a9.54,9.54,0,0,1-2.24-6.57,9.73,9.73,0,0,1,2.19-6.6c1.77-2,4-2.55,6.57-2.55,2.81,0,5,.67,6.32,2.11a5.34,5.34,0,0,1,1.44,3.7Z"/><path class="cls-2" d="M67.36,183.79h4.87v13.92H80v3.41H67.36Z"/><path class="cls-2" d="M87,183.79v10.3a4.73,4.73,0,0,0,.55,2.62,3.47,3.47,0,0,0,2.95,1.41c3.05,0,3.46-2.47,3.46-4.2V183.79h4.68v10c0,1.92-.26,4-1.34,5.28-1.68,2.06-4.78,2.47-7,2.47-8.19,0-8.21-5.09-8.21-7.92l0-9.87Z"/><path class="cls-2" d="M106.24,195.6c0,.7.07,2.69,2.93,2.69.4,0,2.56,0,2.56-2,0-.81-.33-1.37-1.48-1.68l-4.25-1.1c-1.2-.31-4.3-1.13-4.3-4.75,0-2.81,2.11-5.43,7.3-5.43,6.77,0,7.06,3.67,7.08,5.52h-4.87a2.09,2.09,0,0,0-2.28-2.4c-1.4,0-2.28.79-2.28,1.82,0,1.28,1,1.59,1.75,1.78l3.24.84c2.3.6,5,1.32,5,5,0,3.87-3.31,5.6-7.66,5.6-1.8,0-4.7-.29-6.29-2.07a5.69,5.69,0,0,1-1.32-3.84Z"/><path class="cls-2" d="M124.29,183.79h5.85L137,201.12h-5.42l-1.2-3.48h-6.94l-1.18,3.48h-4.8Zm-2.67-1.89a3.89,3.89,0,0,1,1-2.43,3.35,3.35,0,0,1,2.5-1.08,5.89,5.89,0,0,1,1.75.34l1.85.53a2.5,2.5,0,0,0,.74.14c.7,0,.77-.7.79-.94h2a3.59,3.59,0,0,1-3.36,3.46,4.41,4.41,0,0,1-1.2-.22l-2-.57a3.33,3.33,0,0,0-1-.19,1.14,1.14,0,0,0-1.16,1Zm7.63,12.55L127,187.18H127l-2.4,7.27Z"/><path class="cls-2" d="M139.62,185.71c2.19-2.21,5.5-2.4,6.77-2.4,6.91,0,8.78,5,8.78,9.19,0,6.92-4.89,9-9,9-4.61,0-8.91-2.54-8.91-9C137.24,191.38,137.44,187.92,139.62,185.71ZM146.2,198c3.43,0,4-3.17,4-5.57A7.2,7.2,0,0,0,149.1,188a3.39,3.39,0,0,0-2.88-1.25c-3.17,0-4,2.74-4,5.71C142.19,195.27,143,198,146.2,198Z"/><path class="cls-2" d="M35.52,119.5h5.3l3.94,12.56,4.15-12.56h4.78l-6.31,17.33H41.64Z"/><path class="cls-2" d="M57.55,121.42c2.18-2.21,5.5-2.4,6.77-2.4,6.91,0,8.78,5,8.78,9.19,0,6.92-4.89,9-9,9-4.61,0-8.91-2.54-8.91-9C55.17,127.09,55.37,123.63,57.55,121.42Zm6.58,12.29c3.43,0,4-3.17,4-5.57A7.2,7.2,0,0,0,67,123.75a3.39,3.39,0,0,0-2.88-1.25c-3.17,0-4,2.74-4,5.71C60.12,131,60.94,133.71,64.13,133.71Z"/><path class="cls-2" d="M80,122.93H74.69V119.5H90.22v3.43H84.81v13.9H80Z"/><path class="cls-2" d="M95.93,119.5h5.85l6.84,17.33H103.2l-1.2-3.48H95.06l-1.17,3.48h-4.8Zm5,10.66-2.24-7.27h-.07l-2.4,7.27Z"/><polygon points="54.09 91.83 54.09 37.83 36.09 37.83 36.09 91.83 36.09 109.83 54.09 109.83 108.09 109.83 108.09 91.83 54.09 91.83"/><path class="cls-2" d="M117.09,28.83v117h-90v-117h90m8-8h-106v133h106v-133Z"/><path class="cls-2" d="M85.59,48.32l.09-.13a14.22,14.22,0,0,1,3.42-3.87A11.85,11.85,0,0,1,103.44,44a11.09,11.09,0,0,1,4.27,6.33,13.25,13.25,0,0,1,.36,4.11c0,.76-.08,1.52-.17,2.28a16.67,16.67,0,0,1-2.62,7.43,26.84,26.84,0,0,1-3.39,4.06c-1.52,1.53-3.14,3-4.77,4.37-2.9,2.52-5.82,5-8.65,7.62L85.7,82.74l-.1.09-.08-.06c-3.16-3-6.45-5.9-9.75-8.76-1.93-1.66-3.87-3.32-5.7-5.08a30.34,30.34,0,0,1-3.59-4,16.47,16.47,0,0,1-3-6.75,23.63,23.63,0,0,1-.4-5.37,11.36,11.36,0,0,1,2.73-7.07,11.15,11.15,0,0,1,5.53-3.54,11.92,11.92,0,0,1,3.94-.45,11.7,11.7,0,0,1,6.45,2.33,14.29,14.29,0,0,1,3.75,4.11Z"/></g></g></svg>