<svg xmlns="http://www.w3.org/2000/svg" viewBox="0 0 279 279"><defs><style>.cls-1{fill:none;}.cls-2{fill:#f15a24;}.cls-3{fill:#ed1c24;}</style></defs><title>Asset 38</title><g id="Layer_2" data-name="Layer 2"><g id="Layer_1-2" data-name="Layer 1"><rect class="cls-1" width="279" height="279"/></g><g id="Layer_4" data-name="Layer 4"><path class="cls-2" d="M26.13,183.77H32l6.84,17.33H33.4l-1.2-3.48H25.26l-1.17,3.48h-4.8Zm5,10.66-2.24-7.28h-.07l-2.4,7.28Z"/><path class="cls-2" d="M50.75,189.22a2.57,2.57,0,0,0-2.81-2.4c-2.9,0-3.79,2.66-3.79,5.83,0,1.06,0,5.42,3.75,5.42a2.6,2.6,0,0,0,2.9-2.52h5c0,5.43-5.54,5.88-7.8,5.88-1.68,0-4.66-.28-6.58-2.3a10.93,10.93,0,0,1,0-13.18c1.77-2,4.05-2.54,6.57-2.54,2.81,0,5,.67,6.32,2.11a5.34,5.34,0,0,1,1.44,3.7Z"/><path class="cls-2" d="M74.46,195.55c0,4.9-4.46,5.81-7.63,5.88l-.62,1.16a4.13,4.13,0,0,1,.81-.08c1.66,0,2.36.89,2.36,1.78s-.68,2-3.24,2a7.12,7.12,0,0,1-2.74-.48l.31-1.08a5.09,5.09,0,0,0,2.23.53c.31,0,1.28,0,1.28-.94,0-.62-.65-.89-1.21-.89a2.07,2.07,0,0,0-.91.22l-.55-.48,1.08-1.82a9.31,9.31,0,0,1-4.25-1.23c-3-1.87-3.53-5.35-3.53-7.61A9.74,9.74,0,0,1,60,186c1.77-2,4.05-2.54,6.57-2.54,2.81,0,5,.67,6.32,2.11a5.34,5.34,0,0,1,1.44,3.7h-5a2.57,2.57,0,0,0-2.81-2.4c-2.9,0-3.79,2.66-3.79,5.83,0,1.06,0,5.42,3.75,5.42a2.6,2.6,0,0,0,2.9-2.52Z"/><path class="cls-2" d="M82,183.77h5.86l6.84,17.33H89.3l-1.2-3.48H81.16L80,201.1h-4.8Zm-2.66-1.9a3.89,3.89,0,0,1,1-2.42,3.34,3.34,0,0,1,2.49-1.08,5.59,5.59,0,0,1,1.76.34l1.84.52a2.36,2.36,0,0,0,.75.15c.69,0,.77-.7.79-.94h1.94a3.59,3.59,0,0,1-3.36,3.46,4.56,4.56,0,0,1-1.2-.22l-2-.58a3.29,3.29,0,0,0-1-.19,1.14,1.14,0,0,0-1.15,1ZM87,194.43l-2.23-7.28h-.07l-2.4,7.28Z"/><path class="cls-2" d="M97.36,185.69c2.18-2.21,5.49-2.4,6.77-2.4,6.91,0,8.78,5,8.78,9.19,0,6.91-4.89,9-9,9-4.61,0-8.91-2.55-8.91-9C95,191.35,95.17,187.9,97.36,185.69ZM103.94,198c3.43,0,4-3.17,4-5.57a7.21,7.21,0,0,0-1.1-4.39,3.4,3.4,0,0,0-2.88-1.25c-3.17,0-4,2.74-4,5.71C99.93,195.24,100.74,198,103.94,198Z"/><path class="cls-2" d="M20.53,212.57h4.95V229.9H20.53Z"/><path class="cls-2" d="M28.69,212.57h6.63l5.86,12.91,0-12.91h4.2V229.9H38.85l-6-13.47.05,13.47H28.69Z"/><path class="cls-2" d="M52.6,216H47.32v-3.43H62.85V216h-5.4v13.9H52.6Z"/><path class="cls-2" d="M64.74,212.62h13v3.31H69.49v3.6h7.78v3.31H69.49v3.7h8.45v3.36H64.74Z"/><path class="cls-2" d="M80.65,212.57h8c3.12,0,4.3.19,5.33,1.25a4.41,4.41,0,0,1,1.2,3.36,3.33,3.33,0,0,1-1.59,3.21,6.27,6.27,0,0,1-2.64.89v.1c3.36.09,3.56,1.58,3.94,4.25a28.12,28.12,0,0,0,.82,4.27H90.52a27.59,27.59,0,0,1-.58-3.91c-.21-2.09-.29-2.86-2.45-2.86h-2v6.77H80.65ZM85.48,220h1.8a6.82,6.82,0,0,0,2-.14,2,2,0,0,0,1.27-2c0-2.14-1.87-2.14-3.26-2.14h-1.8Z"/><path class="cls-2" d="M20.75,241.42h13v3.31H25.5v3.6h7.78v3.31H25.5v3.7H34v3.36H20.75Z"/><path class="cls-2" d="M40.93,253.18c0,.69.08,2.69,2.93,2.69.41,0,2.57,0,2.57-2,0-.82-.33-1.37-1.49-1.68l-4.25-1.11c-1.2-.31-4.29-1.12-4.29-4.75,0-2.81,2.11-5.42,7.29-5.42,6.77,0,7.06,3.67,7.09,5.52H45.9a2.09,2.09,0,0,0-2.28-2.4c-1.39,0-2.28.79-2.28,1.82,0,1.27,1.06,1.58,1.75,1.78l3.24.84c2.31.6,5.05,1.32,5.05,5,0,3.86-3.32,5.59-7.66,5.59-1.8,0-4.71-.29-6.29-2.06a5.65,5.65,0,0,1-1.32-3.84Z"/><path class="cls-2" d="M65.06,246.82a2.58,2.58,0,0,0-2.81-2.4c-2.91,0-3.8,2.66-3.8,5.83,0,1.06,0,5.42,3.75,5.42a2.6,2.6,0,0,0,2.9-2.52h5c0,5.43-5.55,5.88-7.81,5.88-1.68,0-4.65-.28-6.57-2.3a9.56,9.56,0,0,1-2.23-6.58,9.73,9.73,0,0,1,2.18-6.6c1.78-2,4.06-2.54,6.58-2.54,2.81,0,4.94.67,6.31,2.11a5.29,5.29,0,0,1,1.44,3.7Z"/><path class="cls-2" d="M74,243.29c2.18-2.21,5.49-2.4,6.77-2.4,6.91,0,8.78,5,8.78,9.19,0,6.91-4.9,9-9,9-4.61,0-8.91-2.55-8.91-9C71.58,249,71.77,245.5,74,243.29Zm6.57,12.29c3.44,0,4-3.17,4-5.57a7.16,7.16,0,0,0-1.1-4.39,3.41,3.41,0,0,0-2.88-1.25c-3.17,0-4,2.74-4,5.71C76.53,252.84,77.34,255.58,80.53,255.58Z"/><path class="cls-2" d="M92.22,241.37h4.87v13.92h7.78v3.41H92.22Z"/><path class="cls-2" d="M112.31,241.37h5.86L125,258.7h-5.43l-1.2-3.48h-6.93l-1.18,3.48h-4.8Zm5,10.66-2.23-7.28H115L112.57,252Z"/><path class="cls-2" d="M126.83,241.37h8c3.12,0,4.29.19,5.32,1.25a4.4,4.4,0,0,1,1.2,3.36,3.32,3.32,0,0,1-1.58,3.21,6.27,6.27,0,0,1-2.64.89v.1c3.36.09,3.55,1.58,3.94,4.25a26.89,26.89,0,0,0,.81,4.27h-5.21a29.28,29.28,0,0,1-.57-3.91c-.22-2.09-.29-2.86-2.45-2.86h-2v6.77h-4.82Zm4.82,7.44h1.8a6.87,6.87,0,0,0,2-.14,2,2,0,0,0,1.27-2c0-2.14-1.87-2.14-3.27-2.14h-1.8Z"/><path class="cls-3" d="M35.51,119.74h5.3l3.94,12.55,4.15-12.55h4.78l-6.32,17.33H41.63Z"/><path class="cls-3" d="M57.54,121.66c2.18-2.21,5.5-2.4,6.77-2.4,6.91,0,8.78,5,8.78,9.19,0,6.91-4.89,9-9,9-4.61,0-8.91-2.54-8.91-9C55.16,127.32,55.36,123.87,57.54,121.66ZM64.12,134c3.43,0,4-3.17,4-5.57A7.16,7.16,0,0,0,67,124a3.4,3.4,0,0,0-2.88-1.25c-3.17,0-4,2.73-4,5.71C60.11,131.21,60.92,134,64.12,134Z"/><path class="cls-3" d="M80,123.17H74.68v-3.43H90.2v3.43H84.8v13.9H80Z"/><path class="cls-3" d="M95.92,119.74h5.85l6.84,17.33h-5.42l-1.2-3.48H95.05l-1.17,3.48H89.07Zm5,10.65-2.23-7.27h-.07l-2.4,7.27Z"/><polygon points="54.09 91.83 54.09 37.83 36.09 37.83 36.09 91.83 36.09 109.83 54.09 109.83 108.09 109.83 108.09 91.83 54.09 91.83"/><path class="cls-2" d="M117.09,28.83v117h-90v-117h90m8-8h-106v133h106v-133Z"/><path class="cls-3" d="M90.42,73.19a17.68,17.68,0,0,1,0-35.36v6.43a11.25,11.25,0,1,0,0,22.5Z"/><path class="cls-2" d="M80.77,82.83A17.68,17.68,0,1,1,98.45,65.15,17.7,17.7,0,0,1,80.77,82.83Zm0-28.93A11.25,11.25,0,1,0,92,65.15,11.27,11.27,0,0,0,80.77,53.9Z"/><path class="cls-3" d="M90.42,73.19V66.76a11.25,11.25,0,0,0,0-22.5V37.83a17.68,17.68,0,0,1,0,35.36Z"/><path class="cls-3" d="M90.42,73.18A17.59,17.59,0,0,1,77.92,68l4.54-4.54a11.27,11.27,0,0,0,15.91,0L102.92,68A17.63,17.63,0,0,1,90.42,73.18Z"/></g></g></svg>