<svg xmlns="http://www.w3.org/2000/svg" viewBox="0 0 279 279"><defs><style>.cls-1{fill:none;}.cls-2{fill:#006837;}.cls-3{fill:#fff;}</style></defs><title>Asset 39</title><g id="Layer_2" data-name="Layer 2"><g id="Layer_1-2" data-name="Layer 1"><rect class="cls-1" width="279" height="279"/></g><g id="Layer_3" data-name="Layer 3"><path class="cls-2" d="M20.85,183.77h7.32c2.06,0,4.8.22,6.6,1.44C37.34,187,38,189.82,38,192.39c0,3.84-1.22,6.67-4.73,8a14.87,14.87,0,0,1-5.09.67H20.85Zm4.92,14h2.06c3.19,0,5.23-1.39,5.23-5.42,0-5.26-3.93-5.26-5.4-5.26l-1.89,0Z"/><path class="cls-2" d="M40.74,183.82h13v3.31H45.49v3.6h7.78V194H45.49v3.7h8.45v3.36H40.74Z"/><path class="cls-2" d="M60.93,195.58c0,.69.07,2.69,2.92,2.69.41,0,2.57,0,2.57-2,0-.82-.33-1.37-1.49-1.68l-4.24-1.11c-1.2-.31-4.3-1.12-4.3-4.75,0-2.81,2.11-5.42,7.3-5.42,6.76,0,7,3.67,7.08,5.52H65.89a2.09,2.09,0,0,0-2.28-2.4c-1.39,0-2.28.79-2.28,1.82,0,1.27,1.06,1.59,1.76,1.78l3.24.84c2.3.6,5,1.32,5,5,0,3.86-3.32,5.59-7.66,5.59-1.8,0-4.7-.29-6.29-2.06a5.71,5.71,0,0,1-1.32-3.84Z"/><path class="cls-2" d="M74.17,183.77h8a8.33,8.33,0,0,1,4.51.89,5.66,5.66,0,0,1-.16,9.43,10,10,0,0,1-4.37.74l-3.12,0v6.24H74.17ZM79,191.55h2.13c1.18,0,3.08,0,3.08-2.33,0-2.11-1.71-2.23-3.1-2.23H79Z"/><path class="cls-2" d="M93.08,185.69c2.19-2.21,5.5-2.4,6.77-2.4,6.92,0,8.79,5,8.79,9.19,0,6.91-4.9,9-9,9-4.61,0-8.9-2.55-8.9-9C90.71,191.35,90.9,187.9,93.08,185.69ZM99.66,198c3.43,0,4-3.17,4-5.57a7.2,7.2,0,0,0-1.11-4.39,3.38,3.38,0,0,0-2.87-1.25c-3.17,0-4,2.74-4,5.71C95.65,195.24,96.47,198,99.66,198Z"/><path class="cls-2" d="M111.3,183.77h8c3.12,0,4.29.19,5.33,1.25a4.44,4.44,0,0,1,1.2,3.36,3.33,3.33,0,0,1-1.59,3.21,6.27,6.27,0,0,1-2.64.89v.1c3.36.09,3.55,1.58,3.94,4.25a29.1,29.1,0,0,0,.81,4.27h-5.21a29.28,29.28,0,0,1-.57-3.91c-.22-2.09-.29-2.86-2.45-2.86h-2v6.77H111.3Zm4.83,7.44h1.79a6.87,6.87,0,0,0,2-.14,2,2,0,0,0,1.27-2c0-2.14-1.87-2.14-3.27-2.14h-1.79Z"/><path class="cls-2" d="M132.59,187.2h-5.28v-3.43h15.53v3.43h-5.4v13.9h-4.85Z"/><path class="cls-2" d="M145.45,185.69c2.19-2.21,5.5-2.4,6.77-2.4,6.91,0,8.79,5,8.79,9.19,0,6.91-4.9,9-9,9-4.61,0-8.9-2.55-8.9-9C143.08,191.35,143.27,187.9,145.45,185.69ZM152,198c3.43,0,4-3.17,4-5.57a7.2,7.2,0,0,0-1.11-4.39,3.39,3.39,0,0,0-2.88-1.25c-3.16,0-4,2.74-4,5.71C148,195.24,148.84,198,152,198Z"/><path class="cls-2" d="M35.52,119.5h5.3l3.94,12.56,4.15-12.56h4.78l-6.31,17.33H41.64Z"/><path class="cls-2" d="M57.55,121.42c2.18-2.21,5.5-2.4,6.77-2.4,6.91,0,8.78,5,8.78,9.19,0,6.92-4.89,9-9,9-4.61,0-8.91-2.54-8.91-9C55.17,127.09,55.37,123.63,57.55,121.42Zm6.58,12.29c3.43,0,4-3.17,4-5.57A7.2,7.2,0,0,0,67,123.75a3.39,3.39,0,0,0-2.88-1.25c-3.17,0-4,2.74-4,5.71C60.12,131,60.94,133.71,64.13,133.71Z"/><path class="cls-2" d="M80,122.93H74.69V119.5H90.22v3.43H84.81v13.9H80Z"/><path class="cls-2" d="M95.93,119.5h5.85l6.84,17.33H103.2l-1.2-3.48H95.06l-1.17,3.48h-4.8Zm5,10.66-2.24-7.27h-.07l-2.4,7.27Z"/><polygon points="54.09 91.83 54.09 37.83 36.09 37.83 36.09 91.83 36.09 109.83 54.09 109.83 108.09 109.83 108.09 91.83 54.09 91.83"/><path class="cls-2" d="M117.09,28.83v117h-90v-117h90m8-8h-106v133h106v-133Z"/><rect class="cls-2" x="63.43" y="37.83" width="44.67" height="44.67"/><path class="cls-3" d="M98.11,58.92a12.41,12.41,0,0,0-24.69,0H62.84v2.49H73.42a12.41,12.41,0,0,0,24.69,0h10.65V58.92ZM85.76,50.24a9.94,9.94,0,0,1,9.84,8.68H75.92A9.94,9.94,0,0,1,85.76,50.24Zm0,19.85a9.94,9.94,0,0,1-9.84-8.68H95.6A9.94,9.94,0,0,1,85.76,70.09Z"/></g></g></svg>