<svg xmlns="http://www.w3.org/2000/svg" viewBox="0 0 1092 1092"><defs><style>.cls-1{fill:#fff;}.cls-2{fill:#ff4200;}</style></defs><title>Asset 1</title><g id="Layer_2" data-name="Layer 2"><g id="Layer_2-2" data-name="Layer 2"><rect class="cls-1" width="1092" height="1092"/></g><g id="Layer_21" data-name="Layer 21"><path class="cls-2" d="M559.29,356.33a4.61,4.61,0,0,1,3.93,3.19L637.3,534.88c1.11,2.7.51,5.39-2.19,5.39H595.38a4.22,4.22,0,0,1-3.76-2.45L578.23,501a3.18,3.18,0,0,0-2.91-2H562.08c-1,0-1.74,1-1.64,2.45l3.66,36.05a2.52,2.52,0,0,1-2.57,2.7H521.06a4,4,0,0,1-3.91-4.17l-8-176.83c0-1.23.79-2.94,2.26-2.94Zm-.23,92.47c-1.28-3.43-2.28-5.64-3-5.64s-.83,1.72-.41,5.64l2.19,23.3a2.31,2.31,0,0,0,2,2.45c7.85,0,8.58,0,7.83-2.21Z"/><path class="cls-2" d="M661.75,540.27a4.69,4.69,0,0,1-4.23-3.43L628,408.81a4,4,0,0,0-3.87-2.94H599.57c-1.47,0-3.64-2-4-3.43l-10.08-43.66c-.34-1.47.17-2.45,1.64-2.45h105a3.82,3.82,0,0,1,3.87,2.94l10,43.17a2.59,2.59,0,0,1-2.64,3.43H678.79c-1.72,0-2.66,1.23-2.15,3.43l29.5,127.78a2.54,2.54,0,0,1-2.7,3.19Z"/><path class="cls-2" d="M708,359.52a2.61,2.61,0,0,1,2.45-3.19h87.07a3.36,3.36,0,0,1,3.08,2.7l10.19,44.15a2,2,0,0,1-2.13,2.45h-41a1.3,1.3,0,0,0-1.32,1.72l3.17,13.74a2.48,2.48,0,0,0,2.11,1.72H791a2.23,2.23,0,0,1,2.11,1.72l10.31,44.64a1.66,1.66,0,0,1-1.45,2.21H782.11c-1,0-1.55.74-1.27,2l3.34,14.47a2.2,2.2,0,0,0,1.87,1.72h42.43a3.35,3.35,0,0,1,3.27,2.45l10.53,45.62a2.09,2.09,0,0,1-2.08,2.7H752.4a4,4,0,0,1-3.43-3.19Z"/><path class="cls-2" d="M822.33,414a3.28,3.28,0,0,1-3-2.45c-7.47-32.37,8.6-55.18,40-55.18,32.13,0,56.15,23.3,63.51,55.18,3.68,15.94-1.35,32.37-12.47,45.86-9.73,12-12.11,27.22-11.33,34.83.43,2.94-1.06,3.92-2.53,3.92H865.82c-1.72,0-3.94-2.21-4.4-4.17-4.47-19.38-5.1-38,2.64-51.26,8.24-14.23,10.37-23.06,9-29.19-.91-3.92-3-6.62-5.7-6.62-3.43,0-4.79,3.68-4.81,7.85,0,2.21-1.23,3.19-3,2.94ZM908,537.58a2.09,2.09,0,0,1-2.08,2.7H876c-1.23,0-2.79-1.47-3.13-2.94l-7-30.41a2.36,2.36,0,0,1,1.83-2.7h30.17a2.94,2.94,0,0,1,2.9,2Z"/><path class="cls-2" d="M234,649.09c.62-2.7,3.49-3.43,5-3.43h49.79a2.45,2.45,0,0,1,2.51,2.94l-6.51,28.2c-.23,1-.7,2-1.43,2h-4.17c-1.47,0-2,1.23-2.4,2.94-5.49,23.79-27.3,56.65-65.07,56.65-36.05,0-49.3-25.51-36.72-80l6.63-28.7c10.53-45.62,32.63-76.52,73.83-76.52,9.57,0,51,0,35.16,68.67-.4,1.72-1.47,3.19-3.19,3.19l-44.85,2c-1.72,0-3-1.72-2.47-4.17l3.23-14c.51-2.21-1.34-2.7-3.3-2.7-2.21,0-4.32,1.72-5.23,5.64l-15.57,67.45c-1.76,7.6,0,10.79,3.15,10.79,2.7,0,5.73-1.47,7.09-7.36l.85-3.68c.17-.74.09-1.47-.64-1.47h-1.23c-.49,0-.87-.49-.64-1.47Z"/><path class="cls-2" d="M382.37,553.68c21.58,0,43.49,16.68,36.58,46.6-3.06,13.24-11.12,37.53-35.21,41l-.11.49c27.94,8.58,24.26,24.53,18.49,49.54-.68,2.94-.13,5.89,4.75,8.09a3.83,3.83,0,0,1,1.41,3.43c-7.7,33.36-32.68,35.32-40.77,35.32-17.66,0-26.6-12.26-21.28-35.32L354.94,665c1.81-7.85-.71-11.78-3.41-11.78-1.47,0-2,1.23-2.4,2.94L331,734.69a4,4,0,0,1-3.62,2.94H285.45c-1.72,0-2.66-1.23-2.21-3.19L324.3,556.63a3.71,3.71,0,0,1,3.38-2.94ZM355.19,630c-.4,1.72,0,2.21,1.21,2.21,5.88,0,7.47-6.87,10.08-18.15,1.3-5.64-1.39-8.83-3.6-8.83a2.48,2.48,0,0,0-2.47,2.21Z"/><path class="cls-2" d="M451.77,556.87a4.62,4.62,0,0,1,3.93-3.19h87.07c1.47,0,2.17,1.23,1.83,2.7L534.4,600.53a3.34,3.34,0,0,1-3.27,2.45h-41a2.23,2.23,0,0,0-2.11,1.72l-3.17,13.74a1.4,1.4,0,0,0,1.32,1.72h19.38a1.3,1.3,0,0,1,1.32,1.72L496.61,666.5a2.9,2.9,0,0,1-2.47,2.21H474.27a2.32,2.32,0,0,0-2.17,2l-3.34,14.47c-.23,1,.34,1.72,1.08,1.72h42.43a2,2,0,0,1,2.13,2.45l-10.53,45.62a3.63,3.63,0,0,1-3.32,2.7h-87.8c-1.47,0-2.36-1.47-2-3.19Z"/><path class="cls-2" d="M638.81,553.68c1.72,0,2.6,1.47,2.45,3.19l-6.88,175.36c-.13,2.7-2,5.39-4.68,5.39H590a2.4,2.4,0,0,1-2.62-2.45l3.59-36.79a1.82,1.82,0,0,0-2-2H575.69a3.55,3.55,0,0,0-2.77,2.45l-13,36.05a4.48,4.48,0,0,1-3.81,2.7H515.65c-2.21,0-3-1.72-2-4.17l73.69-176.83c.53-1.23,2.15-2.94,3.62-2.94Zm-42.93,92.47c.3-3.43.32-5.64-.42-5.64s-1.62,1.72-3,5.64l-8.57,23.3c-.53,1.23-.32,2.45.9,2.45,7.85,0,8.59,0,8.85-2.21Z"/><path class="cls-2" d="M654.06,737.63a2.69,2.69,0,0,1-2.64-3.43l29.56-128a2.34,2.34,0,0,0-2.51-2.94H653.94c-1.47,0-2.74-2-2.4-3.43l10.08-43.66a2.81,2.81,0,0,1,2.78-2.45h105c1.72,0,3,1,2.51,2.94l-10,43.17a4.46,4.46,0,0,1-4.23,3.43H733.16c-1.72,0-3.23,1.23-3.74,3.43l-29.5,127.78a4.4,4.4,0,0,1-4.17,3.19Z"/><path class="cls-2" d="M813.86,729.46l-21.92-1.23c-3.67,0-6.23-3.53-5.21-9l3.62-15.69c.28-1.23-.77-2-2-2H758.18a4.29,4.29,0,0,0-3.08,2.7l-7,30.41c-.34,1.47.55,2.94,1.77,2.94h29.92l34.41-1.58c2.35-.07,4.33-.61,4.33-3.16S816.64,729.52,813.86,729.46Z"/><path class="cls-2" d="M905.19,556l-77.4-2.27H786.44a2.66,2.66,0,0,0-2.47,2.21L758.22,690.78a2.52,2.52,0,0,0,2.08,2.7h14.61l.23,0,60.87-2c3,0,5.52-1.46,5.61-3.71.1-2.42-2.13-3.28-5.47-3.28l-33.1-2.39a5.71,5.71,0,0,1-5.51-7.19l11.18-41.52a5.71,5.71,0,0,1,5.51-4.22l57.87-2.73c3,0,5.16-.3,5.45-2.41.25-1.87-1.83-3.58-5.17-3.58l-52-2.69a5.71,5.71,0,0,1-5.51-7.19L826,569.33a7,7,0,0,1,6.18-4.74l73.61-2.23c3.34,0,5.49-.83,5.46-3.52C911.19,555.86,908.17,556,905.19,556Z"/><path class="cls-2" d="M507.53,537.58,497,492a3.35,3.35,0,0,0-3.27-2.45H451.79a2.2,2.2,0,0,1-1.87-1.72L420.2,359a3.36,3.36,0,0,0-3.07-2.7H388.6a5.73,5.73,0,0,0-1.15-.12l-58.82,3.21c-3.07.36-6.13.36-6.15,1.93,0,2.38,1.48,2.56,5.29,2.77,0,0,31.26,2.31,41.67,2.55,3.19.07,6.16,3.15,6.87,6.25L380.49,391c1,4.29-2.22,9.49-6.62,9.49,0,0-13.75,1.93-18.37,2.21-3,.18-4.75,1.06-4.69,2.5.08,1.77,2.11,2.44,5.45,2.44,0,0,17.53.85,23.32,1.69,3.4.5,6,3.66,6.71,6.77l4.17,18.06c1,4.29-2.1,9.41-6.51,9.41L285.41,446c-3,0-5.61-.1-5.7,1.73-.1,2.08,2.08,2.55,5.42,2.55l104.53,2.64c3.19,0,5.88,3.27,6.6,6.38l4.17,18.06c1,4.29-2.32,9.46-6.73,9.46L329,488.41c-3,0-6.51.48-6.44,3s2.16,2.92,5.49,2.92l71.51,1.6c3.19,0,6,3.41,6.67,6.51l4.17,18.06c1,4.29-2.16,9.23-6.56,9.23l-161.34,2.66c-1.57,0-4.54,0-4.54,2,0,2.45,2.64,2.7,4.54,2.74l175.6,3.2h87.38A2.09,2.09,0,0,0,507.53,537.58Z"/></g></g></svg>