<svg xmlns="http://www.w3.org/2000/svg" viewBox="0 0 1092 1092"><defs><style>.cls-1{fill:#fff;}.cls-2{fill:#ef626c;}</style></defs><title>Asset 2</title><g id="Layer_2" data-name="Layer 2"><g id="Layer_2-2" data-name="Layer 2"><rect class="cls-1" width="1092" height="1092"/></g><g id="Layer_22" data-name="Layer 22"><path class="cls-2" d="M346.32,390.32a5.35,5.35,0,0,1-7.2-2.25c-32.65-62.43-14.5-127.92,46-159.58,62-32.4,121.39-6.27,153.54,55.21,16.08,30.74,15.62,71.33,1.79,111.68-12,35.79-8,71-2.24,86.69,2.5,5.92.18,9.55-2.66,11L476.46,524c-3.31,1.73-8.85-.8-10.82-4.58-19.54-37.36-31.24-77-23.79-113.43,7.88-39.05,7-60.28.84-72.1-4-7.57-9.52-11.29-14.72-8.57-6.62,3.46-7.17,12.78-4.85,21.81,1.28,4.75-.57,8.12-4.13,9.38Z"/><path class="cls-2" d="M695.93,226.21c1.34-2.31,3.79-3.36,6.1-2l77.59,44.92c2.77,1.6,3.55,4.52,2.21,6.83L625.63,523.43c-1.6,2.77-6.25,4.4-8.56,3.06l-55.89-32.35c-1.85-1.07-3.28-5-2.14-8Z"/><circle class="cls-2" cx="545.94" cy="583.31" r="46.22" transform="translate(-218.78 814.63) rotate(-63.73)"/><path class="cls-2" d="M868.72,547.43a18,18,0,0,0-13-5.52H810.13A18.09,18.09,0,0,0,792,559.4,246.25,246.25,0,0,1,546,796.2h0a246.42,246.42,0,0,1-174.12-72.12c-20.66-20.66-36.57-46.73-47.3-77.49-9.53-27.32-15-58.3-16.25-92.1a18.05,18.05,0,0,0-18.12-17.42h-.36l-54,4.84a18.14,18.14,0,0,0-17.73,18.7,328,328,0,0,0,655.74,0A18,18,0,0,0,868.72,547.43Z"/></g></g></svg>