<svg xmlns="http://www.w3.org/2000/svg" viewBox="0 0 1092 1092"><defs><style>.cls-1{fill:#fff;}.cls-2{fill:#fbb315;}.cls-3{fill:none;stroke:#d6de23;stroke-linecap:round;stroke-linejoin:round;stroke-width:4px;}.cls-4{fill:#f05a28;}</style></defs><title>Asset 12</title><g id="Layer_2" data-name="Layer 2"><g id="Layer_2-2" data-name="Layer 2"><rect class="cls-1" width="1092" height="1092"/></g><g id="Layer_13" data-name="Layer 13"><path class="cls-2" d="M545.69,930a11.36,11.36,0,0,1-11.36-11.36V413a11.36,11.36,0,1,1,22.73,0V918.64A11.36,11.36,0,0,1,545.69,930Z"/><path class="cls-3" d="M682,361.85"/><path class="cls-2" d="M534.36,505a26.61,26.61,0,0,1-8.43-1.4l-104-34.68C408.49,464.45,398,449.86,398,435.71V361.86a11.31,11.31,0,0,1,1.92-6.32A32.18,32.18,0,0,1,398,344.81V180a11.36,11.36,0,1,1,22.73,0V344.81c0,4.47,4.16,10.24,8.4,11.65l104,34.67c13.42,4.47,23.94,19.06,23.94,33.21v56.81c0,8.17-3.45,15.34-9.47,19.67A22.43,22.43,0,0,1,534.36,505ZM420.7,377.59v58.12c0,4.47,4.16,10.24,8.4,11.65l104,34.68a4.22,4.22,0,0,0,1.21.24,5.13,5.13,0,0,1,0-1.12V424.35c0-4.47-4.16-10.24-8.4-11.65L421.91,378Z"/><path class="cls-2" d="M534.36,686.81a26.61,26.61,0,0,1-8.43-1.4l-104-34.68C408.49,646.26,398,631.67,398,617.52V219.81a11.36,11.36,0,1,1,22.73,0v306.8c0,4.47,4.16,10.24,8.4,11.65l104,34.68c13.42,4.47,23.94,19.06,23.94,33.21V663c0,8.17-3.45,15.34-9.47,19.67A22.43,22.43,0,0,1,534.36,686.81ZM420.7,559.39v58.12c0,4.47,4.16,10.24,8.4,11.65l104,34.68a4.22,4.22,0,0,0,1.21.24,5.13,5.13,0,0,1,0-1.12V606.16c0-4.47-4.16-10.24-8.4-11.65l-104-34.68Z"/><path class="cls-2" d="M557,505a22.43,22.43,0,0,1-13.23-4.17c-6-4.34-9.47-11.51-9.47-19.67V424.35c0-14.15,10.52-28.74,23.94-33.21l104-34.67c4.24-1.41,8.4-7.19,8.4-11.65V180a11.36,11.36,0,0,1,22.73,0V344.81a32.18,32.18,0,0,1-1.92,10.72,11.31,11.31,0,0,1,1.92,6.32v73.85c0,14.15-10.52,28.74-23.94,33.21l-104,34.68A26.75,26.75,0,0,1,557,505Zm.26-22.4h0Zm113.4-105c-.4.16-.81.31-1.22.44l-104,34.67c-4.24,1.41-8.4,7.19-8.4,11.65v56.81a4.2,4.2,0,0,0,.15,1.23,5.31,5.31,0,0,1,1.07-.35l104-34.68c4.24-1.41,8.4-7.19,8.4-11.65Z"/><path class="cls-2" d="M557,686.81a22.43,22.43,0,0,1-13.23-4.17c-6-4.34-9.47-11.51-9.47-19.67V606.16c0-14.15,10.52-28.74,23.94-33.21l104-34.68c4.24-1.41,8.4-7.19,8.4-11.65V219.81a11.36,11.36,0,0,1,22.73,0v397.7c0,14.15-10.52,28.74-23.94,33.21l-104,34.68A26.75,26.75,0,0,1,557,686.81Zm.26-22.4h0Zm113.4-105c-.4.16-.81.31-1.22.44l-104,34.68c-4.24,1.41-8.4,7.19-8.4,11.65V663a4.2,4.2,0,0,0,.15,1.23,5.3,5.3,0,0,1,1.07-.35l104-34.68c4.24-1.41,8.4-7.19,8.4-11.65Z"/><path class="cls-4" d="M500.24,924.32A11.36,11.36,0,0,1,488.87,913V742.51L461.6,763A11.37,11.37,0,0,1,448,763L420.7,742.51v79.54a11.36,11.36,0,1,1-22.73,0V719.79a11.36,11.36,0,0,1,18.18-9.09l38.63,29,38.63-29a11.36,11.36,0,0,1,18.18,9.09V913A11.36,11.36,0,0,1,500.24,924.32Z"/><path class="cls-4" d="M591.14,924.32A11.36,11.36,0,0,1,579.78,913V719.79a11.36,11.36,0,0,1,19.85-7.55l90.9,102.27a11.36,11.36,0,1,1-17,15.1l-71-79.93V913A11.36,11.36,0,0,1,591.14,924.32Z"/><path class="cls-4" d="M591.14,844.78a11.36,11.36,0,0,1-11.36-11.36c0-22.45,10.64-39.18,29.19-45.9,25.46-9.2,61.39,2.76,81.81,27.26a11.36,11.36,0,0,1-17.46,14.55c-14.2-17-40.12-26.4-56.62-20.43-9.42,3.41-14.2,11.66-14.2,24.52A11.36,11.36,0,0,1,591.14,844.78Z"/><path class="cls-4" d="M545.69,367.53a56.89,56.89,0,0,1-54.39-40.47,56.82,56.82,0,0,1-2.24-111.82,56.82,56.82,0,0,1,113.26,0,56.82,56.82,0,0,1-2.24,111.82A56.89,56.89,0,0,1,545.69,367.53ZM500.63,305a11.37,11.37,0,0,1,11.28,10,34,34,0,0,0,67.57,0,11.37,11.37,0,0,1,11.28-10l.65,0a34.09,34.09,0,0,0,0-68.18l-.64,0a11.36,11.36,0,0,1-11.28-12.77,34.09,34.09,0,1,0-67.56,0,11.36,11.36,0,0,1-11.28,12.77l-.65,0A34.09,34.09,0,0,0,500,305Zm45.45-28.37h-.78a11.38,11.38,0,0,1,0-22.76h.79a11.38,11.38,0,0,1,0,22.76Z"/></g></g></svg>