<svg xmlns="http://www.w3.org/2000/svg" viewBox="0 0 1092 1092"><defs><style>.cls-1{fill:#fff;}.cls-2{fill:#8ba63c;}.cls-3{fill:#ef5123;}</style></defs><title>Asset 22</title><g id="Layer_2" data-name="Layer 2"><g id="Layer_2-2" data-name="Layer 2"><rect class="cls-1" width="1092" height="1092"/></g><g id="Layer_14" data-name="Layer 14"><path id="_Path_" data-name="&lt;Path&gt;" class="cls-2" d="M333.33,546A106.33,106.33,0,0,0,439.67,439.67H333.33Z"/><path id="_Path_2" data-name="&lt;Path&gt;" class="cls-3" d="M439.67,546A106.33,106.33,0,0,0,546,439.67H439.67Z"/><path id="_Path_3" data-name="&lt;Path&gt;" class="cls-2" d="M439.67,439.67A106.33,106.33,0,0,0,546,333.33H439.67Z"/><path id="_Path_4" data-name="&lt;Path&gt;" class="cls-2" d="M546,333.33A106.33,106.33,0,0,0,652.33,439.67V333.33Z"/><path id="_Path_5" data-name="&lt;Path&gt;" class="cls-2" d="M652.33,439.67A106.33,106.33,0,0,0,758.67,546V439.67Z"/><path id="_Path_6" data-name="&lt;Path&gt;" class="cls-3" d="M546,439.67A106.33,106.33,0,0,0,652.33,546V439.67Z"/><path id="_Path_7" data-name="&lt;Path&gt;" class="cls-2" d="M758.67,546A106.33,106.33,0,0,0,652.33,652.33H758.67Z"/><path id="_Path_8" data-name="&lt;Path&gt;" class="cls-3" d="M652.33,546A106.33,106.33,0,0,0,546,652.33H652.33Z"/><path id="_Path_9" data-name="&lt;Path&gt;" class="cls-2" d="M652.33,652.33A106.33,106.33,0,0,0,546,758.67H652.33Z"/><path class="cls-3" d="M864,546A106.33,106.33,0,0,0,757.67,439.67V652.33A106.33,106.33,0,0,0,864,546Z"/><path class="cls-3" d="M546.17,227.67A106.33,106.33,0,0,0,439.83,334H652.5A106.33,106.33,0,0,0,546.17,227.67Z"/><path id="_Path_10" data-name="&lt;Path&gt;" class="cls-2" d="M439.67,652.33A106.33,106.33,0,0,0,333.33,546V652.33Z"/><path id="_Path_11" data-name="&lt;Path&gt;" class="cls-3" d="M546,652.33A106.33,106.33,0,0,0,439.67,546V652.33Z"/><path class="cls-3" d="M228,546h0A106.33,106.33,0,0,0,334.33,652.33V546h0V439.67A106.33,106.33,0,0,0,228,546Z"/><path id="_Path_12" data-name="&lt;Path&gt;" class="cls-2" d="M546,758.67A106.33,106.33,0,0,0,439.67,652.33V758.67Z"/><path class="cls-3" d="M546,757.67H439.67A106.33,106.33,0,0,0,546,864h0A106.33,106.33,0,0,0,652.33,757.67Z"/></g></g></svg>