<svg xmlns="http://www.w3.org/2000/svg" viewBox="0 0 1092 1092"><defs><style>.cls-1{fill:#fff;}.cls-2{fill:#f05a22;}</style></defs><title>Asset 2</title><g id="Layer_2" data-name="Layer 2"><g id="Layer_2-2" data-name="Layer 2"><rect class="cls-1" width="1092" height="1092"/></g><g id="Layer_4" data-name="Layer 4"><rect class="cls-2" x="532.45" y="138.03" width="25.71" height="812.61" transform="translate(-0.22 1088.45) rotate(-89.87)"/><path class="cls-2" d="M696.16,713c-32,0-63.16-1-92.41-2.34-6.78-.3-13.83-.58-21.28-.87-68.91-2.69-154.66-6-209.25-35.76-23.78-12.95-44.09-27.43-62-40.21-30.89-22-55.29-39.41-82.2-39.41h-.2l-90-1.37.39-25.71,89.91,1.36c35.09,0,63.8,20.5,97,44.19,18.17,13,37,26.35,59.38,38.56,49.3,26.85,135.22,30.2,198,32.65,7.49.29,14.57.57,21.42.87,74.23,3.3,160.94,4.9,241.19-8.23,81-13.26,80.56-56.24,79.92-115.73-.05-5-.11-10.08-.11-15.2v-.6c0-5.12.06-10.24.11-15.2.64-59.49,1.1-102.48-79.92-115.73-80.26-13.13-167-11.53-241.19-8.24-70.71,3.14-172.81,17.15-229.89,40.5-26.95,11-47.52,25.67-65.67,38.6-25,17.82-48.66,34.66-80.24,34.69L139.18,521l-.35-25.71L229,494.09c23.4,0,41.94-13.2,65.41-29.92,19.29-13.74,41.15-29.3,70.85-41.45C401.16,408,448.92,398.45,482.67,393a1101.94,1101.94,0,0,1,121.08-12.66c75.55-3.36,163.91-5,246.48,8.55,45.8,7.49,75.08,25.35,89.51,54.6,12.63,25.58,12.31,55.31,12,86.79-.05,4.89-.11,9.95-.11,14.92v.6c0,5,.05,10,.11,14.92.34,31.48.66,61.21-12,86.79-14.44,29.24-43.72,47.1-89.51,54.6C799.63,710.39,746.84,713,696.16,713Z"/><path class="cls-2" d="M463.11,453.67H484.6l15.74,43.87,15.74-43.87h21.09l-28.12,69.81H491.23Z"/><path class="cls-2" d="M574.91,524.37a38.53,38.53,0,0,1-14.85-2.82,36.55,36.55,0,0,1-11.78-7.67,35.42,35.42,0,0,1-7.77-11.39,34.85,34.85,0,0,1-2.82-14v-.2a35.32,35.32,0,0,1,10.69-25.5,37.32,37.32,0,0,1,11.88-7.72,40.5,40.5,0,0,1,29.71,0,36.6,36.6,0,0,1,11.78,7.67,35.47,35.47,0,0,1,7.77,11.39,34.84,34.84,0,0,1,2.82,14v.2a35.32,35.32,0,0,1-10.69,25.5,37.31,37.31,0,0,1-11.88,7.72A38.52,38.52,0,0,1,574.91,524.37Zm.15-17.33a17.35,17.35,0,0,0,7.25-1.49,16.66,16.66,0,0,0,5.56-4,18.64,18.64,0,0,0,3.58-5.89,19.76,19.76,0,0,0,1.29-7.13v-.2a19.77,19.77,0,0,0-1.29-7.13,18.35,18.35,0,0,0-3.67-5.94,18.08,18.08,0,0,0-5.66-4.11,18,18,0,0,0-14.45,0,17.27,17.27,0,0,0-9.14,9.9,20.43,20.43,0,0,0-1.24,7.13v.2a19.74,19.74,0,0,0,1.29,7.13,18.7,18.7,0,0,0,3.63,5.94,17.46,17.46,0,0,0,5.61,4.11A16.86,16.86,0,0,0,575.05,507Z"/><path class="cls-2" d="M621.37,453.67h19.21v52.48h33.57V523H621.37Z"/><path class="cls-2" d="M697.37,470.5H676.57V453.67h60.8V470.5H716.58V523H697.37Z"/><path class="cls-2" d="M405.34,566H435a40.57,40.57,0,0,1,11.88,1.63,26,26,0,0,1,9.11,4.75,20.84,20.84,0,0,1,5.79,7.67,25,25,0,0,1,2,10.3v.2a24.72,24.72,0,0,1-2.23,10.79,22.09,22.09,0,0,1-6.19,7.82,26.83,26.83,0,0,1-9.46,4.75,42.92,42.92,0,0,1-11.93,1.58h-9.51v19.8H405.34Zm28.32,34.46q5.15,0,8.07-2.44a8.17,8.17,0,0,0,2.92-6.62v-.2a8.22,8.22,0,0,0-2.92-6.82q-2.92-2.34-8.17-2.34h-9v18.42Z"/><path class="cls-2" d="M490.8,567h18.52l29.51,69.81h-20.6l-5-12.38H486.45l-5,12.38h-20.2Zm16.83,42.58-7.72-19.71-7.82,19.71Z"/><path class="cls-2" d="M545.56,567.49h26.74A50.48,50.48,0,0,1,588.88,570a35,35,0,0,1,12.28,7.08,30.27,30.27,0,0,1,7.62,10.84,35.55,35.55,0,0,1,2.62,13.81v.2a35.68,35.68,0,0,1-2.67,13.91,31.24,31.24,0,0,1-7.72,11,35.72,35.72,0,0,1-12.43,7.28,49.56,49.56,0,0,1-16.68,2.62H545.56Zm27.06,52.28q8.64,0,13.91-4.56t5.27-13V602q0-8.32-5.27-12.92t-13.91-4.6h-7.85v35.25Z"/><path class="cls-2" d="M621.31,567.49H648A50.49,50.49,0,0,1,664.63,570a35,35,0,0,1,12.28,7.08,30.27,30.27,0,0,1,7.62,10.84,35.53,35.53,0,0,1,2.62,13.81v.2a35.67,35.67,0,0,1-2.67,13.91,31.24,31.24,0,0,1-7.72,11,35.72,35.72,0,0,1-12.43,7.28,49.56,49.56,0,0,1-16.68,2.62H621.31Zm27.06,52.28q8.64,0,13.91-4.56t5.27-13V602q0-8.32-5.27-12.92t-13.91-4.6h-7.85v35.25Z"/><path class="cls-2" d="M697.06,567.49h19.21V620h33.57v16.83H697.06Z"/><path class="cls-2" d="M758.06,567.49h55.65v16.34H777v10.5h33.27v15.15H777v11H814.2v16.34H758.06Z"/><path class="cls-2" d="M851.33,638a53.8,53.8,0,0,1-17.68-2.89,42.83,42.83,0,0,1-14.8-8.67l10.69-12.8Q839.95,622,852,622a11.45,11.45,0,0,0,5.89-1.23,3.9,3.9,0,0,0,2-3.51V617a3.73,3.73,0,0,0-.49-1.93,5.05,5.05,0,0,0-1.83-1.63,19,19,0,0,0-3.56-1.53q-2.23-.74-5.79-1.53-5.54-1.28-10.3-2.82a31.51,31.51,0,0,1-8.27-4,16.87,16.87,0,0,1-7.57-15v-.2a21.33,21.33,0,0,1,1.83-8.9,19.72,19.72,0,0,1,5.35-7,25.17,25.17,0,0,1,8.47-4.6A35.72,35.72,0,0,1,849,566.3a49.87,49.87,0,0,1,15.89,2.34,40.08,40.08,0,0,1,12.62,6.92l-9.6,13.61a39,39,0,0,0-9.75-5.1,29.45,29.45,0,0,0-9.65-1.73,8.69,8.69,0,0,0-5.2,1.29,3.83,3.83,0,0,0-1.73,3.16v.2a3.89,3.89,0,0,0,.54,2.07A4.94,4.94,0,0,0,844,590.7a20.63,20.63,0,0,0,3.66,1.48q2.33.74,5.89,1.53a84.74,84.74,0,0,1,10.74,3,32.2,32.2,0,0,1,8.17,4.2,16.82,16.82,0,0,1,5.15,6,18.23,18.23,0,0,1,1.78,8.35v.2a21.34,21.34,0,0,1-2,9.49,20.37,20.37,0,0,1-5.69,7.07,25.77,25.77,0,0,1-8.81,4.45A40.24,40.24,0,0,1,851.33,638Z"/></g></g></svg>