<svg xmlns="http://www.w3.org/2000/svg" viewBox="0 0 1092 1092"><defs><style>.cls-1{fill:#fff;}.cls-2{fill:#f05a28;}.cls-3{fill:#006838;}</style></defs><title>Asset 16</title><g id="Layer_2" data-name="Layer 2"><g id="Layer_2-2" data-name="Layer 2"><rect class="cls-1" width="1092" height="1092"/></g><g id="Layer_18" data-name="Layer 18"><path class="cls-2" d="M210,322a112,112,0,1,1,224,0"/><path class="cls-2" d="M434,322a112,112,0,1,1,224,0"/><path class="cls-2" d="M658,322a112,112,0,1,1,0,224"/><path class="cls-2" d="M434,322a112,112,0,1,1,0,224"/><path class="cls-2" d="M658,546a112,112,0,1,1-224,0"/><path class="cls-2" d="M770,658a112,112,0,1,1-224,0"/><path class="cls-2" d="M882,770a112,112,0,1,1-224,0"/><path class="cls-2" d="M210,434a112,112,0,0,1,224,0"/><path class="cls-3" d="M330.27,399a44.29,44.29,0,0,0-12.93,33.89,44.4,44.4,0,0,0,54.12-45.81A44.37,44.37,0,0,0,330.27,399Z"/><path class="cls-3" d="M313.73,399a44.29,44.29,0,0,1,12.93,33.89,44.4,44.4,0,0,1-54.12-45.81A44.37,44.37,0,0,1,313.73,399Z"/><path class="cls-3" d="M330.27,287a44.29,44.29,0,0,0-12.93,33.89,44.4,44.4,0,0,0,54.12-45.81A44.37,44.37,0,0,0,330.27,287Z"/><path class="cls-3" d="M313.73,287a44.29,44.29,0,0,1,12.93,33.89,44.4,44.4,0,0,1-54.12-45.81A44.37,44.37,0,0,1,313.73,287Z"/><circle class="cls-2" cx="322" cy="546" r="112"/><circle class="cls-2" cx="322" cy="770" r="112"/><path class="cls-3" d="M330.27,623a44.29,44.29,0,0,0-12.93,33.89,44.4,44.4,0,0,0,54.12-45.81A44.37,44.37,0,0,0,330.27,623Z"/><path class="cls-3" d="M313.73,623a44.29,44.29,0,0,1,12.93,33.89,44.4,44.4,0,0,1-54.12-45.81A44.37,44.37,0,0,1,313.73,623Z"/></g></g></svg>