<svg xmlns="http://www.w3.org/2000/svg" viewBox="0 0 1896.52 1167.21"><defs><style>.cls-1{fill:#f6511d;}.cls-2{fill:#fff;}</style></defs><title>Asset 13</title><g id="Layer_2" data-name="Layer 2"><g id="Layer_2-2" data-name="Layer 2"><polygon class="cls-1" points="1386.03 218.96 1385.99 219 1313.06 146.07 1167.19 291.93 1240.13 364.86 1240.16 364.83 1313.1 437.76 1458.96 291.89 1386.03 218.96"/><polygon points="1823.58 656.5 1823.55 656.53 1750.62 583.6 1604.75 729.47 1677.68 802.4 1677.72 802.36 1750.65 875.29 1896.52 729.43 1823.58 656.5"/><polygon points="1240.11 364.81 1240.07 364.85 1167.14 291.91 1021.28 437.78 1094.21 510.71 1094.25 510.67 1167.18 583.6 1313.04 437.74 1240.11 364.81"/><polygon points="218.83 510.65 218.79 510.69 145.86 437.76 0 583.62 72.93 656.55 72.97 656.51 145.9 729.45 291.76 583.58 218.83 510.65"/><polygon class="cls-1" points="948.42 72.89 948.38 72.93 875.45 0 729.59 145.86 802.52 218.79 802.56 218.76 875.49 291.69 1021.35 145.82 948.42 72.89"/><polygon points="593.69 135.68 510.59 218.78 547.05 255.24 547.07 255.22 583.54 291.69 666.64 208.59 593.69 135.68"/><polygon points="692.93 109.36 692.91 109.38 656.45 72.91 583.52 145.84 619.98 182.31 620 182.29 656.47 218.76 729.4 145.82 692.93 109.36"/><polygon points="1692.96 787.3 1692.96 787.3 1619.99 714.41 1458.98 875.42 1531.91 948.35 1531.95 948.32 1604.88 1021.25 1765.89 860.23 1692.96 787.3"/><polygon points="948.42 656.53 948.38 656.57 875.45 583.64 729.59 729.5 802.52 802.43 802.56 802.4 875.49 875.33 1021.35 729.47 948.42 656.53"/><polygon class="cls-1" points="1386.03 802.34 1385.99 802.38 1284.54 700.93 1138.68 846.79 1240.13 948.24 1240.16 948.2 1313.1 1021.13 1458.96 875.27 1386.03 802.34"/><polygon class="cls-1" points="1677.68 218.96 1677.64 219 1604.71 146.07 1458.85 291.93 1531.78 364.86 1531.82 364.83 1604.75 437.76 1750.61 291.89 1677.68 218.96"/><polygon class="cls-1" points="1240.14 656.5 1240.11 656.53 1167.18 583.6 1021.31 729.47 1094.24 802.4 1094.28 802.36 1167.21 875.29 1313.08 729.43 1240.14 656.5"/><polygon class="cls-1" points="1823.55 948.07 1823.51 948.11 1750.58 875.18 1604.72 1021.04 1677.65 1093.97 1677.69 1093.93 1750.62 1166.87 1896.48 1021 1823.55 948.07"/><polygon class="cls-1" points="948.31 948.41 948.27 948.45 875.34 875.52 729.48 1021.38 802.41 1094.31 802.45 1094.27 875.38 1167.2 1021.24 1021.34 948.31 948.41"/><polygon class="cls-2" points="1094.26 510.65 1094.23 510.69 1021.29 437.76 875.43 583.62 948.36 656.55 948.4 656.51 1021.33 729.45 1167.19 583.58 1094.26 510.65"/></g><g id="Layer_1-2" data-name="Layer 1"><path class="cls-1" d="M1761.18,716.15l25-25-10.58-10.58-25,25-25-25L1715,691.12l25,25-30.07,30.07,40.45,41.26.21.21,40.65-41.47Zm-10.58,50.16-19.59-20,19.59-19.59,19.59,19.59Z"/><path class="cls-2" d="M886,716.19l25-25-10.58-10.58-25,25-25-25-10.58,10.58,25,25-30.07,30.07,40.45,41.26.21.21,40.65-41.47Zm-10.58,50.16-19.59-20,19.59-19.59L895,746.37Z"/><path d="M1323.63,862l25-25-10.58-10.58-25,25-25-25L1277.42,837l25,25-30.07,30.07,40.45,41.26.21.21,40.65-41.47ZM1313,912.16l-19.59-20L1313,872.58l19.59,19.59Z"/><path d="M1615.28,278.62l25-25L1629.73,243l-25,25-25-25-10.58,10.58,25,25L1564,308.69l40.45,41.26.21.21,40.65-41.47Zm-10.58,50.16-19.59-20,19.59-19.59,19.59,19.59Z"/><path class="cls-1" d="M1031.86,570.31l25-25-10.58-10.58-25,25-25-25-10.58,10.58,25,25-30.07,30.07,40.45,41.26.21.21,40.65-41.47Zm-10.58,50.16-19.59-20,19.59-19.59,19.59,19.59Z"/><polygon class="cls-2" points="1604.83 437.7 1604.75 437.78 1458.89 291.91 1167.16 583.64 1313.02 729.5 1313.1 729.43 1458.96 875.29 1750.69 583.57 1604.83 437.7"/><path d="M1480,557l50.07-50.07-21.17-21.17-50.07,50.07-50.07-50.07-21.17,21.17L1437.69,557l-60.14,60.14,80.9,82.52.41.42,81.31-82.94Zm-21.17,100.32-39.18-40,39.18-39.18L1498,617.37Z"/><polygon class="cls-1" points="729.5 437.7 729.42 437.78 583.56 291.91 291.83 583.64 437.7 729.5 437.77 729.43 583.63 875.29 875.36 583.57 729.5 437.7"/><path class="cls-2" d="M604.7,557l50.07-50.07L633.6,485.78l-50.07,50.07-50.07-50.07-21.17,21.17L562.36,557l-60.14,60.14,80.9,82.52.41.42,81.31-82.94ZM583.53,657.33l-39.18-40,39.18-39.18,39.18,39.18Z"/></g></g></svg>