<svg xmlns="http://www.w3.org/2000/svg" viewBox="0 0 1092 1092"><defs><style>.cls-1{fill:#fff;}.cls-2{fill:#f05a22;}</style></defs><title>Asset 18</title><g id="Layer_2" data-name="Layer 2"><g id="Layer_2-2" data-name="Layer 2"><rect class="cls-1" width="1092" height="1092"/></g><g id="Layer_20" data-name="Layer 20"><path class="cls-2" d="M322.26,360.78h-3.48a4.49,4.49,0,0,0-4.48,4.48v14.5c0,2.46,1.48,4.48,3.3,4.48s5.3-.24,7.74-.52a11,11,0,0,0,4.64-1.9,10.63,10.63,0,0,0,4.42-9.21,11.58,11.58,0,0,0-3-8.27Q328.1,360.78,322.26,360.78Z"/><path class="cls-2" d="M395.21,598.61a26.91,26.91,0,0,0-10.39-2.11,4.26,4.26,0,0,0-4,4.48v42.48c0,2.46.71,4.48,1.59,4.48a60,60,0,0,0,6-.68s7.91-1.21,12.31-5a24.36,24.36,0,0,0,6.41-8.8,27.69,27.69,0,0,0,2.3-11.23,28.93,28.93,0,0,0-4-14.8A20.84,20.84,0,0,0,395.21,598.61Z"/><path class="cls-2" d="M591.45,721.73A23.37,23.37,0,0,0,575,715.45a22.52,22.52,0,0,0-17.6,8.15,24.89,24.89,0,0,0-6,17q0,10.95,7.28,18a23.08,23.08,0,0,0,16.73,7,22.81,22.81,0,0,0,17.66-8q6.28-6.91,6.28-17.29Q599.28,729,591.45,721.73Z"/><path class="cls-2" d="M477.29,517.79h10.89a3.1,3.1,0,0,0,3.13-4.27l-7.26-23.06c-.74-2.35-1.95-2.35-2.68,0l-7.22,23.05A3.1,3.1,0,0,0,477.29,517.79Z"/><path class="cls-2" d="M669.83,411.34a22.81,22.81,0,0,0,17.66-8q6.28-6.9,6.28-17.29,0-11.32-7.84-18.6a23.37,23.37,0,0,0-16.48-6.28,22.52,22.52,0,0,0-17.6,8.15,24.89,24.89,0,0,0-6,17q0,10.95,7.28,18A23.08,23.08,0,0,0,669.83,411.34Z"/><path class="cls-2" d="M584.07,413.89c2.05,0,5.74-.19,8.19-.42a10.77,10.77,0,0,0,4.69-1.64q3.23-2.43,3.23-7.71,0-6.28-4.54-8.65a12.22,12.22,0,0,0-4.48-1.37q-2.43-.19-6-.19h-.31a4.49,4.49,0,0,0-4.48,4.48v11C580.34,411.88,582,413.89,584.07,413.89Z"/><path class="cls-2" d="M582.89,378.87c1.4,0,4.55-.22,7-.48,0,0,4.24-.45,6.31-2.32a9.12,9.12,0,0,0,2.68-7q0-6.16-4.35-8.27-3.23-1.55-9.39-1.56h-.31a4.49,4.49,0,0,0-4.48,4.48v10.7C580.34,376.86,581.49,378.87,582.89,378.87Z"/><path class="cls-2" d="M396.77,399.71h10.89a3.1,3.1,0,0,0,3.13-4.27l-7.26-23.06c-.74-2.35-1.95-2.35-2.68,0l-7.21,23.05A3.1,3.1,0,0,0,396.77,399.71Z"/><path class="cls-2" d="M881.35,320.54,388.79,272c-9.8-1-25.24,1.37-34.32,5.19L206.9,339.31c-9.08,3.82-11,12.85-4.32,20.07l130.7,140.8C340,507.39,343,521,340,530.34L301.78,649c-3,9.37.11,22.84,6.94,29.93l129.22,134c6.84,7.09,20.46,13.49,30.28,14.21L667.82,842a17.34,17.34,0,0,0,18.66-16.56l3.25-72.28c.44-9.84,7.66-22.12,16-27.31L797.5,669c8.37-5.18,12.28-16.92,8.68-26.09L762.87,532.65a20.37,20.37,0,0,1,9.35-24.91l39.89-20.69c8.74-4.53,19.23-15.58,23.3-24.54l56.34-123.92C895.84,329.63,891.15,321.5,881.35,320.54ZM628.5,368.83A46.4,46.4,0,0,1,639,353.93q12.56-11.88,32-11.88a43.68,43.68,0,0,1,17.66,3.64,43.06,43.06,0,0,1,14.62,10.48,41.84,41.84,0,0,1,11.32,29.42,45.32,45.32,0,0,1-4,18.72,44.58,44.58,0,0,1-11.2,15.3q-12.25,10.76-29.29,10.76a46.73,46.73,0,0,1-18.88-3.92,44.62,44.62,0,0,1-15.46-11.07,41.81,41.81,0,0,1-11.07-29.11A42.67,42.67,0,0,1,628.5,368.83ZM700.62,495.9h19a4.49,4.49,0,0,1,4.48,4.48v7.72a4.49,4.49,0,0,1-4.48,4.48h-19a4.49,4.49,0,0,0-4.48,4.48v8.59a4.49,4.49,0,0,0,4.48,4.48h19a4.49,4.49,0,0,1,4.48,4.48v7.72a4.49,4.49,0,0,1-4.48,4.48H680a4.49,4.49,0,0,1-4.48-4.48V466.35a4.49,4.49,0,0,1,4.48-4.48h39.68a4.49,4.49,0,0,1,4.48,4.48v7.72a4.49,4.49,0,0,1-4.48,4.48h-19a4.49,4.49,0,0,0-4.48,4.48v8.4A4.49,4.49,0,0,0,700.62,495.9ZM559.69,348.27a4.49,4.49,0,0,1,4.48-4.48h20.09c2.46,0,6.49.07,8.95.16a72.41,72.41,0,0,1,9.61,1,21.86,21.86,0,0,1,8.8,3.76q8.21,6.22,8.21,18.16a20.21,20.21,0,0,1-5.72,14.74,20.47,20.47,0,0,1-8.89,4.91q6.72,1.56,10.14,4.79,5.72,5.41,5.72,14.86a25.21,25.21,0,0,1-2.3,10.82,18.87,18.87,0,0,1-6.34,7.71,21.62,21.62,0,0,1-7.31,3,49.6,49.6,0,0,1-10.61.93H564.17a4.49,4.49,0,0,1-4.48-4.48Zm5.2,179.53a10.28,10.28,0,0,0,4.51-4.11q2.11-3.86,2.11-12.38v-45a4.49,4.49,0,0,1,4.48-4.48h11.7a4.49,4.49,0,0,1,4.48,4.48V506a80.78,80.78,0,0,1-.6,8.91s-2.35,17.39-8.23,23.74a28.23,28.23,0,0,1-10.79,7.28,38.25,38.25,0,0,1-14.09,2.55,39.34,39.34,0,0,1-14.83-2.77,30.32,30.32,0,0,1-11.41-7.81,27.2,27.2,0,0,1-6.47-12.38,70.7,70.7,0,0,1-1.49-15.05v-44.1a4.49,4.49,0,0,1,4.48-4.48h11.7a4.49,4.49,0,0,1,4.48,4.48v40.49c0,2.46.18,6.48.41,8.93,0,0,.55,6,2.45,8.67q3.48,4.91,10.51,4.91A14.48,14.48,0,0,0,564.89,527.8Zm8,56.63v75.94a4.49,4.49,0,0,1-4.48,4.48H556.7a4.49,4.49,0,0,1-4.48-4.48V584.43A4.49,4.49,0,0,1,556.7,580h11.7A4.49,4.49,0,0,1,572.88,584.43ZM507,645.07a11.12,11.12,0,0,0,8.21,3.23,9.63,9.63,0,0,0,6.72-2.36,5.78,5.78,0,0,0,2.05-4.42q0-3.23-3.42-5.41-2.18-1.49-8.83-3.79-12.19-4.42-18.53-9.89-7.4-6.34-7.4-17.6,0-12.44,8.46-19.59,8.27-7,21-7,12.31,0,20.4,6.65t10,20.09H529a7.49,7.49,0,0,1-6.29-4.09,8.28,8.28,0,0,0-7.64-4.43q-4.54,0-6.72,2.36a6.18,6.18,0,0,0-1.74,4.35q0,3.79,3.92,6.16a78.6,78.6,0,0,0,9.7,4.17q13.06,4.85,18.22,9.58,7.15,6.53,7.15,17,0,13.93-10.82,21-8.21,5.35-19.65,5.35a35.9,35.9,0,0,1-16-3.39,24.55,24.55,0,0,1-10.67-9.73A27.1,27.1,0,0,1,485,639.1h15.74c2.46,0,4.45.49,4.41,1.08v.41A6.24,6.24,0,0,0,507,645.07Zm-30-296.8a4.49,4.49,0,0,1,4.48-4.48h11.7a9.22,9.22,0,0,1,6.91,3.75l26.1,40.2c1.34,2.06,2.44,1.74,2.44-.72V348.27a4.49,4.49,0,0,1,4.48-4.48h11.7a4.49,4.49,0,0,1,4.48,4.48v75.95a4.49,4.49,0,0,1-4.48,4.48h-11.7a9.15,9.15,0,0,1-6.89-3.77l-26.14-40.79c-1.33-2.07-2.42-1.75-2.42.71v39.37a4.49,4.49,0,0,1-4.48,4.48h-11.7a4.49,4.49,0,0,1-4.48-4.48Zm-2.55,113.6h17.23a6.61,6.61,0,0,1,5.87,4.25l25.13,76.39a3.05,3.05,0,0,1-3.08,4.25H506a6.39,6.39,0,0,1-5.75-4.29l-1.11-3.74a6.39,6.39,0,0,0-5.75-4.29H472.19a6.42,6.42,0,0,0-5.77,4.28l-1.14,3.75a6.42,6.42,0,0,1-5.77,4.28H446.45a3,3,0,0,1-3.07-4.25l25.24-76.4A6.62,6.62,0,0,1,474.5,461.87ZM446,348.27a4.49,4.49,0,0,1,4.48-4.48h11.7a4.49,4.49,0,0,1,4.48,4.48v75.95a4.49,4.49,0,0,1-4.48,4.48h-11.7a4.49,4.49,0,0,1-4.48-4.48ZM409,491.29a78.61,78.61,0,0,0,9.7,4.17q13.06,4.85,18.22,9.58,7.15,6.53,7.15,17,0,13.93-10.82,21-8.21,5.35-19.65,5.35a35.9,35.9,0,0,1-16-3.39A24.55,24.55,0,0,1,387,535.33a27.1,27.1,0,0,1-3.54-14.3h15.74c2.46,0,4.45.49,4.41,1.08v.41a6.24,6.24,0,0,0,1.87,4.48,11.12,11.12,0,0,0,8.21,3.23,9.63,9.63,0,0,0,6.72-2.36,5.78,5.78,0,0,0,2.05-4.42q0-3.23-3.42-5.41-2.18-1.49-8.83-3.79-12.19-4.42-18.53-9.89-7.4-6.34-7.4-17.6,0-12.44,8.46-19.59,8.27-7,21-7,12.31,0,20.4,6.65t10,20.09H427.49a7.49,7.49,0,0,1-6.29-4.09,8.28,8.28,0,0,0-7.64-4.43q-4.54,0-6.72,2.36a6.18,6.18,0,0,0-1.74,4.35Q405.1,488.93,409,491.29Zm-46.17-66.85L388.09,348A6.62,6.62,0,0,1,394,343.8H411.2a6.61,6.61,0,0,1,5.87,4.25l25.13,76.39a3.05,3.05,0,0,1-3.08,4.25H425.44a6.39,6.39,0,0,1-5.75-4.29l-1.11-3.74a6.39,6.39,0,0,0-5.75-4.29H391.67a6.42,6.42,0,0,0-5.77,4.28l-1.14,3.75a6.42,6.42,0,0,1-5.77,4.28H365.92A3,3,0,0,1,362.85,424.44Zm-9.74,4.25H337.37a8.51,8.51,0,0,1-6.68-3.89L316.5,399.75c-1.21-2.14-2.21-1.88-2.21.58v23.89a4.49,4.49,0,0,1-4.48,4.48h-11.7a4.49,4.49,0,0,1-4.48-4.48V348.27a4.49,4.49,0,0,1,4.48-4.48h18.6c2.46,0,6.48.24,8.92.53,0,0,16.47,2,21.86,7q7.84,7.34,7.84,20.15,0,19.59-16.54,25.94l16.48,27.45C356.55,427,355.57,428.69,353.11,428.69Zm70.34,218.37q-11,17.79-36.07,17.79h-22.7a4.49,4.49,0,0,1-4.48-4.48V584.43a4.49,4.49,0,0,1,4.48-4.48h15.86c2.46,0,6.48.16,8.94.35,0,0,13.78,1.08,19.55,3.94a37.28,37.28,0,0,1,16.42,16.17,44.7,44.7,0,0,1,4.91,21.15A47.59,47.59,0,0,1,423.45,647.06Zm14.17,17.79a4.49,4.49,0,0,1-4.48-4.48V584.43a4.49,4.49,0,0,1,4.48-4.48H477.3a4.49,4.49,0,0,1,4.48,4.48v7.72a4.49,4.49,0,0,1-4.48,4.48h-19a4.49,4.49,0,0,0-4.48,4.48v8.4a4.49,4.49,0,0,0,4.48,4.48h19a4.49,4.49,0,0,1,4.48,4.48v7.72a4.49,4.49,0,0,1-4.48,4.48h-19a4.49,4.49,0,0,0-4.48,4.48v8.59a4.49,4.49,0,0,0,4.48,4.48h19a4.49,4.49,0,0,1,4.48,4.48v7.72a4.49,4.49,0,0,1-4.48,4.48Zm90.74,110.38a56.11,56.11,0,0,1-8.86,5.46,47,47,0,0,1-19.28,3.92q-19.53,0-31.16-12.87a42.16,42.16,0,0,1-8.52-14.18,49.43,49.43,0,0,1,1-36.35,42.23,42.23,0,0,1,11.07-15.33q11.07-9.52,28.17-9.52a46.61,46.61,0,0,1,20,4.23,48.63,48.63,0,0,1,12.13,8.71l-10.09,10.51a5.71,5.71,0,0,1-6.87.83s-8.14-5.18-14.45-5.18q-10.7,0-17.1,7.28-6,6.84-6,17.35a28.59,28.59,0,0,0,2.18,11.17,23.06,23.06,0,0,0,6.1,8.61,23.78,23.78,0,0,0,16,5.66,25.18,25.18,0,0,0,9.83-1.93,21.08,21.08,0,0,0,7.15-5.41l9.3,11A4.18,4.18,0,0,1,528.36,775.23Zm87.84-16.69a44.56,44.56,0,0,1-11.2,15.3q-12.25,10.76-29.29,10.76a46.73,46.73,0,0,1-18.88-3.92,44.6,44.6,0,0,1-15.46-11.07,41.81,41.81,0,0,1-11.07-29.11,42.67,42.67,0,0,1,3.7-17.45,46.4,46.4,0,0,1,10.54-14.89q12.56-11.88,32-11.88a43.65,43.65,0,0,1,17.66,3.64,43.06,43.06,0,0,1,14.62,10.48,41.84,41.84,0,0,1,11.32,29.42A45.32,45.32,0,0,1,616.2,758.55Zm27.17,23.88a10.34,10.34,0,0,1-7,2.43,10.24,10.24,0,0,1-7.9-3.23,10.8,10.8,0,0,1-2.86-7.59,10.46,10.46,0,0,1,3.67-8.21,10.71,10.71,0,0,1,7.28-2.43,10,10,0,0,1,7.65,3.23A10.64,10.64,0,0,1,647,774.1,10.48,10.48,0,0,1,643.37,782.43Zm25.9-161.37q0,20.52-14.06,33.46a44.61,44.61,0,0,1-31.16,12A45.87,45.87,0,0,1,606.36,663a43.8,43.8,0,0,1-14.71-9.89q-12.07-12.31-12.07-30.72,0-19.16,13.19-32,12.62-12.19,31-12.19a46.51,46.51,0,0,1,25.25,7.28A42.6,42.6,0,0,1,659.57,595l-12.08,9.44a5.8,5.8,0,0,1-7-.12s-8.3-7-16-7q-13.06,0-19.65,10.45a27.18,27.18,0,0,0-4.42,14.8,24.75,24.75,0,0,0,24.88,25.19,22.07,22.07,0,0,0,16.11-6.65,20.75,20.75,0,0,0,5.1-8.09H630.21a4.49,4.49,0,0,1-4.48-4.48v-7.72a4.49,4.49,0,0,1,4.48-4.48h34.52c2.46,0,4.5,1.54,4.54,3.42Zm-48.63-106a23.05,23.05,0,0,0,6.1,8.61,23.78,23.78,0,0,0,16,5.66,25.17,25.17,0,0,0,9.83-1.93,21.07,21.07,0,0,0,7.15-5.41l9.3,11a4.18,4.18,0,0,1-.68,6.1,56.17,56.17,0,0,1-8.86,5.46,47,47,0,0,1-19.28,3.92q-19.53,0-31.16-12.87a42.17,42.17,0,0,1-8.52-14.18,48.8,48.8,0,0,1-3-16.92,48.3,48.3,0,0,1,4-19.44,42.21,42.21,0,0,1,11.07-15.33q11.07-9.52,28.17-9.52a46.6,46.6,0,0,1,20,4.23,48.63,48.63,0,0,1,12.13,8.71l-10.09,10.51a5.71,5.71,0,0,1-6.87.83s-8.15-5.18-14.45-5.18q-10.7,0-17.1,7.28-6,6.84-6,17.35A28.57,28.57,0,0,0,620.64,515.08ZM746.88,660.38a4.49,4.49,0,0,1-4.48,4.48h-11.7a9.15,9.15,0,0,1-6.89-3.77l-26.14-40.79c-1.33-2.07-2.42-1.75-2.42.71v39.37a4.49,4.49,0,0,1-4.48,4.48h-11.7a4.49,4.49,0,0,1-4.48-4.48V584.43a4.49,4.49,0,0,1,4.48-4.48h11.7a9.22,9.22,0,0,1,6.91,3.75l26.1,40.2c1.34,2.06,2.44,1.74,2.44-.72V584.43a4.49,4.49,0,0,1,4.48-4.48h11.7a4.49,4.49,0,0,1,4.48,4.48ZM820.3,348.12,800,424.37a6.16,6.16,0,0,1-5.63,4.32H781.89a5.82,5.82,0,0,1-5.42-4.37l-9-41.5c-.52-2.41-1.37-2.4-1.88,0l-8.89,41.5a5.8,5.8,0,0,1-5.41,4.38H739a6.11,6.11,0,0,1-5.6-4.33l-19.71-76.23A3.3,3.3,0,0,1,717,343.8h13a5.88,5.88,0,0,1,5.46,4.37l8.91,39.47c.54,2.4,1.45,2.4,2,0l9.27-39.49a5.94,5.94,0,0,1,5.5-4.36h11.76a5.86,5.86,0,0,1,5.45,4.37l9.06,40.65c.54,2.4,1.43,2.41,2,0l9.42-40.66a5.92,5.92,0,0,1,5.49-4.36H817A3.27,3.27,0,0,1,820.3,348.12Z"/></g></g></svg>