<svg xmlns="http://www.w3.org/2000/svg" viewBox="0 0 1400 900"><defs><style>.cls-1{fill:#3772ff;}.cls-2{fill:#fff;}</style></defs><title>Asset 6</title><g id="Layer_2" data-name="Layer 2"><g id="Layer_1-2" data-name="Layer 1"><rect class="cls-1" width="1400" height="900"/><g id="Layer_2-2" data-name="Layer 2"><g id="Layer_1-2-2" data-name="Layer 1-2"><path class="cls-2" d="M224.64,424a6.48,6.48,0,0,1-4.78,2.43,8.3,8.3,0,0,1-4.26-1,15.81,15.81,0,0,1-2.77-2.06,14.74,14.74,0,0,0-2.49-2.1,6.34,6.34,0,0,0-3.68-.91,6.44,6.44,0,0,0-3.92,1.39,18.63,18.63,0,0,0-3.63,3.63,28.26,28.26,0,0,0-3,4.78c-.86,1.82-1.67,3.59-2.34,5.26v48.33a4.31,4.31,0,0,0,2.2,2.34,12.48,12.48,0,0,0,3.77,1.2,38.76,38.76,0,0,0,4,.52,23.51,23.51,0,0,1,3.92.43V490H170.28v-1.68a22,22,0,0,0,6.6-1.48,4,4,0,0,0,3-4V426.22a6.51,6.51,0,0,0-.23-2,4.17,4.17,0,0,0-1.44-1.48l-3.49-2.1a30.06,30.06,0,0,0-4.4-2.1v-1L192.37,409h1L193,432.25h.33c.58-1.34,1.44-3.3,2.68-5.84a50.22,50.22,0,0,1,4.78-7.79,29.18,29.18,0,0,1,6.79-6.79A15.31,15.31,0,0,1,216.8,409a10.62,10.62,0,0,1,7.12,2.34,8,8,0,0,1,2.92,6.36A8.74,8.74,0,0,1,224.64,424Z"/><path class="cls-2" d="M282.63,476.66a21.91,21.91,0,0,1-6.93,7.79,29.75,29.75,0,0,1-9.8,4.35,50.52,50.52,0,0,1-11.81,1.34,68.33,68.33,0,0,1-13.91-1.34A57.66,57.66,0,0,1,228.13,485V462.89h1.34c.91,2.63,2,5.45,3.34,8.41a46,46,0,0,0,4.78,8.23,25,25,0,0,0,6.84,6.16,17.93,17.93,0,0,0,9.56,2.44,17.67,17.67,0,0,0,12.77-4.78A19.16,19.16,0,0,0,271.54,469a12.13,12.13,0,0,0-3.25-8.61,16.39,16.39,0,0,0-8.94-4.78c-3-.57-5.88-1.19-8.66-1.86s-5.26-1.39-7.5-2.15a20.81,20.81,0,0,1-10.42-6.79A21.14,21.14,0,0,1,228.85,432,19.94,19.94,0,0,1,231,422.4a23.08,23.08,0,0,1,5.88-7.22,25.83,25.83,0,0,1,8.51-4.78,33.45,33.45,0,0,1,10.37-1.58,53.64,53.64,0,0,1,12.38,1.24,74.46,74.46,0,0,1,10.23,3.11l1.87,20.94-1.34.33c-1.58-3.39-3.11-6.45-4.78-9.32a38.29,38.29,0,0,0-5.21-7.36A19.83,19.83,0,0,0,262.5,413a19.19,19.19,0,0,0-8.08-1.63,15.45,15.45,0,0,0-5.59,1,14.39,14.39,0,0,0-4.78,2.91,14.22,14.22,0,0,0-3.44,4.79,15.8,15.8,0,0,0-1.34,6.78,10.36,10.36,0,0,0,3.49,8.85,24,24,0,0,0,8.79,4.35l8,1.72c2.91.62,5.4,1.19,7.5,1.77a24.72,24.72,0,0,1,12.81,7.69,20.66,20.66,0,0,1,5.26,14.35A23.21,23.21,0,0,1,282.63,476.66Z"/><path class="cls-2" d="M383.59,490.33h-1V473.5h0a34.27,34.27,0,0,1-11.52,12.43,33.5,33.5,0,0,1-28.45,1.63A28.65,28.65,0,0,1,332.35,480a38.35,38.35,0,0,1-7.22-12.52,51.08,51.08,0,0,1-2.68-17.16,42.27,42.27,0,0,1,3.11-16.21,39.26,39.26,0,0,1,22.08-21.94A46.49,46.49,0,0,1,365.05,409a50.32,50.32,0,0,1,9.56.81,80.8,80.8,0,0,1,8.08,2V381.76l-14.15-5.06v-1L395,368.33h1.34V476.94a40.71,40.71,0,0,0,4.78,2.35l6.84,2.82v.95Zm-1.14-63a33.19,33.19,0,0,0-9.56-11,18.26,18.26,0,0,0-10.57-4.16,19.75,19.75,0,0,0-11.09,3,24.17,24.17,0,0,0-7.65,8,37.18,37.18,0,0,0-4.4,11.57,62.1,62.1,0,0,0-1.43,13.39,53.72,53.72,0,0,0,1.67,13.29,35.63,35.63,0,0,0,4.78,11.37,26.67,26.67,0,0,0,8.27,7.94,21.64,21.64,0,0,0,11.48,3,16.59,16.59,0,0,0,11.8-4.78A21.49,21.49,0,0,0,382,467.14Z"/><path class="cls-2" d="M471.46,472.64a31,31,0,0,1-6.36,8.46,33.19,33.19,0,0,1-9.56,6.36A30.24,30.24,0,0,1,443.06,490a37.43,37.43,0,0,1-15.53-3.21,33.42,33.42,0,0,1-11.95-8.94,41.8,41.8,0,0,1-7.65-13.57,50.62,50.62,0,0,1-2.68-16.5,41.32,41.32,0,0,1,2.53-14,40.34,40.34,0,0,1,7.13-12.43,36,36,0,0,1,11.18-9,31.12,31.12,0,0,1,14.63-3.4,45.13,45.13,0,0,1,12.34,1.63,29.38,29.38,0,0,1,10,5.11,26.52,26.52,0,0,1,6.93,8.66,31.26,31.26,0,0,1,3.15,12.19H419.59a26.72,26.72,0,0,1,0,3.1v3.59a45,45,0,0,0,2,13.48,36.23,36.23,0,0,0,5.83,11.38,27.67,27.67,0,0,0,9.56,7.79,31.32,31.32,0,0,0,13.58,2.82,25.58,25.58,0,0,0,14.63-4.25,20.2,20.2,0,0,0,8.08-10.57l1.34.34A29.79,29.79,0,0,1,471.46,472.64Zm-19.12-56.5a15.23,15.23,0,0,0-11.47-4.45,14,14,0,0,0-8.47,2.77,29.7,29.7,0,0,0-6.35,6.46,32.88,32.88,0,0,0-6.12,13.19h30.69a14.75,14.75,0,0,0,3.87-.86,16.31,16.31,0,0,0,1.67-2.77,8.41,8.41,0,0,0,.58-3.54A14.87,14.87,0,0,0,452.34,416.14Z"/><path class="cls-2" d="M532.46,476.66a22.41,22.41,0,0,1-7,7.79,29.18,29.18,0,0,1-9.94,4.35,49.42,49.42,0,0,1-11.81,1.34,67.91,67.91,0,0,1-13.86-1.34A57.66,57.66,0,0,1,477.82,485V462.89h1.34a84.54,84.54,0,0,0,3.34,8.41,40.55,40.55,0,0,0,4.79,8.23,23.66,23.66,0,0,0,6.83,6.16,17.75,17.75,0,0,0,9.56,2.44,17.56,17.56,0,0,0,12.77-4.78A19.16,19.16,0,0,0,521.23,469,11.94,11.94,0,0,0,518,460.4a16.25,16.25,0,0,0-8.89-4.78c-3-.57-5.89-1.19-8.66-1.86-2.53-.59-5-1.31-7.5-2.15a20.88,20.88,0,0,1-10.38-6.79A21.51,21.51,0,0,1,478.63,432a19.62,19.62,0,0,1,2.2-9.56,22.44,22.44,0,0,1,5.83-7.22,26.17,26.17,0,0,1,8.56-4.78,33.52,33.52,0,0,1,10.38-1.58A53.7,53.7,0,0,1,518,410.06a73.8,73.8,0,0,1,10.18,3.11l2,20.75-1.34.33a101,101,0,0,0-4.78-9.32,38.05,38.05,0,0,0-5.16-7.36,20.54,20.54,0,0,0-6.46-4.78,19.24,19.24,0,0,0-8.17-1.44,15.13,15.13,0,0,0-5.6,1,14.07,14.07,0,0,0-4.78,2.91,15.28,15.28,0,0,0-3.44,4.79,16.78,16.78,0,0,0-1.34,6.78,10.44,10.44,0,0,0,3.54,8.85,24,24,0,0,0,8.84,4.06l8,1.72c2.91.62,5.4,1.2,7.55,1.77a24.84,24.84,0,0,1,12.81,7.7,20.84,20.84,0,0,1,5.26,14.34A23.25,23.25,0,0,1,532.46,476.66Z"/><path class="cls-2" d="M531.84,489.8v-1.67a19,19,0,0,0,4-.43,16.28,16.28,0,0,0,3.63-.81,9.42,9.42,0,0,0,2.68-1.58,3.32,3.32,0,0,0,1.05-2.53V425.41a8.35,8.35,0,0,0-.24-2.34,3.23,3.23,0,0,0-1.43-1.87,30.77,30.77,0,0,0-3.59-2,37.36,37.36,0,0,0-4.45-1.81v-1.24l22.62-7.32h1v75a3.72,3.72,0,0,0,1.43,2.44,7.91,7.91,0,0,0,2.59,1.1,23.62,23.62,0,0,0,3.25.38,20,20,0,0,1,3.44.43v1.67ZM555.74,389a8.86,8.86,0,0,1-6.45,2.63,9.33,9.33,0,0,1-8.89-8.94,8.44,8.44,0,0,1,2.77-6.45,9.55,9.55,0,0,1,12.91,0,8.48,8.48,0,0,1,2.39,6.45,8.71,8.71,0,0,1-2.58,6.31Z"/><path class="cls-2" d="M650.73,422.64a5.46,5.46,0,0,1-4.25,1.91,8.54,8.54,0,0,1-3-.86c-1.34-.53-2.82-1.2-4.45-2a47.32,47.32,0,0,1-4.78-2.63l-4.78-2.58-.67.67a69.07,69.07,0,0,1,4.3,7.22,18.94,18.94,0,0,1,1.73,8.65,22.84,22.84,0,0,1-9.18,19.84,43,43,0,0,1-25.1,6.64,40.17,40.17,0,0,1-4.78-.38,40,40,0,0,0-5.79-.33,16.62,16.62,0,0,0-8.51,2.48,6.46,6.46,0,0,0-3.2,5.55,6.14,6.14,0,0,0,1.67,4.4,11.88,11.88,0,0,0,4.21,2.77,22.11,22.11,0,0,0,5.5,1.34,50.14,50.14,0,0,0,5.88.33h26.77a29.28,29.28,0,0,1,10.52,1.82,23.79,23.79,0,0,1,8,5.07,21.14,21.14,0,0,1,5.11,7.26,22.33,22.33,0,0,1,1.77,9.09,25.58,25.58,0,0,1-3.25,12.47,34.22,34.22,0,0,1-9.13,10.47A45.62,45.62,0,0,1,621.52,529,56.67,56.67,0,0,1,604,531.59a60.54,60.54,0,0,1-28.59-5.5,16.59,16.59,0,0,1-10.14-15,11.22,11.22,0,0,1,1.77-6.27,27,27,0,0,1,4.78-5.45,47.11,47.11,0,0,1,6.55-4.78l7.08-4.44v-.34a24.67,24.67,0,0,1-13.1-4.78,12.6,12.6,0,0,1-4.78-10.23,12.91,12.91,0,0,1,1.91-6.12,17.62,17.62,0,0,1,4.16-5.16,23.83,23.83,0,0,1,6.31-4,27.08,27.08,0,0,1,7.75-2V457a25.17,25.17,0,0,1-11.43-8.37,22.72,22.72,0,0,1-4.11-14.05,21.25,21.25,0,0,1,2.44-10,24.79,24.79,0,0,1,6.79-8.13,34.17,34.17,0,0,1,10.32-5.4,39.9,39.9,0,0,1,13-2A50.36,50.36,0,0,1,616,410.16a40.91,40.91,0,0,1,10.28,4,23.7,23.7,0,0,0,3.44.86h3.44a10.72,10.72,0,0,0,3.59-.58,20.7,20.7,0,0,0,2.91-1.34,20.23,20.23,0,0,1,2.87-1.34,9.78,9.78,0,0,1,3.44-.43,6,6,0,0,1,4.78,2,6.77,6.77,0,0,1,1.87,4.78A6.33,6.33,0,0,1,650.73,422.64Zm-16.49,74.77a11.16,11.16,0,0,0-4.78-4.79,29.94,29.94,0,0,0-9.23-2.62,124.37,124.37,0,0,0-15.2-.72,53.62,53.62,0,0,0-7.22.33c-2.44.34-4.44.43-6,.67a17.8,17.8,0,0,0-10.85,6.36,16.22,16.22,0,0,0-3,9.56,15.36,15.36,0,0,0,2.91,9.56,27.33,27.33,0,0,0,7.27,6.79,35.08,35.08,0,0,0,9.56,4.11,35.74,35.74,0,0,0,9.08,1.29,64.28,64.28,0,0,0,8.66-.47,32.69,32.69,0,0,0,6.4-1.49,26.67,26.67,0,0,0,10.33-7.55,18.61,18.61,0,0,0,4.4-12.38A16.52,16.52,0,0,0,634.24,497.41Zm-13.86-72.62a21.44,21.44,0,0,0-3.44-6.79,16.62,16.62,0,0,0-5.69-4.78,17.46,17.46,0,0,0-7.94-1.77,14.81,14.81,0,0,0-7.55,2.15,18.05,18.05,0,0,0-5.6,5.16,27,27,0,0,0-3.44,7.46,32.58,32.58,0,0,0-1.15,8.56,23.94,23.94,0,0,0,5.12,16.11A16.12,16.12,0,0,0,611.1,455a18,18,0,0,0,5.74-5.4,25.23,25.23,0,0,0,3.54-7.6,34.52,34.52,0,0,0,1.14-9,28.67,28.67,0,0,0-1.14-8.13Z"/><path class="cls-2" d="M700.93,489.8v-2a40.34,40.34,0,0,0,7.17-1.1,3.3,3.3,0,0,0,2.68-3.44v-42a29.12,29.12,0,0,0-3.68-15.63,13.35,13.35,0,0,0-12.38-5.93,16.6,16.6,0,0,0-9.18,2.34A47.1,47.1,0,0,0,677,428.9v54.88a4.5,4.5,0,0,0,1.19,2.44,5.21,5.21,0,0,0,2,1.1,14.3,14.3,0,0,0,2.68.38,19.56,19.56,0,0,1,3.15.43v1.67H653.79v-1.67a22.66,22.66,0,0,0,6.6-1.48,4.09,4.09,0,0,0,2.77-3.87V425.41a6.77,6.77,0,0,0,0-2,4,4,0,0,0-1.43-1.48l-3.54-2c-1.34-.72-2.67-1.34-4-1.91v-1l21.94-7.84H677v18.07h.33a52.8,52.8,0,0,1,4.45-6.35A40.52,40.52,0,0,1,688,415a37.17,37.17,0,0,1,7.7-4.45,22.33,22.33,0,0,1,8.65-1.72A17.21,17.21,0,0,1,719.24,416a31.08,31.08,0,0,1,5.16,18.6V484a2.3,2.3,0,0,0,1.1,2,7.28,7.28,0,0,0,2.58,1.29,27.71,27.71,0,0,0,3.26.67l3.25.43v1.48Z"/><path class="cls-2" d="M844.35,479.62a20.25,20.25,0,0,1-3.49,5.4,14.3,14.3,0,0,1-5.12,3.68,15.86,15.86,0,0,1-6.45,1.3,16.65,16.65,0,0,1-10.13-3.35,14,14,0,0,1-4.4-11.76h-.34a45.53,45.53,0,0,1-3.63,4.78,32,32,0,0,1-5.36,4.78,28.49,28.49,0,0,1-6.83,3.73,23.12,23.12,0,0,1-8.27,1.43,19.29,19.29,0,0,1-5.45-.76,12.44,12.44,0,0,1-4.78-2.68,14.23,14.23,0,0,1-3.68-4.78A17.1,17.1,0,0,1,775,474a13.7,13.7,0,0,1,3.78-9A43.75,43.75,0,0,1,788,457.1c3.68-2.29,6.94-4.3,9.56-6l7.46-4.3,5.83-3c1.63-.81,3-1.57,4.12-2.24V424.41a5.21,5.21,0,0,0-.63-1.63,8.82,8.82,0,0,0-2-2.58,12.59,12.59,0,0,0-3.92-2.44,16.59,16.59,0,0,0-6.5-1.05,15.48,15.48,0,0,0-5.31.91,18.78,18.78,0,0,0-4.78,2.34,15.42,15.42,0,0,0-3.16,2.82,4,4,0,0,0-1.19,2.44v7.55a5.25,5.25,0,0,1-2.44,4.16,8.33,8.33,0,0,1-5.26,1.87,6.36,6.36,0,0,1-4.78-2,6,6,0,0,1-1.91-4.4,6.88,6.88,0,0,1,1-3.68,11.68,11.68,0,0,1,2.49-3,18.25,18.25,0,0,1,3.3-2.34c1.14-.67,2.2-1.29,3.06-1.86,2.91-1.68,5.88-3.3,8.89-4.78s5.88-2.92,8.6-4a61.14,61.14,0,0,1,7.56-2.68,20.4,20.4,0,0,1,5.59-1,15.57,15.57,0,0,1,8.17,2.25,13.47,13.47,0,0,1,5.55,5.59,10.19,10.19,0,0,1,.81,4.11V467a13.91,13.91,0,0,0,2.58,9.95,9.58,9.58,0,0,0,11.62.86,8.09,8.09,0,0,0,2.53-4.11h1A18.45,18.45,0,0,1,844.35,479.62Zm-29.59-35.33a70.74,70.74,0,0,1-7.56,4.78c-3,1.63-5.92,3.4-8.79,5.31a39.34,39.34,0,0,0-7.36,6.26,11.28,11.28,0,0,0-3.06,7.79,11.74,11.74,0,0,0,3,7.85,9.81,9.81,0,0,0,7.84,3.53,24.72,24.72,0,0,0,7.69-1.05,14.36,14.36,0,0,0,6.22-3.82,6.08,6.08,0,0,0,2-4.78Z"/><path class="cls-2" d="M900.62,424a6.5,6.5,0,0,1-5,2.43,8.3,8.3,0,0,1-4.26-1,15.1,15.1,0,0,1-2.77-2.06,16.68,16.68,0,0,0-2.49-2.1,6.91,6.91,0,0,0-7.6.48,18.63,18.63,0,0,0-3.63,3.63,28.26,28.26,0,0,0-3,4.78c-.91,1.82-1.68,3.59-2.35,5.26v48.33a4.05,4.05,0,0,0,2.2,2.34,12.71,12.71,0,0,0,3.73,1.2,42.56,42.56,0,0,0,4.35.38,23,23,0,0,1,4,.43v1.67H846.26v-1.67a22.66,22.66,0,0,0,6.6-1.48,4.12,4.12,0,0,0,2.77-3.87V426.22a6.83,6.83,0,0,0-.24-2,4.06,4.06,0,0,0-1.43-1.48l-3.54-2.1a26.48,26.48,0,0,0-4-2.1v-1L868.25,409h1l-.34,23.24h.34c.52-1.34,1.43-3.3,2.67-5.84a47.86,47.86,0,0,1,4.78-7.79,28.64,28.64,0,0,1,6.84-6.79,15.44,15.44,0,0,1,9.23-2.82,10.4,10.4,0,0,1,7.07,2.49,8,8,0,0,1,3,6.36A8.79,8.79,0,0,1,900.62,424Z"/><path class="cls-2" d="M965.39,475.32a35.8,35.8,0,0,1-7.36,7.74,32.69,32.69,0,0,1-9.8,5.26,36.4,36.4,0,0,1-11.81,1.87,35.7,35.7,0,0,1-14.86-3.11,33.1,33.1,0,0,1-11.72-8.7,42.23,42.23,0,0,1-7.65-13.15,46.73,46.73,0,0,1-2.72-16.06,42.12,42.12,0,0,1,2.82-15.3,41,41,0,0,1,7.89-12.81,37.83,37.83,0,0,1,12-8.84,34.09,34.09,0,0,1,15.15-3.35,43.71,43.71,0,0,1,10.86,1.34A34.11,34.11,0,0,1,957.7,414a22.42,22.42,0,0,1,6.79,6.22,14.36,14.36,0,0,1,2.58,8.51,8.8,8.8,0,0,1-8.7,8.7,8.51,8.51,0,0,1-5.12-1.68,7.46,7.46,0,0,1-2.92-4.16,18,18,0,0,0,.82-5.68,16.19,16.19,0,0,0-3.25-10.33,12.34,12.34,0,0,0-10.28-4.11,18,18,0,0,0-9.56,2.68,26.32,26.32,0,0,0-7.51,7.21,35.77,35.77,0,0,0-5,10.52,43.78,43.78,0,0,0-1.86,12.91,45.19,45.19,0,0,0,2,13.81,32.21,32.21,0,0,0,5.68,10.71,25.51,25.51,0,0,0,9,7,27.76,27.76,0,0,0,11.81,2.44,33.14,33.14,0,0,0,16.4-3.44,27.8,27.8,0,0,0,10-10.09l1.34.67A34.58,34.58,0,0,1,965.39,475.32Z"/><path class="cls-2" d="M1014.92,489.8v-2a48.74,48.74,0,0,0,7.51-1.1,3.43,3.43,0,0,0,3-3.44V441.62a59.41,59.41,0,0,0-.67-9,19.63,19.63,0,0,0-2.44-7.17,12,12,0,0,0-4.78-4.78,15.34,15.34,0,0,0-7.7-1.72,22.11,22.11,0,0,0-10.23,2.2,17.72,17.72,0,0,0-6.69,5.88A11.74,11.74,0,0,0,992,429a8.86,8.86,0,0,0-.57,2.92v51.49a3.11,3.11,0,0,0,.81,2.34,5.24,5.24,0,0,0,2.2,1.24,15.9,15.9,0,0,0,2.87.81,31.23,31.23,0,0,1,3.34.48V490H967.21v-1.68a35.34,35.34,0,0,0,6.93-1.24,3.92,3.92,0,0,0,3.11-4.11V387.74a6.79,6.79,0,0,0-.24-2,3.7,3.7,0,0,0-1.43-1.48A15.56,15.56,0,0,0,972,382c-1.53-.71-3-1.53-4.44-2.39v-1l22.75-10.23h1.34l-.48,58.08h.34a28.71,28.71,0,0,1,3.58-5.35,30.34,30.34,0,0,1,6.07-5.69,40.26,40.26,0,0,1,8.42-4.78,27.28,27.28,0,0,1,10.42-1.91,20.16,20.16,0,0,1,9.27,1.91,15.35,15.35,0,0,1,6,5.55,21.89,21.89,0,0,1,3.2,8.12,56.1,56.1,0,0,1,.91,10.18V484a2.43,2.43,0,0,0,1,2,6.45,6.45,0,0,0,2.49,1.29,26.74,26.74,0,0,0,3.2.67l3.16.43v1.48Z"/><path class="cls-2" d="M1049.05,489.8v-1.67a19,19,0,0,0,4-.43,15.3,15.3,0,0,0,3.59-.81,8.69,8.69,0,0,0,2.67-1.58,3.31,3.31,0,0,0,1.1-2.53V425.41a8.38,8.38,0,0,0-.28-2.34,3.39,3.39,0,0,0-1.39-1.87,27.91,27.91,0,0,0-3.63-2,41.08,41.08,0,0,0-4.4-1.81v-1.24l22.56-7.32h1v75a3.92,3.92,0,0,0,1.43,2.44,7.86,7.86,0,0,0,2.58,1.1,23.62,23.62,0,0,0,3.25.38,19.85,19.85,0,0,1,3.44.43v1.67ZM1073,389a9.07,9.07,0,0,1-12.81,0,8.88,8.88,0,0,1-2.59-6.31,8.49,8.49,0,0,1,2.59-6.36,9.56,9.56,0,0,1,12.9,0,8.45,8.45,0,0,1,2.58,6.36,8.63,8.63,0,0,1-2.58,6.31Z"/><path class="cls-2" d="M1161.88,412.84a23,23,0,0,0-4.78,1.24,15.07,15.07,0,0,0-4.78,2.77,13.31,13.31,0,0,0-3.49,4.78c-1.34,3.11-2.92,6.79-4.78,11.05s-3.54,8.65-5.41,13.38-3.77,9.56-5.64,14.06-3.54,8.94-5.07,12.86l-2.19,5.3L1124,482.2l-1.62,3.54c-.48,1.1-1.05,2.39-1.72,3.83a1.74,1.74,0,0,1-1.68,1,1.12,1.12,0,0,1-1-.43,4.12,4.12,0,0,1-.52-.72l-4.79-13-4.78-12.53c-1.67-4.3-3.49-8.89-5.35-13.81s-4-10.42-6.36-16.54c-.33-.91-.81-2.11-1.43-3.64s-1.25-3.06-1.91-4.78-1.34-3.3-2-4.78-1.29-2.82-1.87-3.87a21.5,21.5,0,0,0-3.1-2.25,19.13,19.13,0,0,0-7.61-1.57v-2h40.35v1.86l-3.77.43a28,28,0,0,0-4.26.77,11.29,11.29,0,0,0-3.44,1.38,3.09,3.09,0,0,0-1.44,2.78,19.21,19.21,0,0,0,1.1,4c.72,2.11,1.68,4.78,2.82,7.89s2.49,6.55,4,10.37l4.4,11.38,4.45,11c1.43,3.54,2.67,6.65,3.68,9.57,1.67-4.16,3.63-9,5.88-14.78s4.35-11.23,6.36-16.73,3.68-10.23,5.06-14.34a37.84,37.84,0,0,0,2.11-7.7,5,5,0,0,0-1.25-3.63,7,7,0,0,0-3.1-1.72,14.57,14.57,0,0,0-3.83-.53h-3.54v-2.05h32.47v1.86A28.07,28.07,0,0,0,1161.88,412.84Z"/><path class="cls-2" d="M1222,472.64a32.3,32.3,0,0,1-6.36,8.46,33.33,33.33,0,0,1-9.56,6.36,30.24,30.24,0,0,1-12.43,2.54,37.67,37.67,0,0,1-15.59-3.21,34.13,34.13,0,0,1-11.95-8.94,40.85,40.85,0,0,1-7.6-13.57,49.54,49.54,0,0,1-2.68-16.5,41.69,41.69,0,0,1,9.56-26.39,36.2,36.2,0,0,1,11.19-9,31.44,31.44,0,0,1,14.68-3.4,44.7,44.7,0,0,1,12.28,1.63,29.2,29.2,0,0,1,10,5.11,26.42,26.42,0,0,1,6.94,8.66,31.33,31.33,0,0,1,3.2,12.19H1170v3.1a30.71,30.71,0,0,0,0,3.59,45.3,45.3,0,0,0,2,13.48,35.23,35.23,0,0,0,5.88,11.38,26.88,26.88,0,0,0,9.56,7.79,31,31,0,0,0,13.53,2.82,25.43,25.43,0,0,0,14.63-4.25,20.31,20.31,0,0,0,8.13-10.57l1.34.34A33.68,33.68,0,0,1,1222,472.64Zm-19.13-56.5a15.22,15.22,0,0,0-11.47-4.45,13.93,13.93,0,0,0-8.46,2.77,29.5,29.5,0,0,0-6.5,6.46,31.36,31.36,0,0,0-4.26,7.41,33.29,33.29,0,0,0-1.86,5.78h30.74a14.3,14.3,0,0,0,3.82-.86,13.23,13.23,0,0,0,1.77-2.49,8.35,8.35,0,0,0,.57-3.53A14.81,14.81,0,0,0,1202.89,416.14Z"/></g></g></g></g></svg>