<svg xmlns="http://www.w3.org/2000/svg" viewBox="0 0 173.65 75.31"><defs><style>.cls-1{fill:#fff;}</style></defs><title>Asset 1</title><g id="Layer_2" data-name="Layer 2"><g id="Layer_6" data-name="Layer 6"><path class="cls-1" d="M33.57,34.35a4.05,4.05,0,0,1-3.1,1.5,5.21,5.21,0,0,1-2.63-.57A8.35,8.35,0,0,1,26.14,34a11,11,0,0,0-1.55-1.29,4,4,0,0,0-2.28-.57,4.06,4.06,0,0,0-2.42.87,11.21,11.21,0,0,0-2.23,2.23,17.93,17.93,0,0,0-1.85,3c-.56,1.14-1,2.22-1.45,3.26V71.28a2.48,2.48,0,0,0,1.34,1.44,7.86,7.86,0,0,0,2.33.73,22.75,22.75,0,0,0,2.68.26,16,16,0,0,1,2.43.25v1H0V74A13,13,0,0,0,4.08,73a2.44,2.44,0,0,0,1.7-2.37V35.74a3.88,3.88,0,0,0-.15-1.24,2.43,2.43,0,0,0-.88-.93c-.62-.34-1.34-.77-2.17-1.29A17.8,17.8,0,0,0,.1,31v-.62L13.64,25.1h.62l-.21,14.36h.21c.34-.83.89-2,1.65-3.61A31.27,31.27,0,0,1,18.8,31,18.1,18.1,0,0,1,23,26.86a9.57,9.57,0,0,1,5.68-1.76,6.54,6.54,0,0,1,4.39,1.55,5,5,0,0,1,1.81,3.93A5.43,5.43,0,0,1,33.57,34.35Z"/><path class="cls-1" d="M70.4,66.89a13.78,13.78,0,0,1-4.29,4.8A18.05,18.05,0,0,1,60,74.38a31.38,31.38,0,0,1-7.29.82,42.69,42.69,0,0,1-8.57-.82A34.85,34.85,0,0,1,36.67,72V58.37h.83a52.85,52.85,0,0,0,2.06,5.21,26,26,0,0,0,3,5.06,14.84,14.84,0,0,0,4.22,3.83A11.05,11.05,0,0,0,52.62,74a10.8,10.8,0,0,0,7.87-2.84q2.94-2.84,2.94-8.73a7.44,7.44,0,0,0-2-5.32,10.25,10.25,0,0,0-5.51-2.84q-2.77-.51-5.35-1.13c-1.71-.42-3.25-.86-4.63-1.35a12.79,12.79,0,0,1-6.32-4.64,13.08,13.08,0,0,1-2.42-8,12.4,12.4,0,0,1,1.34-5.78,14.14,14.14,0,0,1,3.62-4.45,16.46,16.46,0,0,1,5.26-2.84,20.63,20.63,0,0,1,6.41-1,33.45,33.45,0,0,1,7.64.78,48.32,48.32,0,0,1,6.31,1.91L69,40.6l-.82.2q-1.46-3.09-2.89-5.73a23.45,23.45,0,0,0-3.21-4.54,12.5,12.5,0,0,0-4-3,12,12,0,0,0-5.12-1,10.15,10.15,0,0,0-3.46.62,8.85,8.85,0,0,0-3,1.81,9.22,9.22,0,0,0-2.12,3,10,10,0,0,0-.83,4.19c0,2.54.73,4.37,2.17,5.47a14.91,14.91,0,0,0,5.48,2.48q2.26.53,5,1.08c1.79.38,3.34.75,4.64,1.09A15.34,15.34,0,0,1,68.75,51,12.79,12.79,0,0,1,72,59.92,14.35,14.35,0,0,1,70.4,66.89Z"/><path class="cls-1" d="M113.11,75.31h-.62V65h-.1a21,21,0,0,1-7.08,7.64A19.3,19.3,0,0,1,95.14,75.1a18.89,18.89,0,0,1-7.39-1.5A17.35,17.35,0,0,1,81.4,69,23.52,23.52,0,0,1,77,61.21a31.32,31.32,0,0,1-1.65-10.59,26,26,0,0,1,1.91-10A24.25,24.25,0,0,1,90.9,27.07a28.42,28.42,0,0,1,10.75-2,31.77,31.77,0,0,1,5.83.52,41.7,41.7,0,0,1,5,1.24c-.07-1-.12-2.44-.15-4.24s0-3.61,0-5.47V8.37l-8.47-3.2V4.55L120.24,0h.83V67a22.38,22.38,0,0,0,3.1,1.45l4.23,1.76V71Zm-.72-38.84a20,20,0,0,0-5.78-6.82,11.31,11.31,0,0,0-6.51-2.58,12.32,12.32,0,0,0-6.87,1.85,15.11,15.11,0,0,0-4.7,5A23.69,23.69,0,0,0,85.79,41a38.44,38.44,0,0,0-.88,8.27,32.47,32.47,0,0,0,1,8.21,22.4,22.4,0,0,0,3.09,7,16.63,16.63,0,0,0,5.12,4.91,13.3,13.3,0,0,0,7.07,1.86,10.2,10.2,0,0,0,7.29-2.89,13.16,13.16,0,0,0,3.87-7.34Z"/><path class="cls-1" d="M172.72,68.7a12.68,12.68,0,0,1-2.17,3.35,9,9,0,0,1-3.15,2.28A10.54,10.54,0,0,1,157.17,73c-1.82-1.37-2.74-3.78-2.74-7.23l-.2-.1a24.78,24.78,0,0,1-2.22,3,21,21,0,0,1-3.31,3.1,16.84,16.84,0,0,1-4.23,2.32,14.3,14.3,0,0,1-5.12.88,12.78,12.78,0,0,1-3.36-.47,7.93,7.93,0,0,1-3.09-1.65,9,9,0,0,1-2.28-3,10.65,10.65,0,0,1-.88-4.54,8.46,8.46,0,0,1,2.33-5.58,26.06,26.06,0,0,1,5.73-4.86c2.27-1.44,4.29-2.68,6-3.72s3.29-1.91,4.6-2.63,2.46-1.34,3.46-1.86,1.84-1,2.53-1.39V34.61a3.51,3.51,0,0,0-.36-1,5.55,5.55,0,0,0-1.24-1.6,8.1,8.1,0,0,0-2.43-1.49,10.13,10.13,0,0,0-4-.68,9.65,9.65,0,0,0-3.26.57,11.49,11.49,0,0,0-2.84,1.45,10.15,10.15,0,0,0-2,1.75,2.6,2.6,0,0,0-.72,1.5v4.65a3.24,3.24,0,0,1-1.5,2.58,5.28,5.28,0,0,1-3.26,1.14A3.85,3.85,0,0,1,130,42.3a3.76,3.76,0,0,1-1.19-2.74,4.38,4.38,0,0,1,.62-2.27A8.08,8.08,0,0,1,131,35.43,12,12,0,0,1,133,34c.72-.42,1.36-.79,1.91-1.14,1.79-1,3.62-2,5.47-3s3.64-1.79,5.32-2.47,3.24-1.24,4.65-1.66a13.06,13.06,0,0,1,3.46-.62,9.89,9.89,0,0,1,5.07,1.4,8.35,8.35,0,0,1,3.4,3.46,6.14,6.14,0,0,1,.52,2.53c.07,1.2.1,2.39.1,3.56,0,2.48,0,4.72-.05,6.72s0,3.92,0,5.78,0,3.77-.05,5.74-.05,4.11-.05,6.45q0,4.65,1.6,6.15a5.85,5.85,0,0,0,7.18.51A4.9,4.9,0,0,0,173,64.87h.62A10.81,10.81,0,0,1,172.72,68.7ZM154.43,46.9a42.09,42.09,0,0,1-4.64,2.84Q147,51.24,144.36,53a24.5,24.5,0,0,0-4.54,3.88,6.94,6.94,0,0,0-1.91,4.8,7.33,7.33,0,0,0,1.85,4.86,6.12,6.12,0,0,0,4.86,2.17,16.68,16.68,0,0,0,4.75-.62,9.16,9.16,0,0,0,3.82-2.38,3.74,3.74,0,0,0,1.24-2.89Z"/></g></g></svg>