<svg xmlns="http://www.w3.org/2000/svg" viewBox="0 0 1092 1092"><defs><style>.cls-1{fill:#fff;}.cls-2{fill:#edafb8;}</style></defs><title>Asset 21</title><g id="Layer_2" data-name="Layer 2"><g id="Layer_2-2" data-name="Layer 2"><rect class="cls-1" width="1092" height="1092"/></g><g id="Layer_16" data-name="Layer 16"><rect class="cls-2" x="531.68" y="863.57" width="197.7" height="33.43"/><polygon class="cls-2" points="729.38 429 678.15 429 677.9 395.57 729.38 395.57 729.38 429"/><path class="cls-2" d="M395.1,629.57H361.67V345.43C361.67,262.49,429.15,195,512.1,195H579c82.94,0,150.43,67.49,150.43,150.43V479.14H696a116.82,116.82,0,0,0-117-117H526.2V328.71H579a151.13,151.13,0,0,1,117,55.83V345.43a117.13,117.13,0,0,0-117-117H512.1a117.13,117.13,0,0,0-117,117Z"/><rect class="cls-2" x="361.67" y="729.86" width="33.43" height="167.14"/><path class="cls-1" d="M712.67,479.14A133.68,133.68,0,0,1,579,612.86H512.1"/><path class="cls-2" d="M579,495.86H512.1V462.43H579A116.8,116.8,0,0,0,680.11,404l29,16.63A150.31,150.31,0,0,1,579,495.86Z"/><path class="cls-2" d="M696,479.14a117.13,117.13,0,0,1-117,117H512.1A150.23,150.23,0,0,0,361.67,746.57H395.1a116.81,116.81,0,0,1,117-117H579c82.94,0,150.43-67.49,150.43-150.43Z"/><path class="cls-1" d="M378.38,612.86V746.57A133.68,133.68,0,0,0,512.1,880.29H679.24V746.57H512.1a133.18,133.18,0,0,1-115.66-66.86"/><path class="cls-2" d="M696,897H512.1c-82.94,0-150.43-67.49-150.43-150.43V612.86a16.71,16.71,0,1,1,33.43,0V663a16.78,16.78,0,0,1,15.84,8.35A116.8,116.8,0,0,0,512.1,729.86H696ZM395.1,707.3v39.27a117.13,117.13,0,0,0,117,117H662.52V763.29H512.1A150.48,150.48,0,0,1,395.1,707.3Z"/><path class="cls-2" d="M395.1,495.86H361.67V479.14c0-82.94,67.49-150.43,150.43-150.43h16.71v33.43H512.1a117.13,117.13,0,0,0-117,117Z"/><path class="cls-2" d="M395.1,629.57H361.67V612.86c0-82.94,67.49-150.43,150.43-150.43h16.71v33.43H512.1a117.13,117.13,0,0,0-117,117Z"/><rect class="cls-2" x="662.52" y="729.86" width="66.86" height="33.43"/><rect class="cls-2" x="662.52" y="796.71" width="66.86" height="33.43"/><rect class="cls-2" x="662.52" y="863.57" width="66.86" height="33.43"/></g></g></svg>