<?xml version="1.0" standalone="no"?>
<!DOCTYPE svg PUBLIC "-//W3C//DTD SVG 20010904//EN"
 "http://www.w3.org/TR/2001/REC-SVG-20010904/DTD/svg10.dtd">
<svg version="1.0" xmlns="http://www.w3.org/2000/svg"
 width="600.000000pt" height="600.000000pt" viewBox="0 0 600.000000 600.000000"
 preserveAspectRatio="xMidYMid meet">
<metadata>
Created by potrace 1.11, written by Peter Selinger 2001-2013
</metadata>
<g transform="translate(0.000000,600.000000) scale(0.100000,-0.100000)"
fill="#000000" stroke="none">
<path d="M2735 5989 c-55 -5 -155 -18 -223 -30 -627 -105 -1185 -391 -1632
-839 -719 -719 -1022 -1737 -815 -2742 91 -446 303 -893 595 -1258 108 -135
325 -352 460 -460 361 -288 810 -502 1245 -593 237 -50 362 -62 635 -62 273 0
398 12 635 62 435 91 884 305 1245 593 135 108 352 325 460 460 596 745 801
1717 560 2647 -223 860 -848 1599 -1663 1966 -466 210 -993 300 -1502 256z
m-490 -905 c118 -56 220 -267 277 -574 19 -99 22 -152 22 -385 0 -233 -3 -286
-22 -385 -68 -370 -198 -590 -347 -590 -149 0 -279 220 -347 590 -19 99 -22
152 -22 385 0 233 3 286 22 385 57 308 155 511 277 574 39 20 98 20 140 0z
m1650 0 c118 -56 220 -267 277 -574 19 -99 22 -152 22 -385 0 -233 -3 -286
-22 -385 -68 -370 -198 -590 -347 -590 -149 0 -279 220 -347 590 -19 99 -22
152 -22 385 0 233 3 286 22 385 57 308 155 511 277 574 39 20 98 20 140 0z
m-2840 -2186 c19 -297 84 -541 209 -788 281 -556 798 -931 1432 -1037 151 -25
457 -25 608 0 634 106 1151 481 1432 1037 125 247 190 491 209 788 l7 102 226
0 225 0 -6 -137 c-28 -603 -272 -1168 -682 -1578 -357 -357 -809 -579 -1352
-662 -151 -23 -575 -23 -726 0 -543 83 -995 305 -1352 662 -410 410 -654 975
-682 1578 l-6 137 225 0 226 0 7 -102z"/>
</g>
</svg>
