<svg xmlns="http://www.w3.org/2000/svg" viewBox="0 0 1092 1092"><defs><style>.cls-1{fill:#fff;}.cls-2{fill:#fbc210;}.cls-3,.cls-4{fill:none;stroke:#fbc210;stroke-linecap:square;stroke-width:18px;}.cls-3{stroke-miterlimit:10;}.cls-4{stroke-linejoin:bevel;}</style></defs><title>Asset 1</title><g id="Layer_2" data-name="Layer 2"><g id="Layer_2-2" data-name="Layer 2"><rect class="cls-1" width="1092" height="1092"/></g><g id="Layer_3" data-name="Layer 3"><rect class="cls-2" x="590.04" y="403.13" width="24.48" height="187.68"/><path class="cls-2" d="M818.6,536.41H684.1c-18.15,0-34.1-15.43-35.86-17.19l-40.8-40.8,8.66-20.9h54.4c.37,0,.68,0,.94,0,.51-2.47.47-7.64.44-11.23,0-1.21,0-2.44,0-3.7a15,15,0,0,0-15-15h-53V403.13h53a39.49,39.49,0,0,1,39.44,39.44c0,1.19,0,2.36,0,3.51.08,10.54.17,21.45-7.44,29.11-4.49,4.53-10.69,6.82-18.42,6.82H645.65l19.91,19.91c3.29,3.25,12.21,10,18.55,10H818.6ZM672.4,457.35Z"/><path class="cls-2" d="M818.6,536.41H738.35c-7.73,0-13.93-2.3-18.42-6.82-7.61-7.66-7.52-18.57-7.44-29.12,0-1.14,0-2.31,0-3.5A39.49,39.49,0,0,1,752,457.53H818.6V482H752a15,15,0,0,0-15,15c0,1.25,0,2.48,0,3.69,0,3.59-.07,8.77.44,11.24.25,0,.56,0,.94,0H818.6Z"/><path class="cls-2" d="M451.43,688.74H425.55c-28.94,0-39.44-22.11-39.44-37l.08-109.92,24.48,0-.08,109.79c.37,11,9.53,12.61,15,12.61h25.88Z"/><rect class="cls-2" x="386.15" y="555.45" width="106.08" height="24.48"/><path class="cls-2" d="M520.57,688.74a53,53,0,0,1-52.86-53l0-80.25h24.48l0,80.24a28.5,28.5,0,0,0,28.38,28.55c11.89,0,22.71-4.84,28.74-8.17V555.45h24.48V662.9l-5,9.85C567.93,673.4,546.81,688.74,520.57,688.74Z"/><rect class="cls-2" x="590.1" y="555.45" width="24.48" height="133.28"/><path class="cls-2" d="M750.52,688.74H683.86c-18.15,0-34.1-15.43-35.86-17.18l-40.8-40.8,8.66-20.9h54.46c.37,0,.68,0,.94,0,.51-2.47.47-7.64.44-11.24,0-1.21,0-2.44,0-3.69a15,15,0,0,0-15-15h-53.1V555.45h53a39.5,39.5,0,0,1,39.5,39.44c0,1.19,0,2.35,0,3.5.08,10.55.17,21.45-7.44,29.12-4.49,4.53-10.69,6.82-18.42,6.82H645.41l19.91,19.91c3.29,3.25,12.21,10,18.55,10h66.66Z"/><path class="cls-2" d="M792.74,688.74H751.92c-7.85,0-19.72,0-28.5-11.69-7.58-10.1-11-27-10.94-55l0-66.64h66.64a39.49,39.49,0,0,1,39.44,39.44c0,1.19,0,2.35,0,3.5.08,10.55.17,21.45-7.44,29.12-4.49,4.53-10.69,6.82-18.42,6.82h-55.5c.91,18.61,3.88,25.49,5.77,28,1.16,1.54,2.12,1.91,8.92,1.91h40.6a5.11,5.11,0,0,0,1.51-.38,5,5,0,0,0,.08-1V650.66h24.48V662.9C818.58,679.68,805.27,688.74,792.74,688.74Zm-.18-24.48h0ZM737,609.86h55.78c.37,0,.68,0,.94,0,.51-2.47.47-7.64.44-11.24,0-1.21,0-2.44,0-3.69a15,15,0,0,0-15-15H737Z"/><path class="cls-2" d="M439,536.41a53,53,0,0,1-52.86-53l0-80.25h24.48l0,80.24A28.5,28.5,0,0,0,439,511.93c11.89,0,22.72-4.84,28.74-8.16V403.13h24.48V516.76l-5,3.67C486.33,521.08,465.21,536.41,439,536.41Z"/><path class="cls-2" d="M520.57,536.41a53,53,0,0,1-52.86-53l0-80.25h24.48l0,80.24a28.5,28.5,0,0,0,28.38,28.55c11.89,0,22.72-4.84,28.75-8.16V403.13h24.48V516.76l-5,3.67C567.93,521.08,546.81,536.41,520.57,536.41Z"/><path class="cls-2" d="M818.6,536.41H794.12V442.57a15,15,0,0,0-15-15H712.51V403.13h66.64a39.49,39.49,0,0,1,39.44,39.44Z"/><rect class="cls-2" x="834.86" y="403.13" width="24.48" height="133.28"/><path class="cls-2" d="M915.12,482h-66.7V457.53h66.7c.37,0,.68,0,.94,0,.51-2.47.47-7.64.44-11.24,0-1.21,0-2.44,0-3.69a15,15,0,0,0-15-15h-53.1V403.13h53A39.5,39.5,0,0,1,941,442.57c0,1.19,0,2.35,0,3.5.08,10.55.17,21.45-7.44,29.12C929.05,479.72,922.85,482,915.12,482Z"/><path class="cls-3" d="M242,421.26"/><path class="cls-2" d="M242.7,694.18c-48.41,0-87.8-36-87.8-80.24v-136c0-44.25,39.39-80.24,87.8-80.24s87.8,36,87.8,80.24v136C330.5,658.18,291.11,694.18,242.7,694.18Zm0-272c-34.91,0-63.32,25-63.32,55.76v136c0,30.75,28.4,55.76,63.32,55.76s63.32-25,63.32-55.76v-136C306,447.19,277.61,422.17,242.7,422.17Z"/><path class="cls-2" d="M262.72,532.11l-20.77-13c15.59-25,44.83-40.5,76.3-40.5v24.48C295.16,503.13,273.89,514.23,262.72,532.11Z"/><path class="cls-2" d="M292.72,669.6H268.24V582.87c0-19.76-8.65-38.92-24.36-53.94-19.28-18.46-47.25-29-76.74-29V475.41c35.74,0,69.87,13.06,93.66,35.83,20.58,19.68,31.91,45.12,31.91,71.63Z"/><rect class="cls-2" x="794.04" y="457.53" width="65.28" height="24.48"/><path class="cls-4" d="M847,619.38"/></g></g></svg>